SplineFontDB: 3.0
FontName: Parastoo-Bold
FullName: Parastoo Bold
FamilyName: Parastoo
Weight: Bold
Copyright: Copyright (c) 2003 by Bitstream, Inc. All Rights Reserved.\nDejaVu changes are in public domain\nCopyright (c) 2015 by Saber Rastikerdar. All Rights Reserved.
Version: 0.11.2
ItalicAngle: 0
UnderlinePosition: -205
UnderlineWidth: 100
Ascent: 1638
Descent: 410
InvalidEm: 0
LayerCount: 2
Layer: 0 1 "Back" 1
Layer: 1 1 "Fore" 0
XUID: [1021 502 1027637223 1622091]
UniqueID: 4196919
UseUniqueID: 1
FSType: 0
OS2Version: 1
OS2_WeightWidthSlopeOnly: 0
OS2_UseTypoMetrics: 1
CreationTime: 1431850356
ModificationTime: 1459099490
PfmFamily: 17
TTFWeight: 700
TTFWidth: 5
LineGap: 0
VLineGap: 0
Panose: 2 11 6 3 3 8 4 2 2 4
OS2TypoAscent: 2000
OS2TypoAOffset: 0
OS2TypoDescent: -1000
OS2TypoDOffset: 0
OS2TypoLinegap: 0
OS2WinAscent: 2000
OS2WinAOffset: 0
OS2WinDescent: 1000
OS2WinDOffset: 0
HheadAscent: 2000
HheadAOffset: 0
HheadDescent: -1000
HheadDOffset: 0
OS2SubXSize: 1331
OS2SubYSize: 1433
OS2SubXOff: 0
OS2SubYOff: 286
OS2SupXSize: 1331
OS2SupYSize: 1433
OS2SupXOff: 0
OS2SupYOff: 983
OS2StrikeYSize: 102
OS2StrikeYPos: 530
OS2Vendor: 'PfEd'
OS2CodePages: 600001ff.dfff0000
Lookup: 1 0 0 "'case' Case-Sensitive Forms in Latin lookup 0" { "'case' Case-Sensitive Forms in Latin lookup 0 subtable"  } ['case' ('DFLT' <'dflt' > 'latn' <'CAT ' 'ESP ' 'GAL ' 'dflt' > ) ]
Lookup: 6 1 0 "'ccmp' Glyph Composition/Decomposition lookup 2" { "'ccmp' Glyph Composition/Decomposition lookup 2 subtable"  } ['ccmp' ('arab' <'KUR ' 'SND ' 'URD ' 'dflt' > 'hebr' <'dflt' > 'nko ' <'dflt' > ) ]
Lookup: 6 0 0 "'ccmp' Glyph Composition/Decomposition lookup 3" { "'ccmp' Glyph Composition/Decomposition lookup 3 subtable"  } ['ccmp' ('cyrl' <'MKD ' 'SRB ' 'dflt' > 'grek' <'dflt' > 'latn' <'ISM ' 'KSM ' 'LSM ' 'MOL ' 'NSM ' 'ROM ' 'SKS ' 'SSM ' 'dflt' > ) ]

StartChar: afii57388
Encoding: 1548 1548 2
Width: 801
VWidth: 2799
GlyphClass: 2
Flags: W
LayerCount: 2
Fore
SplineSet
588.622587344 669.645508123 m 132,-1,1
 573 656 573 656 551.740234375 638.033691406 c 132,-1,2
 530.48046875 620.067382812 530.48046875 620.067382812 511.98828125 598.523925781 c 0,3,4
 414.816341946 485.318308597 414.816341946 485.318308597 407.932617188 328.03515625 c 1,5,-1
 450.4765625 328.03515625 l 2,6,7
 576.150390625 327.773711412 576.150390625 327.773711412 576.150390625 186.72265625 c 2,8,-1
 576.150390625 143.462890625 l 2,9,10
 576.315429688 80.8720703125 576.315429688 80.8720703125 541.89453125 47.513671875 c 128,-1,11
 507.47265625 14.15625 507.47265625 14.15625 443.229492188 14.15625 c 2,12,-1
 396.014648438 14.15625 l 2,13,14
 328.952148438 14.15625 328.952148438 14.15625 293.4765625 51.537109375 c 128,-1,15
 258 88.91796875 258 88.91796875 258 158.762695312 c 2,16,-1
 258 238.412109375 l 2,17,18
 258 546.548828125 258 546.548828125 527.959960938 697.60546875 c 0,19,20
 579.058832083 726.32700485 579.058832083 726.32700485 591.652003385 704.809010548 c 128,-1,0
 604.245174688 683.291016245 604.245174688 683.291016245 588.622587344 669.645508123 c 132,-1,1
EndSplineSet
EndChar

StartChar: uni0615
Encoding: 1557 1557 3
Width: 0
VWidth: 2838
GlyphClass: 4
Flags: W
AnchorPoint: "Anchor-10" 636.893 1534.72 mark 0
AnchorPoint: "Anchor-9" 636.893 1534.72 mark 0
AnchorPoint: "Anchor-1" 636.893 2438.47 basemark 0
AnchorPoint: "Anchor-1" 636.893 1534.72 mark 0
LayerCount: 2
Fore
SplineSet
535.91796875 1757.15234375 m 1,0,-1
 642.431640625 1757.15234375 l 2,1,2
 728.21454328 1756.76487646 728.21454328 1756.76487646 782.473970859 1775.61778979 c 128,-1,3
 836.733398438 1794.47070312 836.733398438 1794.47070312 857.958007812 1820.02441406 c 128,-1,4
 879.181640625 1845.57910156 879.181640625 1845.57910156 880.233398438 1882.3125 c 0,5,6
 881.518554688 1961.6328125 881.518554688 1961.6328125 811.416015625 1968.52832031 c 0,7,8
 788.630932219 1970.8062505 788.630932219 1970.8062505 761.326171875 1958.79003906 c 0,9,10
 665.18367511 1912.93546603 665.18367511 1912.93546603 535.91796875 1757.15234375 c 1,0,-1
974.735351562 1896.21777344 m 0,11,12
 974.942382812 1666.82324219 974.942382812 1666.82324219 674.432617188 1666.82324219 c 2,13,-1
 300.443359375 1666.82324219 l 1,14,-1
 300.443359375 1757.15234375 l 1,15,-1
 413.063476562 1757.15234375 l 1,16,-1
 413.063476562 2311.91601562 l 1,17,-1
 504.784179688 2311.91601562 l 1,18,-1
 504.784179688 1806.08300781 l 1,19,20
 610.935922244 1946.59850784 610.935922244 1946.59850784 711.166691591 2009.37103126 c 128,-1,21
 811.397460938 2072.14355469 811.397460938 2072.14355469 881.784179688 2043.16015625 c 0,22,23
 974.942704725 2005.895969 974.942704725 2005.895969 974.735351562 1896.21777344 c 0,11,12
EndSplineSet
EndChar

StartChar: uni061B
Encoding: 1563 1563 4
Width: 812
VWidth: 2799
GlyphClass: 2
Flags: W
LayerCount: 2
Fore
SplineSet
277.369140625 164.5546875 m 128,-1,1
 277.369140625 227.5703125 277.369140625 227.5703125 322.249023438 272.291015625 c 128,-1,2
 367.12890625 317.01171875 367.12890625 317.01171875 430.369140625 317.01171875 c 128,-1,3
 493.609375 317.01171875 493.609375 317.01171875 538.489257812 272.291015625 c 128,-1,4
 583.369140625 227.5703125 583.369140625 227.5703125 583.369140625 164.5546875 c 128,-1,5
 583.369140625 101.5390625 583.369140625 101.5390625 538.489257812 56.818359375 c 128,-1,6
 493.609375 12.09765625 493.609375 12.09765625 430.369140625 12.09765625 c 128,-1,7
 367.12890625 12.09765625 367.12890625 12.09765625 322.249023438 56.818359375 c 128,-1,0
 277.369140625 101.5390625 277.369140625 101.5390625 277.369140625 164.5546875 c 128,-1,1
587.55859375 663.630859375 m 2,8,9
 587.9008205 534.32421875 587.9008205 534.32421875 454.638671875 534.32421875 c 2,10,-1
 407.422851562 534.32421875 l 2,11,12
 340.360351562 534.32421875 340.360351562 534.32421875 304.884765625 571.705078125 c 128,-1,13
 269.408203125 609.0859375 269.408203125 609.0859375 269.408203125 678.931640625 c 2,14,-1
 269.408203125 758.581054688 l 2,15,16
 269.408203125 1066.71777344 269.408203125 1066.71777344 539.368164062 1217.77539062 c 0,17,18
 597.515632661 1250.44940464 597.515632661 1250.44940464 609.309570312 1213.09667969 c 0,19,20
 615.417047813 1193.75361256 615.417047813 1193.75361256 584.761258281 1171.24545862 c 0,21,22
 424.409003519 1053.51131153 424.409003519 1053.51131153 415.06640625 848.205078125 c 1,23,-1
 461.884765625 848.205078125 l 2,24,25
 587.55859375 847.944530999 587.55859375 847.944530999 587.55859375 706.891601562 c 2,26,-1
 587.55859375 663.630859375 l 2,8,9
EndSplineSet
EndChar

StartChar: uni061F
Encoding: 1567 1567 5
Width: 1148
VWidth: 2792
GlyphClass: 2
Flags: W
LayerCount: 2
Fore
SplineSet
489.165039062 163.44921875 m 128,-1,1
 489.165039062 226.46484375 489.165039062 226.46484375 534.044921875 271.185546875 c 128,-1,2
 578.924804688 315.90625 578.924804688 315.90625 642.165039062 315.90625 c 128,-1,3
 705.405273438 315.90625 705.405273438 315.90625 750.28515625 271.185546875 c 128,-1,4
 795.165039062 226.46484375 795.165039062 226.46484375 795.165039062 163.44921875 c 128,-1,5
 795.165039062 100.43359375 795.165039062 100.43359375 750.28515625 55.712890625 c 128,-1,6
 705.405273438 10.9921875 705.405273438 10.9921875 642.165039062 10.9921875 c 128,-1,7
 578.924804688 10.9921875 578.924804688 10.9921875 534.044921875 55.712890625 c 128,-1,0
 489.165039062 100.43359375 489.165039062 100.43359375 489.165039062 163.44921875 c 128,-1,1
635.567382813 480.68359375 m 0,8,9
 607 483 607 483 604.028320312 526.096679688 c 1,10,-1
 602.930664062 579.048828125 l 1,11,12
 595 698 595 698 447.569335938 792.413085938 c 0,13,14
 431 803 431 803 390.338867188 830.006835938 c 0,15,16
 349 857 349 857 328.430664062 872.54296875 c 0,17,18
 154 1004 154 1004 153.995117188 1199.7421875 c 0,19,20
 154 1396 154 1396 301.104492188 1519.84960938 c 0,21,22
 419 1619 419 1619 578.03515625 1618.578125 c 0,23,24
 804 1619 804 1619 919.97265625 1489.66210938 c 0,25,26
 1000 1401 1000 1401 1000.52929688 1249.81542969 c 0,27,28
 1001 1099 1001 1099 911.509765625 1022.21777344 c 0,29,30
 877 993 877 993 857.84765625 1020.22851562 c 0,31,32
 839 1048 839 1048 855.232421875 1081.57226562 c 0,33,34
 933 1233 933 1233 865.369140625 1327.88671875 c 0,35,36
 798 1423 798 1423 655.087890625 1422.88183594 c 0,37,38
 512 1423 512 1423 434.340820312 1341.94042969 c 0,39,40
 403 1309 403 1309 386.288085938 1263.75878906 c 0,41,42
 333 1112 333 1112 496.639648438 944.762695312 c 0,43,44
 517 924 517 924 562.157226562 878.6953125 c 0,45,46
 608 834 608 834 635.732421875 792.508789062 c 0,47,48
 695 706 695 706 694.980384976 620.388666793 c 0,49,50
 695 476 695 476 635.567382813 480.68359375 c 0,8,9
EndSplineSet
EndChar

StartChar: uni0621
Encoding: 1569 1569 6
Width: 925
VWidth: 3092
GlyphClass: 2
Flags: W
AnchorPoint: "Anchor-7" 484.039 -319.895 basechar 0
AnchorPoint: "Anchor-10" 442.83 1286.18 basechar 0
LayerCount: 2
Fore
SplineSet
80.3984375 -69.236328125 m 1,0,-1
 182.288085938 183.333007812 l 1,1,-1
 187.565429688 185.844726562 l 2,2,3
 306.294921875 242.350585938 306.294921875 242.350585938 374.221679688 269.28125 c 1,4,5
 184.71875 295.721679688 184.71875 295.721679688 148.990234375 430.209960938 c 0,6,7
 136.759765625 476.248046875 136.759765625 476.248046875 144.118164062 532.732421875 c 0,8,9
 169.622070312 728.125976562 169.622070312 728.125976562 259.861328125 827.731445312 c 128,-1,10
 350.099609375 927.336914062 350.099609375 927.336914062 503.416015625 925.759765625 c 0,11,12
 686.537109375 924.333007812 686.537109375 924.333007812 750.676757812 709.4921875 c 2,13,-1
 761.443359375 673.43359375 l 1,14,-1
 735.073242188 681.01953125 l 2,15,16
 468.51171875 757.698242188 468.51171875 757.698242188 378.997070312 684.239257812 c 0,17,18
 333.116210938 646.588867188 333.116210938 646.588867188 310.131835938 610.772460938 c 128,-1,19
 287.146484375 574.95703125 287.146484375 574.95703125 285.772460938 541.483398438 c 0,20,21
 283.568359375 487.801757812 283.568359375 487.801757812 314.529296875 452.609375 c 128,-1,22
 345.490234375 417.416992188 345.490234375 417.416992188 413.66015625 398.708984375 c 0,23,24
 498.1015625 375.534179688 498.1015625 375.534179688 590.239257812 387.841796875 c 0,25,26
 637.018554688 394.090820312 637.018554688 394.090820312 692.702148438 407.1484375 c 128,-1,27
 748.38671875 420.205078125 748.38671875 420.205078125 812.768554688 440.059570312 c 2,28,-1
 844.225585938 449.760742188 l 1,29,-1
 737.349609375 208.208007812 l 1,30,-1
 730.495117188 206.318359375 l 2,31,32
 608.030273438 172.555664062 608.030273438 172.555664062 441.46484375 95.923828125 c 0,33,34
 273.764648438 18.7705078125 273.764648438 18.7705078125 114.568359375 -53.6845703125 c 2,35,-1
 80.3984375 -69.236328125 l 1,0,-1
EndSplineSet
EndChar

StartChar: uni0627
Encoding: 1575 1575 12
Width: 503
VWidth: 3062
GlyphClass: 2
Flags: W
AnchorPoint: "Anchor-10" 280.945 1701.52 basechar 0
AnchorPoint: "Anchor-7" 271.153 -196.291 basechar 0
LayerCount: 2
Fore
SplineSet
366.220703125 1548.99414062 m 2,0,1
 394.985844943 1085.5597982 394.985844943 1085.5597982 372.1796875 376.321289062 c 0,2,3
 360.002867165 2.08811726458 360.002867165 2.08811726458 235.354492188 -12.3203125 c 6,4,-1
 211.3359375 -15.0966796875 l 1,5,6
 206 204 206 204 145.651367188 1204.50878906 c 0,7,8
 134 1398 134 1398 120.34375 1461.56835938 c 1,9,-1
 364.680664062 1573.80566406 l 1,10,-1
 366.220703125 1548.99414062 l 2,0,1
EndSplineSet
Substitution2: "'fina' Terminal Forms in Arabic lookup 9 subtable" uniFE8E
EndChar

StartChar: uni062D
Encoding: 1581 1581 18
Width: 1377
VWidth: 3090
GlyphClass: 2
Flags: W
AnchorPoint: "Anchor-7" 407.084 -888.826 basechar 0
AnchorPoint: "Anchor-10" 619.327 1353.37 basechar 0
LayerCount: 2
Fore
SplineSet
940.302734375 -720.953125 m 4,0,1
 908 -738 908 -738 780.48046875 -738 c 4,2,3
 417 -738 417 -738 256.935546875 -586.939453125 c 4,4,5
 102 -440 102 -440 102.01171875 -192.650390625 c 4,6,7
 103 236 103 236 510.548828125 418.404296875 c 5,8,9
 603 467 603 467 798.708007812 512.854492188 c 5,10,11
 734 533 734 533 608.583984375 577.879882812 c 4,12,13
 486 622 486 622 397.248046875 613.495117188 c 4,14,15
 276 602 276 602 184.455078125 474.157226562 c 4,16,17
 141.2109375 413.296875 141.2109375 413.296875 124.532226562 407.592773438 c 6,18,-1
 115.537109375 404.516601562 l 5,19,20
 92 429 92 429 100.844726562 460.41015625 c 4,21,22
 180 751 180 751 257.686523438 823.060546875 c 4,23,24
 328 887 328 887 447.484375 894.928710938 c 132,-1,25
 567 903 567 903 758.758789062 802.963867188 c 4,26,27
 950 703 950 703 1276.05859375 672.606445312 c 5,28,-1
 1225.08496094 411.357421875 l 5,29,30
 1034 401 1034 401 896.834960938 369.421875 c 4,31,32
 652 314 652 314 501.631835938 228.141601562 c 4,33,34
 224 71 224 71 225.559570312 -172.697265625 c 4,35,36
 227 -477 227 -477 915.454101562 -432.790039062 c 4,37,38
 1133 -419 1133 -419 1183.94824219 -412.8984375 c 4,39,40
 1235 -407 1235 -407 1247.046875 -409.7109375 c 4,41,42
 1266 -414 1266 -414 1245.01074219 -443.78125 c 4,43,44
 1113 -629 1113 -629 940.302734375 -720.953125 c 4,0,1
EndSplineSet
Substitution2: "'fina' Terminal Forms in Arabic lookup 9 subtable" uniFEA2
Substitution2: "'medi' Medial Forms in Arabic lookup 11 subtable" uniFEA4
Substitution2: "'init' Initial Forms in Arabic lookup 13 subtable" uniFEA3
EndChar

StartChar: uni062F
Encoding: 1583 1583 20
Width: 1028
VWidth: 3088
GlyphClass: 2
Flags: W
AnchorPoint: "Anchor-10" 453.745 1447.75 basechar 0
AnchorPoint: "Anchor-7" 377.032 -245.66 basechar 0
LayerCount: 2
Fore
SplineSet
901.356445312 193.18359375 m 0,0,1
 829 -14 829 -14 461.120117188 -11.904296875 c 0,2,3
 322 -11 322 -11 232.037109375 24.68359375 c 0,4,5
 27 104 27 104 105.374023438 463.751953125 c 1,6,7
 151 487 151 487 202.608398438 462.018554688 c 1,8,9
 189 364 189 364 226.854492188 333.174804688 c 0,10,11
 278 292 278 292 409.733398438 291.180664062 c 0,12,13
 608 289 608 289 685.922851562 311.208007812 c 0,14,15
 764 333 764 333 803.286132812 367.893554688 c 1,16,17
 804 382 804 382 792.369140625 416.6484375 c 0,18,19
 726 601 726 601 432.0859375 776.624023438 c 1,20,-1
 497.364257812 1103.9453125 l 1,21,-1
 515.1328125 1091.76464844 l 2,22,23
 939 801 939 801 927.778320312 334.51171875 c 0,24,25
 926 264 926 264 901.356445312 193.18359375 c 0,0,1
EndSplineSet
Substitution2: "'fina' Terminal Forms in Arabic lookup 9 subtable" uniFEAA
EndChar

StartChar: uni0631
Encoding: 1585 1585 22
Width: 945
VWidth: 3094
GlyphClass: 2
Flags: W
AnchorPoint: "Anchor-7" 374.078 -931.031 basechar 0
AnchorPoint: "Anchor-10" 478.717 1052.54 basechar 0
LayerCount: 2
Fore
SplineSet
469.493164062 449.092773438 m 5,0,1
 662.015625 684.288085938 l 1,2,-1
 675.522460938 664.095703125 l 2,3,4
 844 412 844 412 844.196289062 146.859375 c 0,5,6
 844 23 844 23 804.331054688 -95.3603515625 c 0,7,8
 712 -366 712 -366 551.326171875 -498.196289062 c 0,9,10
 498 -542 498 -542 439.895507812 -541.646484375 c 0,11,12
 170 -539 170 -539 24.1533203125 -478.672851562 c 0,13,14
 8 -472 8 -472 9.4521484375 -460.373046875 c 0,15,16
 12 -444 12 -444 67.140625 -422.873046875 c 0,17,18
 660.649247914 -198.510621081 660.649247914 -198.510621081 694.951171875 105.06640625 c 0,19,20
 701 161 701 161 469.493164062 449.092773438 c 5,0,1
EndSplineSet
PairPos2: "'kern' Horizontal Kerning lookup 15-4" uni0621 dx=-184 dy=0 dh=-184 dv=0 dx=0 dy=0 dh=0 dv=0
PairPos2: "'kern' Horizontal Kerning lookup 15-3" uni0648 dx=-90 dy=0 dh=-90 dv=0 dx=0 dy=0 dh=0 dv=0
PairPos2: "'kern' Horizontal Kerning lookup 15-1" uni0632 dx=-86 dy=0 dh=-86 dv=0 dx=0 dy=0 dh=0 dv=0
PairPos2: "'kern' Horizontal Kerning lookup 15-1" uni0631 dx=-86 dy=0 dh=-86 dv=0 dx=0 dy=0 dh=0 dv=0
PairPos2: "'kern' Horizontal Kerning lookup 15-1" uni06CC dx=-108 dy=0 dh=-108 dv=0 dx=0 dy=0 dh=0 dv=0
PairPos2: "'kern' Horizontal Kerning lookup 15-1" uniFEEB dx=-184 dy=0 dh=-184 dv=0 dx=0 dy=0 dh=0 dv=0
PairPos2: "'kern' Horizontal Kerning lookup 15-1" uniFB7C dx=-108 dy=0 dh=-108 dv=0 dx=0 dy=0 dh=0 dv=0
PairPos2: "'kern' Horizontal Kerning lookup 15-1" uniFEDF dx=-184 dy=0 dh=-184 dv=0 dx=0 dy=0 dh=0 dv=0
PairPos2: "'kern' Horizontal Kerning lookup 15-1" uniFB90 dx=-184 dy=0 dh=-184 dv=0 dx=0 dy=0 dh=0 dv=0
PairPos2: "'kern' Horizontal Kerning lookup 15-1" uni06A9 dx=-184 dy=0 dh=-184 dv=0 dx=0 dy=0 dh=0 dv=0
PairPos2: "'kern' Horizontal Kerning lookup 15-1" uni0649 dx=-108 dy=0 dh=-108 dv=0 dx=0 dy=0 dh=0 dv=0
PairPos2: "'kern' Horizontal Kerning lookup 15-1" uni0647 dx=-184 dy=0 dh=-184 dv=0 dx=0 dy=0 dh=0 dv=0
PairPos2: "'kern' Horizontal Kerning lookup 15-1" uniFEE7 dx=-184 dy=0 dh=-184 dv=0 dx=0 dy=0 dh=0 dv=0
PairPos2: "'kern' Horizontal Kerning lookup 15-1" uniFEE3 dx=-184 dy=0 dh=-184 dv=0 dx=0 dy=0 dh=0 dv=0
PairPos2: "'kern' Horizontal Kerning lookup 15-1" uni0645 dx=-184 dy=0 dh=-184 dv=0 dx=0 dy=0 dh=0 dv=0
PairPos2: "'kern' Horizontal Kerning lookup 15-1" uni0644 dx=-108 dy=0 dh=-108 dv=0 dx=0 dy=0 dh=0 dv=0
PairPos2: "'kern' Horizontal Kerning lookup 15-1" uniFEDB dx=-184 dy=0 dh=-184 dv=0 dx=0 dy=0 dh=0 dv=0
PairPos2: "'kern' Horizontal Kerning lookup 15-1" uniFED7 dx=-184 dy=0 dh=-184 dv=0 dx=0 dy=0 dh=0 dv=0
PairPos2: "'kern' Horizontal Kerning lookup 15-1" uni0642 dx=-108 dy=0 dh=-108 dv=0 dx=0 dy=0 dh=0 dv=0
PairPos2: "'kern' Horizontal Kerning lookup 15-1" uniFED3 dx=-184 dy=0 dh=-184 dv=0 dx=0 dy=0 dh=0 dv=0
PairPos2: "'kern' Horizontal Kerning lookup 15-1" uni0641 dx=-184 dy=0 dh=-184 dv=0 dx=0 dy=0 dh=0 dv=0
PairPos2: "'kern' Horizontal Kerning lookup 15-1" uniFECF dx=-184 dy=0 dh=-184 dv=0 dx=0 dy=0 dh=0 dv=0
PairPos2: "'kern' Horizontal Kerning lookup 15-1" uniFECB dx=-184 dy=0 dh=-184 dv=0 dx=0 dy=0 dh=0 dv=0
PairPos2: "'kern' Horizontal Kerning lookup 15-1" uniFEC7 dx=-184 dy=0 dh=-184 dv=0 dx=0 dy=0 dh=0 dv=0
PairPos2: "'kern' Horizontal Kerning lookup 15-1" uni0638 dx=-184 dy=0 dh=-184 dv=0 dx=0 dy=0 dh=0 dv=0
PairPos2: "'kern' Horizontal Kerning lookup 15-1" uniFEC3 dx=-184 dy=0 dh=-184 dv=0 dx=0 dy=0 dh=0 dv=0
PairPos2: "'kern' Horizontal Kerning lookup 15-1" uni0637 dx=-184 dy=0 dh=-184 dv=0 dx=0 dy=0 dh=0 dv=0
PairPos2: "'kern' Horizontal Kerning lookup 15-1" uniFEBF dx=-184 dy=0 dh=-184 dv=0 dx=0 dy=0 dh=0 dv=0
PairPos2: "'kern' Horizontal Kerning lookup 15-1" uni0636 dx=-184 dy=0 dh=-184 dv=0 dx=0 dy=0 dh=0 dv=0
PairPos2: "'kern' Horizontal Kerning lookup 15-1" uniFEBB dx=-184 dy=0 dh=-184 dv=0 dx=0 dy=0 dh=0 dv=0
PairPos2: "'kern' Horizontal Kerning lookup 15-1" uni0635 dx=-184 dy=0 dh=-184 dv=0 dx=0 dy=0 dh=0 dv=0
PairPos2: "'kern' Horizontal Kerning lookup 15-1" uniFEB7 dx=-184 dy=0 dh=-184 dv=0 dx=0 dy=0 dh=0 dv=0
PairPos2: "'kern' Horizontal Kerning lookup 15-1" uni0634 dx=-184 dy=0 dh=-184 dv=0 dx=0 dy=0 dh=0 dv=0
PairPos2: "'kern' Horizontal Kerning lookup 15-1" uniFEB3 dx=-184 dy=0 dh=-184 dv=0 dx=0 dy=0 dh=0 dv=0
PairPos2: "'kern' Horizontal Kerning lookup 15-1" uni0633 dx=-184 dy=0 dh=-184 dv=0 dx=0 dy=0 dh=0 dv=0
PairPos2: "'kern' Horizontal Kerning lookup 15-1" uni0630 dx=-184 dy=0 dh=-184 dv=0 dx=0 dy=0 dh=0 dv=0
PairPos2: "'kern' Horizontal Kerning lookup 15-1" uni062F dx=-184 dy=0 dh=-184 dv=0 dx=0 dy=0 dh=0 dv=0
PairPos2: "'kern' Horizontal Kerning lookup 15-1" uniFEA7 dx=-184 dy=0 dh=-184 dv=0 dx=0 dy=0 dh=0 dv=0
PairPos2: "'kern' Horizontal Kerning lookup 15-1" uniFEA3 dx=-184 dy=0 dh=-184 dv=0 dx=0 dy=0 dh=0 dv=0
PairPos2: "'kern' Horizontal Kerning lookup 15-1" uniFE9F dx=-184 dy=0 dh=-184 dv=0 dx=0 dy=0 dh=0 dv=0
PairPos2: "'kern' Horizontal Kerning lookup 15-1" uniFE9B dx=-184 dy=0 dh=-184 dv=0 dx=0 dy=0 dh=0 dv=0
PairPos2: "'kern' Horizontal Kerning lookup 15-1" uni062B dx=-184 dy=0 dh=-184 dv=0 dx=0 dy=0 dh=0 dv=0
PairPos2: "'kern' Horizontal Kerning lookup 15-1" uniFE97 dx=-184 dy=0 dh=-184 dv=0 dx=0 dy=0 dh=0 dv=0
PairPos2: "'kern' Horizontal Kerning lookup 15-1" uni062A dx=-184 dy=0 dh=-184 dv=0 dx=0 dy=0 dh=0 dv=0
PairPos2: "'kern' Horizontal Kerning lookup 15-1" uni0629 dx=-184 dy=0 dh=-184 dv=0 dx=0 dy=0 dh=0 dv=0
PairPos2: "'kern' Horizontal Kerning lookup 15-1" uniFE91 dx=-112 dy=0 dh=-112 dv=0 dx=0 dy=0 dh=0 dv=0
PairPos2: "'kern' Horizontal Kerning lookup 15-1" uni0628 dx=-184 dy=0 dh=-184 dv=0 dx=0 dy=0 dh=0 dv=0
PairPos2: "'kern' Horizontal Kerning lookup 15-1" uni0627 dx=-205 dy=0 dh=-205 dv=0 dx=0 dy=0 dh=0 dv=0
PairPos2: "'kern' Horizontal Kerning lookup 15-1" uni0622 dx=-205 dy=0 dh=-205 dv=0 dx=0 dy=0 dh=0 dv=0
PairPos2: "'kern' Horizontal Kerning lookup 15-1" uniFB94 dx=-184 dy=0 dh=-184 dv=0 dx=0 dy=0 dh=0 dv=0
PairPos2: "'kern' Horizontal Kerning lookup 15-1" afii57509 dx=-184 dy=0 dh=-184 dv=0 dx=0 dy=0 dh=0 dv=0
PairPos2: "'kern' Horizontal Kerning lookup 15-1" uniFB56 dx=-184 dy=0 dh=-184 dv=0 dx=0 dy=0 dh=0 dv=0
PairPos2: "'kern' Horizontal Kerning lookup 15-1" afii57506 dx=-184 dy=0 dh=-184 dv=0 dx=0 dy=0 dh=0 dv=0
Substitution2: "'fina' Terminal Forms in Arabic lookup 9 subtable" uniFEAE
EndChar

StartChar: uni0633
Encoding: 1587 1587 24
Width: 2485
VWidth: 3095
GlyphClass: 2
Flags: W
AnchorPoint: "Anchor-7" 331.185 -881.806 basechar 0
AnchorPoint: "Anchor-10" 605.131 1085.41 basechar 0
LayerCount: 2
Fore
SplineSet
1225.65917969 -67.4482421875 m 1,0,1
 1222 4 1222 4 1090.67578125 346.467773438 c 5,2,-1
 1268.32128906 523.805664062 l 1,3,-1
 1276.71484375 497.935546875 l 2,4,5
 1343 295 1343 295 1551.96679688 295.024414062 c 0,6,7
 1714.53976827 295.000068919 1714.53976827 295.000068919 1729.96777344 442.650390625 c 2,8,-1
 1734.82421875 489.127929688 l 2,9,10
 1743 571 1743 571 1794.58789062 571.26171875 c 0,11,12
 1859.34009243 572.003898085 1859.34009243 572.003898085 1863.05566406 496.040039062 c 2,13,-1
 1864.57519531 464.973632812 l 2,14,15
 1873 302 1873 302 2054.38867188 301.958984375 c 0,16,17
 2163 302 2163 302 2199.08691406 366.102539062 c 0,18,19
 2222 407 2222 407 2188.95800781 468.908203125 c 0,20,21
 2135 573 2135 573 2076.52148438 639.807617188 c 1,22,-1
 2249.36425781 874.307617188 l 1,23,-1
 2262.38476562 854.528320312 l 2,24,25
 2373 686 2373 686 2384.51269531 500.392578125 c 0,26,27
 2400 250 2400 250 2313.17089844 119.4453125 c 0,28,29
 2230 -5 2230 -5 2062.40234375 -5.2001953125 c 0,30,31
 1868 -5 1868 -5 1791.95410156 180.573242188 c 1,32,33
 1712 -4 1712 -4 1547.640625 -3.080078125 c 0,34,35
 1428 -2 1428 -2 1376.89648438 46.9375 c 1,36,37
 1379 17 1379 17 1377.45117188 -1.5634765625 c 0,38,39
 1348 -596 1348 -596 642.71875 -596.022460938 c 0,40,41
 352 -596 352 -596 208.36328125 -447.064453125 c 0,42,43
 66 -299 66 -299 100.76171875 -48.0380859375 c 0,44,45
 117 69 117 69 190.821289062 193.194335938 c 0,46,47
 242 280 242 280 280.666015625 266.997070312 c 0,48,49
 300 261 300 261 305.393554688 243.762695312 c 0,50,51
 311 227 311 227 302.15234375 209.471679688 c 1,52,53
 215 -7 215 -7 264.125 -107.609375 c 0,54,55
 357 -300 357 -300 666.176757812 -291.158203125 c 0,56,57
 1140 -278 1140 -278 1225.65917969 -67.4482421875 c 1,0,1
EndSplineSet
Substitution2: "'fina' Terminal Forms in Arabic lookup 9 subtable" uniFEB2
Substitution2: "'medi' Medial Forms in Arabic lookup 11 subtable" uniFEB4
Substitution2: "'init' Initial Forms in Arabic lookup 13 subtable" uniFEB3
EndChar

StartChar: uni0635
Encoding: 1589 1589 26
Width: 2726
VWidth: 3095
GlyphClass: 2
Flags: W
AnchorPoint: "Anchor-10" 625.046 1083.62 basechar 0
AnchorPoint: "Anchor-7" 338.278 -866.709 basechar 0
LayerCount: 2
Fore
SplineSet
1225.14453125 -67.447265625 m 1,0,1
 1221 5 1221 5 1090.15234375 346.462890625 c 5,2,-1
 1267.79492188 523.797851562 l 1,3,-1
 1276.19335938 497.940429688 l 2,4,5
 1303 415 1303 415 1345.30273438 368.4921875 c 0,6,7
 1395 314 1395 314 1547.02441406 316.383789062 c 1,8,9
 1940 813 1940 813 2228 852 c 0,10,11
 2493.36835645 887.181410893 2493.36835645 887.181410893 2585.73144531 699.541992188 c 0,12,13
 2681 506 2681 506 2540.48632812 275.147460938 c 0,14,15
 2372.74336372 1.58146107157 2372.74336372 1.58146107157 1862.91601562 0.0107421875 c 2,16,-1
 1635.328125 -0.6904296875 l 2,17,18
 1474 -1 1474 -1 1374.57617188 67.0126953125 c 1,19,20
 1379 22 1379 22 1376.92675781 -1.591796875 c 0,21,22
 1338 -596 1338 -596 642.194335938 -596.022460938 c 0,23,24
 351 -596 351 -596 207.864257812 -446.940429688 c 0,25,26
 65 -298 65 -298 100.241210938 -48.0478515625 c 0,27,28
 116 66 116 66 190.254882812 193.115234375 c 0,29,30
 241 281 241 281 279.994140625 267.05078125 c 0,31,32
 299 260 299 260 304.799804688 243.647460938 c 0,33,34
 310 227 310 227 301.63671875 209.484375 c 1,35,36
 215 -7 215 -7 263.591796875 -107.58203125 c 0,37,38
 357 -300 357 -300 665.641601562 -291.158203125 c 0,39,40
 1140 -278 1140 -278 1225.14453125 -67.447265625 c 1,0,1
1654.51269531 304.96484375 m 1,41,-1
 1899.01074219 304.96484375 l 2,42,43
 2223 305 2223 305 2313.55859375 329.36328125 c 0,44,45
 2407.43945312 355.22265625 2407.43945312 355.22265625 2436.6171875 400.749023438 c 0,46,47
 2481 473 2481 473 2434.95996094 538.805664062 c 0,48,49
 2399.84765625 592.249023438 2399.84765625 592.249023438 2298.07617188 600.27734375 c 0,50,51
 2048 619 2048 619 1780 408 c 0,52,53
 1674 324 1674 324 1654.51269531 304.96484375 c 1,41,-1
EndSplineSet
Substitution2: "'fina' Terminal Forms in Arabic lookup 9 subtable" uniFEBA
Substitution2: "'medi' Medial Forms in Arabic lookup 11 subtable" uniFEBC
Substitution2: "'init' Initial Forms in Arabic lookup 13 subtable" uniFEBB
EndChar

StartChar: uni0637
Encoding: 1591 1591 28
Width: 1602
VWidth: 3095
GlyphClass: 2
Flags: W
AnchorPoint: "Anchor-10" 528.167 1707.11 basechar 0
AnchorPoint: "Anchor-7" 628.365 -308.437 basechar 0
LayerCount: 2
Fore
SplineSet
525.833984375 300.805664062 m 1,0,-1
 770.33203125 300.805664062 l 2,1,2
 1094.32128906 300.840820312 1094.32128906 300.840820312 1184.87988281 325.204101562 c 0,3,4
 1278.76074219 351.063476562 1278.76074219 351.063476562 1307.93847656 396.58984375 c 0,5,6
 1352.32128906 468.840820312 1352.32128906 468.840820312 1306.28125 534.646484375 c 0,7,8
 1271.16894531 588.08984375 1271.16894531 588.08984375 1169.39746094 596.118164062 c 0,9,10
 919.321289062 614.840820312 919.321289062 614.840820312 651.321289062 403.840820312 c 0,11,12
 545.321289062 319.840820312 545.321289062 319.840820312 525.833984375 300.805664062 c 1,0,-1
409.78515625 302.276367188 m 1,13,14
 425 329 425 329 441.133789062 356.080078125 c 1,15,16
 440.979492188 512.655273438 440.979492188 512.655273438 417.856445312 909.189453125 c 0,17,18
 396 1284 396 1284 359.372070312 1460.13671875 c 1,19,-1
 597.65625 1573.27832031 l 1,20,-1
 675.352539062 1323.45410156 l 2,21,22
 697.947265625 1252.16699219 697.947265625 1252.16699219 646.525390625 1216.64648438 c 2,23,-1
 603.788085938 1187.125 l 1,24,-1
 603.061523438 517.859375 l 1,25,26
 883 850 883 850 1154.42480469 853.169921875 c 0,27,28
 1380 856 1380 856 1461.63085938 689.7578125 c 0,29,30
 1553 502 1553 502 1411.80273438 270.982421875 c 0,31,32
 1246.0234375 0.0390625 1246.0234375 0.0390625 734.19140625 0.0107421875 c 2,33,-1
 540.098632812 0 l 1,34,-1
 280.956054688 -0.6259765625 l 1,35,36
 203.397460938 58.6962890625 203.397460938 58.6962890625 109.666015625 281.45703125 c 2,37,-1
 100.90625 302.275390625 l 1,38,-1
 409.78515625 302.276367188 l 1,13,14
EndSplineSet
Substitution2: "'fina' Terminal Forms in Arabic lookup 9 subtable" uniFEC2
Substitution2: "'medi' Medial Forms in Arabic lookup 11 subtable" uniFEC4
Substitution2: "'init' Initial Forms in Arabic lookup 13 subtable" uniFEC3
EndChar

StartChar: uni0639
Encoding: 1593 1593 30
Width: 1342
VWidth: 3090
GlyphClass: 2
Flags: W
AnchorPoint: "Anchor-10" 788.897 1666.49 basechar 0
AnchorPoint: "Anchor-7" 337.333 -983.156 basechar 0
LayerCount: 2
Fore
SplineSet
222.51953125 -140.48046875 m 4,0,1
 223 -477 223 -477 913.451171875 -432.790039062 c 4,2,3
 1159 -417 1159 -417 1182.70605469 -413.01953125 c 4,4,5
 1279 -395 1279 -395 1244.61914062 -442.177734375 c 4,6,7
 1123 -613 1123 -613 938.3046875 -720.953125 c 4,8,9
 912 -736 912 -736 778.48046875 -736 c 4,10,11
 418 -736 418 -736 254.756835938 -581.771484375 c 4,12,13
 100 -436 100 -436 100.234375 -208.415039062 c 4,14,15
 101 27 101 27 206.764648438 181.892578125 c 4,16,17
 317 343 317 343 499.069335938 444.115234375 c 5,18,19
 307 518 307 518 302.236328125 659.208984375 c 4,20,21
 297 831 297 831 434.619140625 979.209960938 c 4,22,23
 594 1153 594 1153 801.32421875 1111.98242188 c 4,24,25
 998.528320312 1073.09277344 998.528320312 1073.09277344 1050.015625 834.091796875 c 6,26,-1
 1055.72167969 807.604492188 l 5,27,-1
 1030.24511719 816.828125 l 6,28,29
 927 854 927 854 805.7578125 872.630859375 c 4,30,31
 685 891 685 891 571.149414062 840.057617188 c 4,32,33
 419 772 419 772 424.827148438 697.475585938 c 4,34,35
 428 659 428 659 549.337890625 573.947265625 c 4,36,37
 628 519 628 519 677.715820312 525.791015625 c 4,38,39
 907.771484375 556.306640625 907.771484375 556.306640625 1150.12207031 570.8828125 c 6,40,-1
 1170.88867188 572.131835938 l 5,41,-1
 1112.41015625 305.498046875 l 5,42,43
 693 303 693 303 498.78125 209.696289062 c 4,44,45
 223 76 223 76 222.51953125 -140.48046875 c 4,0,1
EndSplineSet
Substitution2: "'fina' Terminal Forms in Arabic lookup 9 subtable" uniFECA
Substitution2: "'medi' Medial Forms in Arabic lookup 11 subtable" uniFECC
Substitution2: "'init' Initial Forms in Arabic lookup 13 subtable" uniFECB
EndChar

StartChar: afii57440
Encoding: 1600 1600 32
Width: 899
VWidth: 3117
GlyphClass: 2
Flags: W
AnchorPoint: "Anchor-10" 437.971 1836.89 basechar 0
AnchorPoint: "Anchor-7" 437.971 -174.874 basechar 0
LayerCount: 2
Fore
SplineSet
-10.322265625 -0.61328125 m 5,0,-1
 -10.322265625 301.6015625 l 5,1,-1
 909.875976562 301.6015625 l 1,2,-1
 909.875976562 -0.61328125 l 1,3,-1
 -10.322265625 -0.61328125 l 5,0,-1
EndSplineSet
EndChar

StartChar: uni0643
Encoding: 1603 1603 35
Width: 1967
VWidth: 3062
GlyphClass: 2
Flags: W
AnchorPoint: "Anchor-10" 576.167 1615.81 basechar 0
AnchorPoint: "Anchor-7" 669.557 -296.105 basechar 0
LayerCount: 2
Fore
SplineSet
1131.22265625 756.998046875 m 4,0,1
 996.299804688 584.919921875 996.299804688 584.919921875 637.798828125 641.490234375 c 5,2,-1
 637.798828125 739.65234375 l 5,3,4
 806.771484375 717.90625 806.771484375 717.90625 868.703125 728.953125 c 4,5,6
 1086.61816406 767.81640625 1086.61816406 767.81640625 1086.58007812 873.266601562 c 4,7,8
 1086.60839844 955.421875 1086.60839844 955.421875 950.6875 977.141601562 c 4,9,10
 771.845703125 1003.99023438 771.845703125 1003.99023438 775.517578125 1169.91503906 c 4,11,12
 777.771484375 1283.59179688 777.771484375 1283.59179688 890.182617188 1340.42773438 c 4,13,14
 1025.96582031 1409.38085938 1025.96582031 1409.38085938 1186.74511719 1423.50390625 c 6,15,-1
 1212.11621094 1425.73242188 l 5,16,-1
 1164.37109375 1318.43457031 l 5,17,18
 869.419921875 1293.31445312 869.419921875 1293.31445312 868.684570312 1165.83886719 c 4,19,20
 867.62890625 1068.33300781 867.62890625 1068.33300781 983.797851562 1051.5 c 4,21,22
 1178.21582031 1023.31738281 1178.21582031 1023.31738281 1179.21875 919.717773438 c 4,23,24
 1178.7890625 817.6953125 1178.7890625 817.6953125 1131.22265625 756.998046875 c 4,0,1
982.002929688 4.060546875 m 4,25,26
 438 -22 438 -22 257.495117188 78.1513671875 c 4,27,28
 21 209 21 209 105.038085938 556.702148438 c 4,29,30
 128 651 128 651 164.938476562 711.0625 c 132,-1,31
 202 771 202 771 230.982421875 764.521484375 c 132,-1,32
 260 758 260 758 258.602539062 733.404296875 c 4,33,34
 257 709 257 709 239.8984375 664.77734375 c 4,35,36
 223 621 223 621 212.098632812 537.584960938 c 4,37,38
 186 330 186 330 650.639648438 307.231445312 c 4,39,40
 758 302 758 302 918.845703125 302 c 4,41,42
 1089 302 1089 302 1196.95117188 312.640625 c 4,43,44
 1640 358 1640 358 1652 425 c 4,45,46
 1665 499 1665 499 1659.58496094 618.221679688 c 4,47,48
 1645 940 1645 940 1635 1051 c 4,49,50
 1619 1235 1619 1235 1586.89941406 1448.1015625 c 5,51,-1
 1836.38769531 1573.34863281 l 5,52,-1
 1836.38769531 605.263671875 l 5,53,54
 1821 301 1821 301 1645.19921875 179.814453125 c 4,55,56
 1456 50 1456 50 1281.57421875 28.658203125 c 4,57,58
 1139 12 1139 12 982.002929688 4.060546875 c 4,25,26
EndSplineSet
Substitution2: "'fina' Terminal Forms in Arabic lookup 9 subtable" uniFEDA
Substitution2: "'medi' Medial Forms in Arabic lookup 11 subtable" uniFEDC
Substitution2: "'init' Initial Forms in Arabic lookup 13 subtable" uniFEDB
EndChar

StartChar: uni0644
Encoding: 1604 1604 36
Width: 1450
VWidth: 3095
GlyphClass: 2
Flags: W
AnchorPoint: "Anchor-10" 562.186 1288.49 basechar 0
AnchorPoint: "Anchor-7" 429.252 -737.594 basechar 0
LayerCount: 2
Fore
SplineSet
1314.5390625 376.163085938 m 2,0,1
 1314.5390625 107.307826907 1314.5390625 107.307826907 1308.22460938 -11.767578125 c 0,2,3
 1281 -561 1281 -561 647.559570312 -560.041015625 c 0,4,5
 356 -560 356 -560 213.889648438 -412.0859375 c 0,6,7
 71 -263 71 -263 105.590820312 -12.1494140625 c 0,8,9
 121 98 121 98 195.5625 229.001953125 c 0,10,11
 246 318 246 318 285.4375 303.00390625 c 0,12,13
 304 296 304 296 309.947265625 279.767578125 c 0,14,15
 316 263 316 263 307.087890625 245.685546875 c 1,16,17
 220 30 220 30 268.958984375 -71.6123046875 c 0,18,19
 362 -265 362 -265 670.94140625 -255.178710938 c 0,20,21
 1084 -241 1084 -241 1168.28808594 -31.0146484375 c 1,22,23
 1147 421 1147 421 1144.73535156 455.130859375 c 0,24,25
 1127 759 1127 759 1100.12792969 1138.83691406 c 4,26,27
 1088 1316 1088 1316 1068.50292969 1462.69921875 c 5,28,-1
 1308.04980469 1573.7421875 l 5,29,-1
 1387.21582031 1322.53222656 l 6,30,31
 1410.9886741 1248.03549185 1410.9886741 1248.03549185 1366.8671875 1220.85644531 c 6,32,-1
 1314.5390625 1188.62207031 l 5,33,-1
 1314.5390625 376.163085938 l 2,0,1
EndSplineSet
Substitution2: "'fina' Terminal Forms in Arabic lookup 9 subtable" uniFEDE
Substitution2: "'medi' Medial Forms in Arabic lookup 11 subtable" uniFEE0
Substitution2: "'init' Initial Forms in Arabic lookup 13 subtable" uniFEDF
EndChar

StartChar: uni0645
Encoding: 1605 1605 37
Width: 1215
VWidth: 3120
GlyphClass: 2
Flags: W
AnchorPoint: "Anchor-10" 622.862 1281.11 basechar 0
AnchorPoint: "Anchor-7" 220.637 -813.113 basechar 0
LayerCount: 2
Fore
SplineSet
474.750976562 393.526367188 m 5,0,1
 670 381 670 381 796.133789062 380.799804688 c 4,2,3
 923 381 923 381 941.234375 383.59375 c 4,4,5
 972 388 972 388 979.223632812 399.33984375 c 4,6,7
 994 422 994 422 971.608398438 448.15234375 c 4,8,9
 922.290039062 504.970703125 922.290039062 504.970703125 748.622070312 577.243164062 c 4,10,11
 580 647 580 647 519.447265625 554.754882812 c 4,12,13
 484 500 484 500 474.750976562 393.526367188 c 5,0,1
1114.97558594 420.98828125 m 4,14,15
 1048 212 1048 212 967.703125 137.71484375 c 4,16,17
 939.221679688 111.206054688 939.221679688 111.206054688 816.5 115.572265625 c 6,18,-1
 402.534179688 130.299804688 l 5,19,20
 305 129 305 129 241 93 c 5,21,22
 266 -424 l 6,23,24
 271 -528 271 -528 137 -706 c 4,25,26
 128 -718 128 -718 122 -716 c 4,27,28
 110.99609375 -711.998046875 110.99609375 -711.998046875 110.0078125 -664.056640625 c 6,29,-1
 100.51953125 -203.671875 l 6,30,31
 96 10 96 10 120.689453125 97.28125 c 4,32,33
 187 340 187 340 326.482421875 392.051757812 c 5,34,35
 354 693 354 693 459 779 c 4,36,37
 607 901 607 901 785 794 c 4,38,39
 1016 654 1016 654 1107.97265625 480.517578125 c 4,40,41
 1124 450 1124 450 1114.97558594 420.98828125 c 4,14,15
EndSplineSet
Substitution2: "'init' Initial Forms in Arabic lookup 13 subtable" uniFEE3
Substitution2: "'medi' Medial Forms in Arabic lookup 11 subtable" uniFEE4
Substitution2: "'fina' Terminal Forms in Arabic lookup 9 subtable" uniFEE2
EndChar

StartChar: uni0647
Encoding: 1607 1607 39
Width: 880
VWidth: 3089
GlyphClass: 2
Flags: W
AnchorPoint: "Anchor-10" 397.256 1236.98 basechar 0
AnchorPoint: "Anchor-7" 403.26 -276.428 basechar 0
LayerCount: 2
Fore
SplineSet
427 643 m 5,0,1
 243 495 243 495 231 401 c 4,2,3
 215 281 215 281 448.104492188 282.82421875 c 4,4,5
 621 284 621 284 680.341796875 390.53125 c 5,6,7
 609 523 609 523 427 643 c 5,0,1
141.09375 141.87890625 m 4,8,9
 101 210 101 210 100.124023438 311.438476562 c 4,10,11
 98 481 98 481 317 741 c 5,12,-1
 272.662109375 774.251953125 l 5,13,-1
 401.865234375 992.547851562 l 5,14,15
 688 738 688 738 769.927734375 454.384765625 c 4,16,17
 843 200 843 200 673.635742188 65.3037109375 c 4,18,19
 593 1 593 1 443.897460938 1.197265625 c 4,20,21
 224 1 224 1 141.09375 141.87890625 c 4,8,9
EndSplineSet
Substitution2: "'fina' Terminal Forms in Arabic lookup 9 subtable" uniFEEA
Substitution2: "'medi' Medial Forms in Arabic lookup 11 subtable" uniFEEC
Substitution2: "'init' Initial Forms in Arabic lookup 13 subtable" uniFEEB
EndChar

StartChar: uni0648
Encoding: 1608 1608 40
Width: 921
VWidth: 3118
GlyphClass: 2
Flags: W
AnchorPoint: "Anchor-10" 463.744 1113.13 basechar 0
AnchorPoint: "Anchor-7" 405.762 -719.729 basechar 0
LayerCount: 2
Fore
SplineSet
683.1171875 271.1796875 m 1,0,1
 682 303 682 303 665.87109375 352.629882812 c 0,2,3
 649 402 649 402 602.578125 435.290039062 c 0,4,5
 556 469 556 469 485.969726562 468.590820312 c 0,6,7
 361 469 361 469 313.705078125 380.853515625 c 0,8,9
 297 349 297 349 297.2265625 301.584960938 c 1,10,11
 315 286 315 286 414.38671875 277.249023438 c 0,12,13
 514 268 514 268 683.1171875 271.1796875 c 1,0,1
517.465820312 739.717773438 m 0,14,15
 554 740 554 740 591.7734375 723.576171875 c 0,16,17
 714 670 714 670 782.587890625 451.012695312 c 0,18,19
 807 374 807 374 820.067382812 248.23046875 c 0,20,21
 833 122 833 122 810.68359375 11.3994140625 c 0,22,23
 739 -347 739 -347 559.916015625 -499.853515625 c 0,24,25
 508 -544 508 -544 436.763671875 -544.975585938 c 0,26,27
 167.435894943 -548.029070358 167.435894943 -548.029070358 33.576171875 -481.700195312 c 0,28,29
 14 -472 14 -472 15.0859375 -463.80859375 c 24,30,31
 17 -448 17 -448 51.4150390625 -434.833007812 c 0,32,33
 572 -230 572 -230 672.759765625 -0.955078125 c 1,34,-1
 537.067382812 0.83984375 l 1,35,36
 280 10 280 10 216.030273438 141.81640625 c 0,37,38
 165 247 165 247 185.651367188 368.169921875 c 0,39,40
 217 551 217 551 338.120117188 664.702148438 c 0,41,42
 417 739 417 739 517.465820312 739.717773438 c 0,14,15
EndSplineSet
Substitution2: "'fina' Terminal Forms in Arabic lookup 9 subtable" uniFEEE
EndChar

StartChar: uni0649
Encoding: 1609 1609 41
Width: 1490
VWidth: 3112
GlyphClass: 2
Flags: W
AnchorPoint: "Anchor-10" 445.326 1222 basechar 0
AnchorPoint: "Anchor-7" 189.647 -704.157 basechar 0
LayerCount: 2
Fore
SplineSet
1262 8 m 4,0,1
 1244 16 1244 16 1115.640625 16.240234375 c 4,2,3
 982 16 982 16 926.311523438 28.42578125 c 4,4,5
 870 41 870 41 838.83984375 66.7470703125 c 4,6,7
 712 170 712 170 806 488 c 4,8,9
 908 837 908 837 1146.94824219 845.771484375 c 4,10,11
 1321 852 1321 852 1389.99121094 608.90625 c 4,12,13
 1406 552 1406 552 1375.69140625 543.140625 c 4,14,15
 1369.359375 541.115234375 1369.359375 541.115234375 1358.82617188 544.48828125 c 6,16,-1
 1310.44140625 559.984375 l 6,17,18
 1099 628 1099 628 975.096679688 473.5078125 c 4,19,20
 900 381 900 381 895.405273438 317.822265625 c 4,21,22
 890.029296875 231.477539062 890.029296875 231.477539062 1114.87988281 233.008789062 c 6,23,-1
 1142.98925781 233.200195312 l 6,24,25
 1298 234 1298 234 1337.64355469 207.689453125 c 4,26,27
 1452 132 1452 132 1373.94628906 -96.560546875 c 4,28,29
 1239 -489 1239 -489 647.836914062 -487.432617188 c 4,30,31
 355 -487 355 -487 213.477539062 -339.314453125 c 4,32,33
 72 -192 72 -192 105.895507812 60.501953125 c 4,34,35
 121 170 121 170 195.926757812 301.723632812 c 4,36,37
 247 390 247 390 285.985351562 375.52734375 c 4,38,39
 324.616210938 361.142578125 324.616210938 361.142578125 307.293945312 318.06640625 c 6,40,-1
 283.3046875 258.412109375 l 6,41,42
 220 101 220 101 269.239257812 1.0302734375 c 4,43,44
 358 -182 358 -182 671.729492188 -182.563476562 c 4,45,46
 1194.11328125 -182.965820312 1194.11328125 -182.965820312 1278 -40.0283203125 c 4,47,48
 1296.16210938 -9.0810546875 1296.16210938 -9.0810546875 1262 8 c 4,0,1
EndSplineSet
Substitution2: "'fina' Terminal Forms in Arabic lookup 9 subtable" uniFEF0
Substitution2: "'medi' Medial Forms in Arabic lookup 11 subtable" uniFBE9
Substitution2: "'init' Initial Forms in Arabic lookup 13 subtable" uniFBE8
EndChar

StartChar: uni064B
Encoding: 1611 1611 43
Width: -22
VWidth: 1985
GlyphClass: 4
Flags: W
AnchorPoint: "Anchor-10" 526.624 955.612 mark 0
AnchorPoint: "Anchor-9" 526.624 955.612 mark 0
AnchorPoint: "Anchor-1" 492.064 1429.91 basemark 0
AnchorPoint: "Anchor-1" 526.624 955.612 mark 0
LayerCount: 2
Fore
SplineSet
265.94140625 916.568359375 m 1,0,-1
 265.94140625 1004.89941406 l 1,1,-1
 691.107421875 1178.75390625 l 1,2,-1
 691.107421875 1090.42089844 l 1,3,-1
 265.94140625 916.568359375 l 1,0,-1
265.94140625 1152.87597656 m 1,4,-1
 265.94140625 1241.20703125 l 1,5,-1
 691.107421875 1415.06054688 l 1,6,-1
 691.107421875 1326.72851562 l 1,7,-1
 265.94140625 1152.87597656 l 1,4,-1
EndSplineSet
EndChar

StartChar: uni064C
Encoding: 1612 1612 44
Width: -22
VWidth: 1985
GlyphClass: 4
Flags: W
AnchorPoint: "Anchor-10" 584.438 1045.75 mark 0
AnchorPoint: "Anchor-9" 584.438 1045.75 mark 0
AnchorPoint: "Anchor-1" 490.738 1643.81 basemark 0
AnchorPoint: "Anchor-1" 584.438 1045.75 mark 0
LayerCount: 2
Fore
SplineSet
563.893554688 1497.19433594 m 0,0,1
 487.016601562 1497.19433594 487.016601562 1497.19433594 487.016601562 1428.06542969 c 0,2,3
 487.016601562 1378.18945312 487.016601562 1378.18945312 543.720703125 1355.5078125 c 0,4,5
 553.866210938 1351.45019531 553.866210938 1351.45019531 568.744140625 1346.40625 c 128,-1,6
 583.623046875 1341.36230469 583.623046875 1341.36230469 603.35546875 1335.28515625 c 2,7,-1
 607.651367188 1333.96191406 l 1,8,-1
 620.706054688 1364.41699219 l 2,9,10
 625.94921875 1376.65234375 625.94921875 1376.65234375 628.541015625 1391.36425781 c 128,-1,11
 631.1328125 1406.07617188 631.1328125 1406.07617188 631.1328125 1423.27539062 c 0,12,13
 631.1328125 1440.9609375 631.1328125 1440.9609375 625.298828125 1454.85253906 c 128,-1,14
 619.465820312 1468.74414062 619.465820312 1468.74414062 607.8046875 1478.34667969 c 0,15,16
 600.303710938 1484.52246094 600.303710938 1484.52246094 593.014648438 1488.68066406 c 128,-1,17
 585.725585938 1492.83886719 585.725585938 1492.83886719 578.379882812 1495.01660156 c 128,-1,18
 571.034179688 1497.19433594 571.034179688 1497.19433594 563.893554688 1497.19433594 c 0,0,1
286.8359375 1191.03808594 m 0,19,20
 326.482421875 1106.0859375 326.482421875 1106.0859375 388.407226562 1106.0859375 c 0,21,22
 449.170898438 1106.0859375 449.170898438 1106.0859375 515.639648438 1170.41113281 c 0,23,24
 554.233398438 1207.96386719 554.233398438 1207.96386719 576.2734375 1252.04492188 c 2,25,-1
 588.0234375 1275.54980469 l 1,26,-1
 562.313476562 1281.00488281 l 2,27,28
 484.142578125 1297.57421875 484.142578125 1297.57421875 441.572265625 1356.32714844 c 0,29,30
 433.731445312 1367.1484375 433.731445312 1367.1484375 428.525390625 1377.17675781 c 128,-1,31
 423.319335938 1387.20410156 423.319335938 1387.20410156 420.814453125 1396.08789062 c 128,-1,32
 418.310546875 1404.97167969 418.310546875 1404.97167969 418.310546875 1412.97753906 c 0,33,34
 418.310546875 1438.84667969 418.310546875 1438.84667969 419.520507812 1448.96777344 c 0,35,36
 424.327148438 1489.21191406 424.327148438 1489.21191406 454.379882812 1526.96777344 c 0,37,38
 469.02734375 1545.37109375 469.02734375 1545.37109375 492.889648438 1554.65917969 c 128,-1,39
 516.750976562 1563.94824219 516.750976562 1563.94824219 550.317382812 1563.94824219 c 0,40,41
 567.154296875 1563.94824219 567.154296875 1563.94824219 582.25390625 1561.47070312 c 128,-1,42
 597.354492188 1558.99414062 597.354492188 1558.99414062 610.733398438 1554.03808594 c 128,-1,43
 624.112304688 1549.08300781 624.112304688 1549.08300781 635.795898438 1541.69042969 c 128,-1,44
 647.479492188 1534.29785156 647.479492188 1534.29785156 657.561523438 1524.42675781 c 0,45,46
 677.71484375 1504.69824219 677.71484375 1504.69824219 687.801757812 1477.77441406 c 128,-1,47
 697.887695312 1450.85058594 697.887695312 1450.85058594 697.887695312 1416.34960938 c 0,48,49
 697.887695312 1407.61230469 697.887695312 1407.61230469 697.215820312 1398.93261719 c 128,-1,50
 696.54296875 1390.25195312 696.54296875 1390.25195312 695.197265625 1381.62207031 c 128,-1,51
 693.8515625 1372.99121094 693.8515625 1372.99121094 691.831054688 1364.40917969 c 128,-1,52
 689.811523438 1355.828125 689.811523438 1355.828125 687.116210938 1347.29296875 c 2,53,-1
 679.2109375 1322.26757812 l 1,54,-1
 705.421875 1320.89160156 l 2,55,56
 724.1015625 1319.90527344 724.1015625 1319.90527344 755.486328125 1319.17773438 c 1,57,-1
 755.486328125 1252.26855469 l 1,58,59
 726.193359375 1252.625 726.193359375 1252.625 712.33984375 1254.015625 c 2,60,-1
 646.775390625 1260.31835938 l 1,61,-1
 645.33984375 1256.953125 l 2,62,63
 616.974609375 1190.47558594 616.974609375 1190.47558594 562.397460938 1134.265625 c 0,64,65
 544.161132812 1115.48339844 544.161132812 1115.48339844 527.448242188 1100.75195312 c 128,-1,66
 510.735351562 1086.01953125 510.735351562 1086.01953125 495.815429688 1075.52050781 c 128,-1,67
 480.896484375 1065.02148438 480.896484375 1065.02148438 467.655273438 1058.62109375 c 128,-1,68
 454.327148438 1052.17675781 454.327148438 1052.17675781 440.844726562 1047.88964844 c 128,-1,69
 427.362304688 1043.60253906 427.362304688 1043.60253906 413.734375 1041.46777344 c 128,-1,70
 400.106445312 1039.33300781 400.106445312 1039.33300781 386.279296875 1039.33300781 c 0,71,72
 289.21484375 1039.33300781 289.21484375 1039.33300781 239.397460938 1176.34375 c 0,73,74
 233.625 1192.11816406 233.625 1192.11816406 230.204101562 1223.62109375 c 128,-1,75
 226.783203125 1255.12304688 226.783203125 1255.12304688 226.127929688 1299.38378906 c 1,76,-1
 273.370117188 1299.38378906 l 1,77,78
 274.090820312 1256.859375 274.090820312 1256.859375 277.255859375 1230.89746094 c 128,-1,79
 280.421875 1204.93554688 280.421875 1204.93554688 286.8359375 1191.03808594 c 0,19,20
EndSplineSet
EndChar

StartChar: uni064D
Encoding: 1613 1613 45
Width: -21
VWidth: 1843
GlyphClass: 4
Flags: W
AnchorPoint: "Anchor-7" 442.099 60.582 mark 0
AnchorPoint: "Anchor-6" 442.099 60.582 mark 0
AnchorPoint: "Anchor-0" 508.415 -374.489 basemark 0
AnchorPoint: "Anchor-0" 442.099 60.582 mark 0
LayerCount: 2
Fore
SplineSet
245.836914062 -412.342773438 m 1,0,-1
 245.836914062 -320.55078125 l 1,1,-1
 648.767578125 -155.790039062 l 1,2,-1
 648.767578125 -247.581054688 l 1,3,-1
 245.836914062 -412.342773438 l 1,0,-1
245.836914062 -193.540039062 m 1,4,-1
 245.836914062 -101.748046875 l 1,5,-1
 648.767578125 63.013671875 l 1,6,-1
 648.767578125 -28.7783203125 l 1,7,-1
 245.836914062 -193.540039062 l 1,4,-1
EndSplineSet
EndChar

StartChar: uni064E
Encoding: 1614 1614 46
Width: -21
VWidth: 1843
GlyphClass: 4
Flags: W
AnchorPoint: "Anchor-10" 462.271 1088.92 mark 0
AnchorPoint: "Anchor-9" 462.271 1088.92 mark 0
AnchorPoint: "Anchor-1" 430.271 1348.9 basemark 0
AnchorPoint: "Anchor-1" 462.271 1088.92 mark 0
LayerCount: 2
Fore
SplineSet
217.11328125 1064.3671875 m 1,0,-1
 217.11328125 1156.15917969 l 1,1,-1
 620.044921875 1320.92089844 l 1,2,-1
 620.044921875 1229.12890625 l 1,3,-1
 217.11328125 1064.3671875 l 1,0,-1
EndSplineSet
EndChar

StartChar: uni064F
Encoding: 1615 1615 47
Width: -21
VWidth: 1843
GlyphClass: 4
Flags: W
AnchorPoint: "Anchor-10" 492.498 1024.81 mark 0
AnchorPoint: "Anchor-9" 492.498 1024.81 mark 0
AnchorPoint: "Anchor-1" 437.215 1538.56 basemark 0
AnchorPoint: "Anchor-1" 492.498 1024.81 mark 0
LayerCount: 2
Fore
SplineSet
658.181640625 1171.37988281 m 1,0,1
 612.799804688 1172 612.799804688 1172 552.587890625 1178.41601562 c 1,2,3
 510.400390625 1119.20019531 510.400390625 1119.20019531 450.702148438 1082.39941406 c 0,4,5
 356 1023.20019531 356 1023.20019531 248.799804688 1019.20019531 c 1,6,-1
 248.799804688 1090.19335938 l 1,7,8
 353.599609375 1093.59960938 353.599609375 1093.59960938 416.251953125 1145.92773438 c 0,9,10
 444 1168.79980469 444 1168.79980469 455.759765625 1181.67578125 c 2,11,-1
 473.024414062 1199.86035156 l 1,12,-1
 448.551757812 1205.29296875 l 2,13,14
 443.200195312 1206.40039062 443.200195312 1206.40039062 411.861328125 1222.51464844 c 0,15,16
 381.599609375 1238.40039062 381.599609375 1238.40039062 359.088867188 1269.25585938 c 0,17,18
 336.799804688 1300 336.799804688 1300 336.723632812 1337.42578125 c 0,19,20
 336.799804688 1410.40039062 336.799804688 1410.40039062 393.420898438 1453.09179688 c 0,21,22
 415.200195312 1469.59960938 415.200195312 1469.59960938 471.169921875 1469.23730469 c 0,23,24
 527.200195312 1469.59960938 527.200195312 1469.59960938 566.120117188 1431.32226562 c 0,25,26
 604.799804688 1393.59960938 604.799804688 1393.59960938 604.849609375 1327.94335938 c 0,27,28
 604.799804688 1301.00097656 604.799804688 1301.00097656 592.834960938 1262.55175781 c 2,29,-1
 587.451171875 1245.24902344 l 1,30,-1
 605.544921875 1244.1796875 l 2,31,32
 636 1242.40039062 636 1242.40039062 658.181640625 1242.42285156 c 1,33,-1
 658.181640625 1171.37988281 l 1,0,1
514.053710938 1257.30761719 m 1,34,-1
 524.500976562 1281.6796875 l 2,35,36
 533.782226562 1303.33886719 533.782226562 1303.33886719 533.782226562 1334.35742188 c 128,-1,37
 533.782226562 1365.375 533.782226562 1365.375 513.865234375 1381.77246094 c 128,-1,38
 493.948242188 1398.16992188 493.948242188 1398.16992188 469.811523438 1398.16992188 c 128,-1,39
 445.674804688 1398.16992188 445.674804688 1398.16992188 427.637695312 1384.4296875 c 128,-1,40
 409.599609375 1370.68945312 409.599609375 1370.68945312 409.599609375 1333.21679688 c 128,-1,41
 409.599609375 1295.74414062 409.599609375 1295.74414062 459.192382812 1275.90527344 c 0,42,43
 477.728515625 1268.4921875 477.728515625 1268.4921875 514.053710938 1257.30761719 c 1,34,-1
EndSplineSet
EndChar

StartChar: uni0650
Encoding: 1616 1616 48
Width: -21
VWidth: 1843
GlyphClass: 4
Flags: W
AnchorPoint: "Anchor-7" 453.913 -12.96 mark 0
AnchorPoint: "Anchor-6" 453.913 -12.96 mark 0
AnchorPoint: "Anchor-0" 492.019 -261.556 basemark 0
AnchorPoint: "Anchor-0" 453.913 -12.96 mark 0
LayerCount: 2
Fore
SplineSet
254.28515625 -282.244140625 m 1,0,-1
 254.28515625 -190.451171875 l 1,1,-1
 657.215820312 -25.6904296875 l 1,2,-1
 657.215820312 -117.482421875 l 1,3,-1
 254.28515625 -282.244140625 l 1,0,-1
EndSplineSet
EndChar

StartChar: uni0651
Encoding: 1617 1617 49
Width: -21
VWidth: 1843
GlyphClass: 4
Flags: W
AnchorPoint: "Anchor-10" 487.615 1112.18 mark 0
AnchorPoint: "Anchor-9" 487.615 1112.18 mark 0
AnchorPoint: "Anchor-1" 463.077 1472.27 basemark 0
AnchorPoint: "Anchor-1" 487.615 1112.18 mark 0
LayerCount: 2
Fore
SplineSet
461.92578125 1225.53710938 m 1,0,1
 437.599609375 1093.59960938 437.599609375 1093.59960938 321.987304688 1093.50097656 c 0,2,3
 206.400390625 1093.59960938 206.400390625 1093.59960938 205.749023438 1242.31445312 c 0,4,5
 205.599609375 1272 205.599609375 1272 218.169921875 1354.91113281 c 1,6,-1
 278.260742188 1354.91113281 l 1,7,8
 268 1283.20019531 268 1283.20019531 268 1260.79980469 c 0,9,10
 268 1170.40039062 268 1170.40039062 331.959960938 1170.46191406 c 0,11,12
 420 1170.40039062 420 1170.40039062 424.484375 1285.96191406 c 0,13,14
 425.599609375 1317.59960938 425.599609375 1317.59960938 425.5 1355.29296875 c 0,15,16
 425.599609375 1392.79980469 425.599609375 1392.79980469 425.490234375 1399.96484375 c 1,17,-1
 484.8984375 1399.96484375 l 1,18,19
 486.400390625 1371.20019531 486.400390625 1371.20019531 486.629882812 1332.79296875 c 0,20,21
 486.400390625 1220.16308594 486.400390625 1220.16308594 584.364257812 1220.32519531 c 2,22,-1
 584.869140625 1220.32617188 l 2,23,24
 644 1220.79980469 644 1220.79980469 644.177734375 1315.59765625 c 0,25,26
 644.799804688 1400 644.799804688 1400 635.458984375 1449.86816406 c 1,27,-1
 699.154296875 1449.86816406 l 1,28,29
 708 1386.40039062 708 1386.40039062 708 1311.20019531 c 0,30,31
 708 1188.79980469 708 1188.79980469 640.5234375 1159.93359375 c 0,32,33
 614.400390625 1148.79980469 614.400390625 1148.79980469 588.799804688 1148 c 0,34,35
 532 1145.59960938 532 1145.59960938 502.400390625 1167.20019531 c 0,36,37
 466.400390625 1193.59960938 466.400390625 1193.59960938 461.92578125 1225.53710938 c 1,0,1
EndSplineSet
EndChar

StartChar: uni0652
Encoding: 1618 1618 50
Width: -27
VWidth: 2304
GlyphClass: 4
Flags: W
AnchorPoint: "Anchor-10" 588.527 1187.7 mark 0
AnchorPoint: "Anchor-9" 588.527 1187.7 mark 0
AnchorPoint: "Anchor-1" 573.743 1793.31 basemark 0
AnchorPoint: "Anchor-1" 588.527 1187.7 mark 0
LayerCount: 2
Fore
SplineSet
707.344726562 1457.10253906 m 0,0,1
 707.344726562 1505.78320312 707.344726562 1505.78320312 673.299804688 1539.828125 c 128,-1,2
 639.258789062 1573.87304688 639.258789062 1573.87304688 589.884765625 1573.87304688 c 0,3,4
 539.819335938 1573.87304688 539.819335938 1573.87304688 506.124023438 1540.17675781 c 128,-1,5
 472.427734375 1506.48046875 472.427734375 1506.48046875 472.427734375 1457.10253906 c 0,6,7
 472.427734375 1407.03808594 472.427734375 1407.03808594 506.124023438 1373.34277344 c 128,-1,8
 539.819335938 1339.64648438 539.819335938 1339.64648438 589.884765625 1339.64648438 c 0,9,10
 639.260742188 1339.64648438 639.260742188 1339.64648438 673.299804688 1373.69140625 c 128,-1,11
 707.344726562 1407.73535156 707.344726562 1407.73535156 707.344726562 1457.10253906 c 0,0,1
779.41796875 1457.21875 m 128,-1,13
 779.41796875 1377.71484375 779.41796875 1377.71484375 724.528320312 1322.47265625 c 128,-1,14
 669.673828125 1267.2734375 669.673828125 1267.2734375 590.212890625 1267.2734375 c 0,15,16
 563.655273438 1267.2734375 563.655273438 1267.2734375 539.920898438 1273.39550781 c 128,-1,17
 516.186523438 1279.51757812 516.186523438 1279.51757812 495.203125 1291.77636719 c 128,-1,18
 474.220703125 1304.03515625 474.220703125 1304.03515625 455.8984375 1322.47265625 c 0,19,20
 428.400390625 1350.14648438 428.400390625 1350.14648438 414.704101562 1383.76074219 c 128,-1,21
 401.006835938 1417.375 401.006835938 1417.375 401.006835938 1457.21875 c 0,22,23
 401.006835938 1536.6953125 401.006835938 1536.6953125 455.8671875 1591.56542969 c 128,-1,24
 510.7265625 1646.42480469 510.7265625 1646.42480469 590.212890625 1646.42480469 c 128,-1,25
 669.698242188 1646.42480469 669.698242188 1646.42480469 724.556640625 1591.56542969 c 128,-1,12
 779.41796875 1536.6953125 779.41796875 1536.6953125 779.41796875 1457.21875 c 128,-1,13
EndSplineSet
EndChar

StartChar: uni0653
Encoding: 1619 1619 51
Width: -3
VWidth: 2277
GlyphClass: 4
Flags: W
AnchorPoint: "Anchor-10" 491.962 1309.68 mark 0
AnchorPoint: "Anchor-9" 491.962 1309.68 mark 0
AnchorPoint: "Anchor-1" 466.962 1694.04 basemark 0
AnchorPoint: "Anchor-1" 491.962 1309.68 mark 0
LayerCount: 2
Fore
SplineSet
117.922851562 1292.02539062 m 24,0,1
 95 1294 95 1294 107.511120083 1340.11040703 c 0,2,3
 132 1432 132 1432 173 1475 c 128,-1,4
 214 1518 214 1518 267.5 1519.5 c 128,-1,5
 321 1521 321 1521 429 1509 c 0,6,7
 546 1496 546 1496 668.991210938 1525.31347656 c 0,8,9
 689 1530 689 1530 697.692249512 1516.52668788 c 0,10,11
 705 1506 705 1506 678.754882812 1465.84472656 c 4,12,13
 628 1389 628 1389 570.002980754 1372.31293721 c 0,14,15
 513 1356 513 1356 309.141308892 1368.81543676 c 0,16,17
 206 1375 206 1375 140.596679688 1306.19140625 c 0,18,19
 126 1291 126 1291 117.922851562 1292.02539062 c 24,0,1
EndSplineSet
EndChar

StartChar: uni0657
Encoding: 1623 1623 54
Width: -29
VWidth: 2488
GlyphClass: 4
Flags: W
AnchorPoint: "Anchor-10" 615.08 1455.92 mark 0
AnchorPoint: "Anchor-9" 615.08 1455.92 mark 0
AnchorPoint: "Anchor-1" 615.08 2249.13 basemark 0
AnchorPoint: "Anchor-1" 615.08 1455.92 mark 0
LayerCount: 2
Fore
SplineSet
711.864257812 1733.08398438 m 0,0,1
 711.719726562 1545.40039062 711.719726562 1545.40039062 530.360351562 1547.06835938 c 0,2,3
 454.6796875 1547.55957031 454.6796875 1547.55957031 402.1796875 1598.25488281 c 0,4,5
 349.919921875 1649.08007812 349.919921875 1649.08007812 349.893554688 1737.81640625 c 0,6,7
 349.919921875 1774.046875 349.919921875 1774.046875 366.11328125 1826.09472656 c 2,8,-1
 373.381835938 1849.45410156 l 1,9,-1
 348.954101562 1850.89648438 l 2,10,11
 309.959960938 1853.20019531 309.959960938 1853.20019531 277.895507812 1853.26855469 c 1,12,-1
 277.895507812 1949.17675781 l 1,13,14
 339.120117188 1948.24023438 339.120117188 1948.24023438 420.448242188 1939.67871094 c 1,15,16
 477.360351562 2020.59960938 477.360351562 2020.59960938 557.994140625 2069.30078125 c 0,17,18
 753.83984375 2189.08007812 753.83984375 2189.08007812 847.799804688 2194.20019531 c 5,19,-1
 847.799804688 2098.36035156 l 5,20,21
 747.360351562 2095.12011719 747.360351562 2095.12011719 604.5 1983.53613281 c 0,22,23
 575.639648438 1961.20019531 575.639648438 1961.20019531 551.166015625 1935.27832031 c 2,24,-1
 527.861328125 1910.74414062 l 1,25,-1
 560.892578125 1903.39355469 l 2,26,27
 570.240234375 1901.79980469 570.240234375 1901.79980469 610.428710938 1880.14453125 c 0,28,29
 651.240234375 1858.59960938 651.240234375 1858.59960938 681.670898438 1817.04296875 c 0,30,31
 711.719726562 1775.44042969 711.719726562 1775.44042969 711.864257812 1733.08398438 c 0,0,1
518.581054688 1643.01171875 m 0,32,33
 613.481445312 1643.01171875 613.481445312 1643.01171875 613.481445312 1723.17285156 c 0,34,35
 613.481445312 1781.28417969 613.481445312 1781.28417969 546.533203125 1808.06640625 c 0,36,37
 521.615234375 1818.03808594 521.615234375 1818.03808594 472.469726562 1833.17578125 c 1,38,-1
 458.366210938 1800.27246094 l 2,39,40
 445.834960938 1771.03710938 445.834960938 1771.03710938 445.834960938 1729.16699219 c 128,-1,41
 445.834960938 1687.296875 445.834960938 1687.296875 472.719726562 1665.15429688 c 128,-1,42
 499.603515625 1643.01171875 499.603515625 1643.01171875 518.581054688 1643.01171875 c 0,32,33
EndSplineSet
EndChar

StartChar: uni065A
Encoding: 1626 1626 55
Width: 1219
VWidth: 2488
GlyphClass: 4
Flags: W
AnchorPoint: "Anchor-10" 615.08 1455.92 mark 0
AnchorPoint: "Anchor-9" 615.08 1455.92 mark 0
AnchorPoint: "Anchor-1" 612.64 2005.07 basemark 0
AnchorPoint: "Anchor-1" 615.08 1455.92 mark 0
LayerCount: 2
Fore
SplineSet
535.634765625 1550.72949219 m 1,0,-1
 320.578125 1910.25976562 l 1,1,-1
 446.194335938 1910.25976562 l 1,2,-1
 615.080078125 1656.92382812 l 1,3,-1
 783.965820312 1910.25976562 l 1,4,-1
 909.583007812 1910.25976562 l 1,5,-1
 694.5234375 1550.72949219 l 1,6,-1
 535.634765625 1550.72949219 l 1,0,-1
EndSplineSet
EndChar

StartChar: afii57392
Encoding: 1632 1632 56
Width: 836
VWidth: 2812
GlyphClass: 2
Flags: W
LayerCount: 2
Fore
SplineSet
420.879882812 848.64453125 m 1,0,-1
 663.55859375 605.966796875 l 1,1,-1
 416.126953125 358.534179688 l 1,2,-1
 173.448242188 601.212890625 l 1,3,-1
 420.879882812 848.64453125 l 1,0,-1
EndSplineSet
EndChar

StartChar: afii57393
Encoding: 1633 1633 57
Width: 763
VWidth: 2810
GlyphClass: 2
Flags: W
LayerCount: 2
Fore
SplineSet
431.301757812 26.3388671875 m 2,0,1
 394.155273438 654.7734375 394.155273438 654.7734375 145.275390625 1333.10839844 c 2,2,-1
 142.329101562 1341.13867188 l 1,3,-1
 326.075195312 1529.37695312 l 1,4,-1
 336.165039062 1507.69628906 l 2,5,6
 571 1003 571 1003 565.086914062 341.268554688 c 4,7,8
 564 228 564 228 547.264648438 146.541015625 c 4,9,10
 517.094726562 -3.52734375 517.094726562 -3.52734375 441 -9 c 2,11,-1
 433.422851562 -9.544921875 l 1,12,-1
 431.301757812 26.3388671875 l 2,0,1
EndSplineSet
EndChar

StartChar: afii57394
Encoding: 1634 1634 58
Width: 1188
VWidth: 2633
GlyphClass: 2
Flags: W
LayerCount: 2
Fore
SplineSet
546.471679688 931.71875 m 1,0,1
 623 696 623 696 622.250976562 367.94140625 c 4,2,3
 622 17.982421875 622 17.982421875 520.061523438 -4.8076171875 c 2,4,-1
 502.754882812 -8.6767578125 l 1,5,-1
 501.752929688 18.11328125 l 2,6,7
 494 234 494 234 356.096679688 787.569335938 c 0,8,9
 319 937 319 937 135.498046875 1347.52539062 c 1,10,-1
 300.5703125 1532.74609375 l 1,11,-1
 310.841796875 1508.18359375 l 2,12,13
 381 1339 381 1339 402.6875 1306.74121094 c 0,14,15
 484 1182 484 1182 724.797851562 1200.91210938 c 0,16,17
 908 1215 908 1215 943.46875 1367.57226562 c 0,18,19
 968 1472 968 1472 984.907226562 1494.32714844 c 0,20,21
 1002 1517 1002 1517 1028.71777344 1511.41699219 c 0,22,23
 1056 1506 1056 1506 1066.20898438 1487.5546875 c 0,24,25
 1077 1469 1077 1469 1068.63574219 1356.31542969 c 0,26,27
 1061 1244 1061 1244 1034.51660156 1172.7109375 c 0,28,29
 936 909 936 909 649.1640625 909.845703125 c 0,30,31
 583 910 583 910 546.471679688 931.71875 c 1,0,1
EndSplineSet
EndChar

StartChar: afii57395
Encoding: 1635 1635 59
Width: 1468
VWidth: 2633
GlyphClass: 2
Flags: W
LayerCount: 2
Fore
SplineSet
1090.29003906 920.161132812 m 0,0,1
 949 920 949 920 855.204101562 1078.14746094 c 1,2,3
 743 854 743 854 547.29296875 928.428710938 c 1,4,5
 629 676 629 676 629 348.026367188 c 4,6,7
 629 17.4677734375 629 17.4677734375 519 -6 c 2,8,-1
 502.1640625 -9.591796875 l 1,9,-1
 501.45703125 13.671875 l 2,10,11
 493 281 493 281 355.435546875 787.494140625 c 0,12,13
 316 932 316 932 134.458984375 1343.11816406 c 1,14,-1
 300.106445312 1531.89453125 l 1,15,-1
 310.504882812 1507.26367188 l 2,16,17
 345 1426 345 1426 392.970703125 1324.21289062 c 0,18,19
 456 1189 456 1189 646.306640625 1208.57324219 c 0,20,21
 780 1222 780 1222 811.655273438 1418.90625 c 0,22,23
 823 1490 823 1490 858.403320312 1492.49414062 c 0,24,25
 902 1495 902 1495 906.82421875 1453.57519531 c 0,26,27
 908 1443 908 1443 908.912109375 1426.36621094 c 0,28,29
 914 1208 914 1208 1096.51464844 1208.13671875 c 0,30,31
 1230 1208 1230 1208 1243.42578125 1440.7265625 c 0,32,33
 1247 1504 1247 1504 1300.54492188 1503.74902344 c 0,34,35
 1363 1504 1363 1504 1363.02050781 1394.81542969 c 0,36,37
 1363 1286 1363 1286 1340.61621094 1171.52050781 c 0,38,39
 1318 1057 1318 1057 1254.49316406 988.782226562 c 0,40,41
 1191 920 1191 920 1090.29003906 920.161132812 c 0,0,1
EndSplineSet
EndChar

StartChar: afii57396
Encoding: 1636 1636 60
Width: 1071
VWidth: 2806
GlyphClass: 2
Flags: W
LayerCount: 2
Fore
SplineSet
110.375 264.130859375 m 1,0,1
 132 492 132 492 447.778320312 756.26953125 c 1,2,3
 231 867 231 867 125.091796875 1004.13476562 c 1,4,5
 177.0078125 1311.04785156 177.0078125 1311.04785156 661.65234375 1510.31640625 c 6,6,-1
 674.651367188 1515.66113281 l 5,7,8
 702 1460 702 1460 713.124023438 1243.04589844 c 5,9,10
 490 1137 490 1137 266.29296875 1030.49023438 c 1,11,12
 349 991 349 991 789.0390625 915.178710938 c 1,13,14
 783 805 783 805 776.881835938 695.349609375 c 1,15,16
 275 400 275 400 259.616210938 375.8828125 c 1,17,18
 326 347 326 347 925.390625 407.623046875 c 1,19,-1
 961.197265625 69.71484375 l 1,20,21
 412 33 412 33 110.375 264.130859375 c 1,0,1
EndSplineSet
EndChar

StartChar: afii57397
Encoding: 1637 1637 61
Width: 1282
VWidth: 2809
GlyphClass: 2
Flags: W
LayerCount: 2
Fore
SplineSet
358.018554688 422.811523438 m 0,0,1
 462 354 462 354 671.7109375 370.411132812 c 0,2,3
 844 384 844 384 927.25 486.786132812 c 0,4,5
 1010 587 1010 587 806.24609375 854.427734375 c 0,6,7
 743 938 743 938 613.848632812 1057.33886719 c 1,8,9
 372.974609375 814.987304688 372.974609375 814.987304688 311.587890625 663.637695312 c 0,10,11
 244 498 244 498 358.018554688 422.811523438 c 0,0,1
551.349609375 1453.18261719 m 1,12,13
 847 1229 847 1229 1045 832 c 0,14,15
 1110 701 1110 701 1111.85742188 546 c 4,16,17
 1114 392 1114 392 1041.98046875 280.1015625 c 0,18,19
 895 56 895 56 633.6171875 56.9970703125 c 0,20,21
 377 58 377 58 235.5 225 c 0,22,23
 109 375 109 375 137.522460938 561.677734375 c 0,24,25
 157 686 157 686 252 842 c 0,26,27
 402 1085 402 1085 483.477539062 1174.94628906 c 1,28,-1
 423 1232 l 1,29,-1
 551.349609375 1453.18261719 l 1,12,13
EndSplineSet
EndChar

StartChar: afii57398
Encoding: 1638 1638 62
Width: 1297
VWidth: 2809
GlyphClass: 2
Flags: W
LayerCount: 2
Fore
SplineSet
994.96484375 754.860351562 m 4,0,1
 1002 679 1002 679 1064.16992188 479.8046875 c 0,2,3
 1107.13964844 340.546875 1107.13964844 340.546875 1164.47753906 316.838867188 c 2,4,-1
 1173.12402344 313.263671875 l 1,5,-1
 1188.61035156 -1.080078125 l 1,6,-1
 1171.38769531 0.255859375 l 2,7,8
 934 19 934 19 867.399414062 356.561523438 c 0,9,10
 774 830 774 830 768.8359375 1113.36035156 c 5,11,12
 542 1051 542 1051 325.954101562 1083.88378906 c 4,13,14
 206 1102 206 1102 158.830078125 1148.94238281 c 4,15,16
 111.015625 1197.984375 111.015625 1197.984375 111.015625 1366.85058594 c 6,17,-1
 111.015625 1426.89746094 l 5,18,-1
 129.973632812 1421.7109375 l 6,19,20
 541 1309 541 1309 961 1428 c 5,21,22
 954 1165 954 1165 994.96484375 754.860351562 c 4,0,1
EndSplineSet
EndChar

StartChar: afii57399
Encoding: 1639 1639 63
Width: 1250
VWidth: 2810
GlyphClass: 2
Flags: W
LayerCount: 2
Fore
SplineSet
1054.63183594 1529.65332031 m 1,0,-1
 1169.32421875 1265.13964844 l 1,1,-1
 1164.94140625 1259.01269531 l 2,2,3
 857.181640625 829.25390625 857.181640625 829.25390625 731.359375 17.3984375 c 2,4,-1
 729.390625 4.6953125 l 1,5,-1
 555.43359375 4.6953125 l 1,6,-1
 553.506835938 17.4560546875 l 2,7,8
 437.172851562 792.604492188 437.172851562 792.604492188 86.76171875 1259.04296875 c 6,9,-1
 82.060546875 1265.30078125 l 1,10,-1
 198.915039062 1529.5390625 l 1,11,-1
 216.181640625 1506.55371094 l 2,12,13
 555 1056 555 1056 641.439453125 425.2109375 c 1,14,15
 726.951171875 1065.63183594 726.951171875 1065.63183594 1037.27050781 1505.06835938 c 2,16,-1
 1054.63183594 1529.65332031 l 1,0,-1
EndSplineSet
EndChar

StartChar: afii57400
Encoding: 1640 1640 64
Width: 1250
VWidth: 2810
GlyphClass: 2
Flags: W
LayerCount: 2
Fore
SplineSet
1054.63183594 4.6953125 m 1,0,-1
 1037.27050781 29.2802734375 l 2,1,2
 717.03125 482.762695312 717.03125 482.762695312 641.439453125 1049.13769531 c 5,3,4
 565 492 565 492 216.181640625 27.794921875 c 2,5,-1
 198.915039062 4.8095703125 l 1,6,-1
 82.060546875 269.047851562 l 1,7,-1
 86.76171875 275.305664062 l 2,8,9
 434.971679688 738.814453125 434.971679688 738.814453125 553.506835938 1516.89257812 c 5,10,-1
 555.43359375 1529.65332031 l 5,11,-1
 729.390625 1529.65332031 l 5,12,-1
 731.359375 1516.95019531 l 6,13,14
 857.053710938 705.92578125 857.053710938 705.92578125 1164.94140625 275.3359375 c 2,15,-1
 1169.32421875 269.208984375 l 1,16,-1
 1054.63183594 4.6953125 l 1,0,-1
EndSplineSet
EndChar

StartChar: afii57401
Encoding: 1641 1641 65
Width: 1182
VWidth: 2810
GlyphClass: 2
Flags: W
LayerCount: 2
Fore
SplineSet
715.311523438 628.483398438 m 1,0,1
 381 591 381 591 227.893554688 712.530273438 c 0,2,3
 110 806 110 806 110.879882812 988.977539062 c 0,4,5
 111 1240 111 1240 255.366210938 1398.0234375 c 0,6,7
 371 1525 371 1525 495.5 1525 c 128,-1,8
 620 1525 620 1525 702.78515625 1451.59960938 c 0,9,10
 867 1306 867 1306 882.202148438 958.942382812 c 0,11,12
 894 700 894 700 942.059570312 486.73828125 c 0,13,14
 975.103515625 341.546875 975.103515625 341.546875 1058.48925781 296.7265625 c 2,15,-1
 1066.10546875 292.6328125 l 1,16,-1
 1073.18164062 -0.3076171875 l 1,17,18
 863.826171875 3.4609375 863.826171875 3.4609375 805.31640625 210.494140625 c 4,19,20
 737 447 737 447 715.311523438 628.483398438 c 1,0,1
279.546875 997.447265625 m 128,-1,22
 287 963 287 963 334.5 944 c 128,-1,23
 382 925 382 925 508.5 925 c 128,-1,24
 635 925 635 925 725.18359375 936.662109375 c 1,25,-1
 721.649414062 969.01171875 l 2,26,27
 706 1116 706 1116 584.622070312 1174.4765625 c 0,28,29
 548 1192 548 1192 487.5 1195.5 c 0,30,31
 351.474609375 1203.08496094 351.474609375 1203.08496094 299.23828125 1090.63574219 c 0,32,21
 272 1032 272 1032 279.546875 997.447265625 c 128,-1,22
EndSplineSet
EndChar

StartChar: afii57381
Encoding: 1642 1642 66
Width: 1526
VWidth: 2838
GlyphClass: 2
Flags: W
LayerCount: 2
Fore
SplineSet
603.786132812 1693.42480469 m 2,0,-1
 603.786132812 1525.79882812 l 2,1,2
 603.786132812 1510.109375 603.786132812 1510.109375 598.853515625 1497.921875 c 128,-1,3
 593.919921875 1485.73339844 593.919921875 1485.73339844 583.380859375 1478.30078125 c 128,-1,4
 572.840820312 1470.86816406 572.840820312 1470.86816406 557.958984375 1470.86328125 c 2,5,-1
 392.935546875 1470.87695312 l 2,6,7
 368.916015625 1470.87695312 368.916015625 1470.87695312 355.413085938 1486.29785156 c 128,-1,8
 341.91015625 1501.71875 341.91015625 1501.71875 341.91015625 1527.09765625 c 2,9,-1
 341.91015625 1693.42480469 l 2,10,11
 341.91015625 1716.54101562 341.91015625 1716.54101562 357.513671875 1729.1953125 c 128,-1,12
 373.1171875 1741.85058594 373.1171875 1741.85058594 398.130859375 1741.85058594 c 2,13,-1
 547.564453125 1741.85058594 l 2,14,15
 572.58984375 1741.85058594 572.58984375 1741.85058594 588.188476562 1729.27246094 c 128,-1,16
 603.786132812 1716.69433594 603.786132812 1716.69433594 603.786132812 1693.42480469 c 2,0,-1
1190.86914062 324.868164062 m 2,17,-1
 1190.86914062 157.241210938 l 2,18,19
 1190.86914062 133.083007812 1190.86914062 133.083007812 1179.03222656 117.701171875 c 128,-1,20
 1167.19628906 102.319335938 1167.19628906 102.319335938 1145.04394531 102.319335938 c 2,21,-1
 980.016601562 102.319335938 l 2,22,23
 955.998046875 102.319335938 955.998046875 102.319335938 942.49609375 117.740234375 c 128,-1,24
 928.994140625 133.161132812 928.994140625 133.161132812 928.994140625 158.540039062 c 2,25,-1
 928.994140625 324.868164062 l 2,26,27
 928.994140625 347.982421875 928.994140625 347.982421875 944.59765625 360.63671875 c 128,-1,28
 960.201171875 373.291015625 960.201171875 373.291015625 985.213867188 373.291015625 c 2,29,-1
 1134.64941406 373.291015625 l 2,30,31
 1146.79101562 373.291015625 1146.79101562 373.291015625 1156.98925781 370.1875 c 128,-1,32
 1167.1875 367.083984375 1167.1875 367.083984375 1174.77441406 361.14453125 c 128,-1,33
 1182.36132812 355.206054688 1182.36132812 355.206054688 1186.61523438 345.912109375 c 128,-1,34
 1190.86914062 336.6171875 1190.86914062 336.6171875 1190.86914062 324.868164062 c 2,17,-1
1129.37988281 1814.96777344 m 1,35,-1
 1286.56933594 1733.98339844 l 1,36,-1
 393.978515625 11.625 l 1,37,-1
 237.73828125 97.4873046875 l 1,38,-1
 1129.37988281 1814.96777344 l 1,35,-1
EndSplineSet
EndChar

StartChar: uni066B
Encoding: 1643 1643 67
Width: 921
VWidth: 2838
GlyphClass: 2
Flags: W
LayerCount: 2
Fore
SplineSet
574.338867188 684.063476562 m 1,0,-1
 705.369140625 602.966796875 l 1,1,-1
 170.420898438 -289.07421875 l 1,2,-1
 38.1650390625 -201.291015625 l 1,3,-1
 574.338867188 684.063476562 l 1,0,-1
EndSplineSet
EndChar

StartChar: uni066C
Encoding: 1644 1644 68
Width: 581
VWidth: 2633
GlyphClass: 2
Flags: W
LayerCount: 2
Fore
SplineSet
316.333984375 307.443359375 m 2,0,1
 376.586914062 307.443359375 376.586914062 307.443359375 407.96875 269.775390625 c 128,-1,2
 439.3515625 232.107421875 439.3515625 232.107421875 439.3515625 162.8359375 c 2,3,-1
 439.3515625 117.46484375 l 2,4,5
 439.3515625 -142.654296875 439.3515625 -142.654296875 183.819335938 -252.32421875 c 0,6,7
 158.830078125 -262.943359375 158.830078125 -262.943359375 143.790039062 -263.734375 c 0,8,9
 141.098632812 -263.875976562 141.098632812 -263.875976562 138.37890625 -263.573242188 c 128,-1,10
 135.658203125 -263.270507812 135.658203125 -263.270507812 133.01171875 -262.552734375 c 128,-1,11
 130.365234375 -261.834960938 130.365234375 -261.834960938 127.884765625 -260.642578125 c 128,-1,12
 125.403320312 -259.451171875 125.403320312 -259.451171875 123.201171875 -257.887695312 c 128,-1,13
 120.999023438 -256.325195312 120.999023438 -256.325195312 119.155273438 -254.252929688 c 128,-1,14
 117.311523438 -252.181640625 117.311523438 -252.181640625 115.953125 -249.782226562 c 128,-1,15
 114.59375 -247.383789062 114.59375 -247.383789062 113.78515625 -244.440429688 c 128,-1,16
 112.977539062 -241.498046875 112.977539062 -241.498046875 112.858398438 -238.267578125 c 0,17,18
 112.546875 -229.723632812 112.546875 -229.723632812 117.889648438 -222.2421875 c 128,-1,19
 123.231445312 -214.759765625 123.231445312 -214.759765625 128.547851562 -211.0859375 c 128,-1,20
 133.864257812 -207.411132812 133.864257812 -207.411132812 143.951171875 -201.647460938 c 0,21,22
 320.40625 -96.1689453125 320.40625 -96.1689453125 323.979492188 27.841796875 c 1,23,-1
 287.600585938 27.841796875 l 2,24,25
 227.076171875 27.841796875 227.076171875 27.841796875 194.491210938 59.662109375 c 128,-1,26
 161.90625 91.4814453125 161.90625 91.4814453125 161.90625 150.943359375 c 2,27,-1
 161.90625 178.134765625 l 2,28,29
 161.7421875 240.7265625 161.7421875 240.7265625 196.163085938 274.084960938 c 128,-1,30
 230.583984375 307.443359375 230.583984375 307.443359375 294.827148438 307.443359375 c 2,31,-1
 316.333984375 307.443359375 l 2,0,1
EndSplineSet
EndChar

StartChar: afii63167
Encoding: 1645 1645 69
Width: 1435
VWidth: 2633
GlyphClass: 2
Flags: W
LayerCount: 2
Fore
SplineSet
123.088867188 993.997070312 m 1,0,-1
 576.798828125 993.997070312 l 1,1,-1
 718.3671875 1425.01660156 l 1,2,-1
 859.93359375 993.997070312 l 1,3,-1
 1313.64941406 993.997070312 l 1,4,-1
 947.131835938 726.063476562 l 1,5,-1
 1087.40722656 295.125 l 1,6,-1
 718.3671875 561.794921875 l 1,7,-1
 349.325195312 295.125 l 1,8,-1
 489.599609375 726.063476562 l 1,9,-1
 123.088867188 993.997070312 l 1,0,-1
EndSplineSet
EndChar

StartChar: uni066E
Encoding: 1646 1646 70
Width: 1841
VWidth: 3095
GlyphClass: 2
Flags: W
AnchorPoint: "Anchor-10" 893.013 1484.59 basechar 0
AnchorPoint: "Anchor-7" 560.373 -338.416 basechar 0
LayerCount: 2
Fore
SplineSet
990.28515625 7.091796875 m 0,0,1
 479 -39 479 -39 264.858398438 79.564453125 c 0,2,3
 49 199 49 199 105.729492188 507.974609375 c 0,4,5
 130 638 130 638 180.791992188 719.532226562 c 0,6,7
 213 771 213 771 249.345703125 763.125976562 c 0,8,9
 286 755 286 755 259.724609375 687.759765625 c 0,10,11
 203 542 203 542 248.6171875 461.3984375 c 0,12,13
 326 324 326 324 674.584960938 307.173828125 c 0,14,15
 1385 273 1385 273 1588.80761719 423.908203125 c 1,16,17
 1578 560 1578 560 1462.46484375 697.916992188 c 1,18,-1
 1605.16992188 932.19140625 l 1,19,-1
 1618.1875 912.396484375 l 2,20,21
 1714 767 1714 767 1740.14941406 548.180664062 c 0,22,23
 1781 206 1781 206 1496.38964844 103.143554688 c 0,24,25
 1314 37 1314 37 990.28515625 7.091796875 c 0,0,1
EndSplineSet
Substitution2: "'init' Initial Forms in Arabic lookup 13 subtable" uni066E.init
Substitution2: "'medi' Medial Forms in Arabic lookup 11 subtable" uni066E.medi
Substitution2: "'fina' Terminal Forms in Arabic lookup 9 subtable" uni066E.fina
EndChar

StartChar: uni066F
Encoding: 1647 1647 71
Width: 1465
VWidth: 3118
GlyphClass: 2
Flags: W
AnchorPoint: "Anchor-10" 510.348 1270.6 basechar 0
AnchorPoint: "Anchor-7" 276.97 -653.665 basechar 0
LayerCount: 2
Fore
SplineSet
1230.89355469 357.771484375 m 5,0,1
 1229.77636719 389.591796875 1229.77636719 389.591796875 1213.64746094 439.221679688 c 4,2,3
 1196.77636719 488.591796875 1196.77636719 488.591796875 1150.35449219 521.881835938 c 4,4,5
 1103.77636719 555.591796875 1103.77636719 555.591796875 1033.74609375 555.182617188 c 4,6,7
 908.776367188 555.591796875 908.776367188 555.591796875 861.481445312 467.4453125 c 4,8,9
 844.776367188 435.591796875 844.776367188 435.591796875 845.002929688 388.176757812 c 5,10,11
 862.776367188 372.591796875 862.776367188 372.591796875 962.163085938 363.840820312 c 4,12,13
 1061.77636719 354.591796875 1061.77636719 354.591796875 1230.89355469 357.771484375 c 5,0,1
1364.61425781 76.298828125 m 4,14,15
 1324 -461 1324 -461 647.198242188 -463.870117188 c 4,16,17
 357 -465 357 -465 213.376953125 -315.578125 c 4,18,19
 68.4765625 -164.41015625 68.4765625 -164.41015625 105.18359375 84.1357421875 c 4,20,21
 122 198 122 198 189.23046875 315.310546875 c 4,22,23
 257 433 257 433 300.995117188 389.662109375 c 4,24,25
 320 371 320 371 306.579101562 341.642578125 c 5,26,-1
 282.576171875 281.956054688 l 6,27,28
 220 126 220 126 268.52734375 24.576171875 c 4,29,30
 362 -168 362 -168 670.567382812 -159.005859375 c 4,31,32
 1144 -145 1144 -145 1227.59960938 65.9990234375 c 5,33,34
 1234 110 1234 110 1232.02246094 145.0078125 c 5,35,36
 1102 107 1102 107 976.197265625 122.353515625 c 4,37,38
 851 138 851 138 787.947265625 227.033203125 c 132,-1,39
 725 316 725 316 739.16796875 423.197265625 c 4,40,41
 766 632 766 632 874.499023438 737.788085938 c 4,42,43
 960 821 960 821 1050.33496094 817.955078125 c 4,44,45
 1140 815 1140 815 1212.64355469 742.0234375 c 4,46,47
 1285 669 1285 669 1333.98535156 510.51953125 c 4,48,49
 1385 346 1385 346 1364.61425781 76.298828125 c 4,14,15
EndSplineSet
Substitution2: "'init' Initial Forms in Arabic lookup 13 subtable" uni066F.init
Substitution2: "'medi' Medial Forms in Arabic lookup 11 subtable" uni066F.medi
Substitution2: "'fina' Terminal Forms in Arabic lookup 9 subtable" uni066F.fina
EndChar

StartChar: uni0670
Encoding: 1648 1648 72
Width: 0
VWidth: 2459
GlyphClass: 4
Flags: W
AnchorPoint: "Anchor-10" 625.055 1448.93 mark 0
AnchorPoint: "Anchor-9" 625.055 1448.93 mark 0
AnchorPoint: "Anchor-1" 615.334 2078.23 basemark 0
AnchorPoint: "Anchor-1" 625.055 1448.93 mark 0
LayerCount: 2
Fore
SplineSet
607.185546875 1494.64257812 m 1,0,-1
 561.697265625 1964.45800781 l 5,1,-1
 668.90625 2027.59375 l 5,2,-1
 668.90625 1494.64257812 l 1,3,-1
 607.185546875 1494.64257812 l 1,0,-1
EndSplineSet
EndChar

StartChar: uni0674
Encoding: 1652 1652 73
Width: 664
VWidth: 2277
GlyphClass: 2
Flags: W
LayerCount: 2
Fore
SplineSet
115.178710938 1448.26074219 m 1,0,-1
 180.721679688 1610.73632812 l 1,1,-1
 185.987304688 1613.25097656 l 2,2,3
 221.001953125 1629.96777344 221.001953125 1629.96777344 247.9296875 1641.89453125 c 1,4,5
 222.5390625 1649.64355469 222.5390625 1649.64355469 203.993164062 1662.70898438 c 128,-1,6
 185.446289062 1675.77539062 185.446289062 1675.77539062 174.265625 1693.5390625 c 128,-1,7
 163.084960938 1711.30371094 163.084960938 1711.30371094 159.111328125 1733.64550781 c 128,-1,8
 155.138671875 1755.98828125 155.138671875 1755.98828125 158.608398438 1782.31640625 c 0,9,10
 172.202148438 1886.16796875 172.202148438 1886.16796875 223.123046875 1940.42285156 c 128,-1,11
 274.044921875 1994.67773438 274.044921875 1994.67773438 360.265625 1994.28027344 c 0,12,13
 410.427734375 1994.11425781 410.427734375 1994.11425781 444.836914062 1959.6875 c 128,-1,14
 479.24609375 1925.26074219 479.24609375 1925.26074219 497.078125 1860.85546875 c 2,15,-1
 504.2890625 1834.80957031 l 1,16,-1
 478.37109375 1842.46777344 l 2,17,18
 313.267578125 1891.24804688 313.267578125 1891.24804688 264.126953125 1813.77929688 c 0,19,20
 248.354492188 1788.91210938 248.354492188 1788.91210938 256.375 1770.50292969 c 0,21,22
 261.306640625 1759.18164062 261.306640625 1759.18164062 266.810546875 1751.44433594 c 128,-1,23
 272.313476562 1743.70703125 272.313476562 1743.70703125 277.912109375 1739.52246094 c 0,24,25
 329.844726562 1700.70410156 329.844726562 1700.70410156 444.168945312 1727.56933594 c 0,26,27
 448.2265625 1728.55664062 448.2265625 1728.55664062 452.522460938 1729.56933594 c 128,-1,28
 456.818359375 1730.58300781 456.818359375 1730.58300781 461.338867188 1731.62011719 c 128,-1,29
 465.859375 1732.65625 465.859375 1732.65625 470.607421875 1733.71679688 c 128,-1,30
 475.35546875 1734.77734375 475.35546875 1734.77734375 480.317382812 1735.85839844 c 128,-1,31
 485.279296875 1736.94042969 485.279296875 1736.94042969 490.458984375 1738.04296875 c 128,-1,32
 495.637695312 1739.14550781 495.637695312 1739.14550781 501.021484375 1740.26757812 c 2,33,-1
 525.323242188 1745.33007812 l 1,34,-1
 485.154296875 1604.74023438 l 1,35,-1
 477.065429688 1602.48535156 l 2,36,37
 409.896484375 1583.76660156 409.896484375 1583.76660156 150.211914062 1464.37207031 c 2,38,-1
 115.178710938 1448.26074219 l 1,0,-1
EndSplineSet
EndChar

StartChar: uni06A1
Encoding: 1697 1697 77
Width: 1949
VWidth: 3118
GlyphClass: 2
Flags: W
AnchorPoint: "Anchor-10" 625.974 1727.63 basechar 0
AnchorPoint: "Anchor-7" 780.724 -265.558 basechar 0
LayerCount: 2
Fore
SplineSet
1336.72363281 734.060546875 m 0,0,1
 1322.38964844 690.54296875 1322.38964844 690.54296875 1423.31347656 669.610351562 c 0,2,3
 1554.36816406 641.59375 1554.36816406 641.59375 1726.93359375 677.655273438 c 1,4,5
 1720.29882812 710.27734375 1720.29882812 710.27734375 1688.75195312 762.94140625 c 0,6,7
 1623.26074219 873.6015625 1623.26074219 873.6015625 1473.60546875 849.59375 c 0,8,9
 1369.26660156 832.85546875 1369.26660156 832.85546875 1336.72363281 734.060546875 c 0,0,1
1832.32910156 364.97265625 m 24,10,11
 1789 186 1789 186 1587.95019531 87.1845703125 c 0,12,13
 1430 9 1430 9 790.737304688 -0.998046875 c 0,14,15
 407 -7 407 -7 253.51953125 78.1376953125 c 0,16,17
 34 199 34 199 90.7294921875 507.973632812 c 0,18,19
 115 638 115 638 165.82421875 719.583984375 c 0,20,21
 198 771 198 771 226.982459438 764.521064643 c 128,-1,22
 256 758 256 758 254.602541804 733.403818135 c 0,23,24
 253 709 253 709 235.898180736 664.776901037 c 0,25,26
 188 541 188 541 233.616210938 461.3984375 c 0,27,28
 313 322 313 322 646.370117188 307.243164062 c 1,29,-1
 918.266601562 302.353515625 l 1,30,-1
 1200.72851562 306.810546875 l 2,31,32
 1707 315 1707 315 1714.14453125 440.984375 c 1,33,34
 1586 404 1586 404 1461.25390625 419.49609375 c 0,35,36
 1337 435 1337 435 1274.3984375 524.40234375 c 0,37,38
 1212 614 1212 614 1225.40332031 720.403320312 c 0,39,40
 1253 930 1253 930 1362.00585938 1036.45800781 c 0,41,42
 1471 1142 1471 1142 1600 1104 c 128,-1,43
 1729 1066 1729 1066 1800.22753906 873.4453125 c 0,44,45
 1894.30699316 619.113348722 1894.30699316 619.113348722 1832.32910156 364.97265625 c 24,10,11
EndSplineSet
Substitution2: "'init' Initial Forms in Arabic lookup 13 subtable" uni06A1.init
Substitution2: "'medi' Medial Forms in Arabic lookup 11 subtable" uni06A1.medi
Substitution2: "'fina' Terminal Forms in Arabic lookup 9 subtable" uni06A1.fina
EndChar

StartChar: uni06A9
Encoding: 1705 1705 78
Width: 2004
VWidth: 3095
GlyphClass: 2
Flags: W
AnchorPoint: "Anchor-10" 604.743 1478.28 basechar 0
AnchorPoint: "Anchor-7" 483.585 -324.717 basechar 0
LayerCount: 2
Fore
SplineSet
1729.71972656 454.444335938 m 0,0,1
 1730 273 1730 273 1549 143.712890625 c 4,2,3
 1355 6 1355 6 866.890625 -0.84375 c 0,4,5
 434 -7 434 -7 273.625976562 83.3896484375 c 0,6,7
 50 209 50 209 105.733398438 507.997070312 c 0,8,9
 130 638 130 638 180.82421875 719.583984375 c 0,10,11
 213 771 213 771 241.982421875 764.521484375 c 128,-1,12
 271 758 271 758 269.602539062 733.404296875 c 0,13,14
 268 709 268 709 256.541015625 679.181640625 c 0,15,16
 203 541 203 541 248.614257812 461.403320312 c 0,17,18
 327 324 327 324 678.73828125 306.813476562 c 0,19,20
 953 294 953 294 1221.5 318 c 128,-1,21
 1490 342 1490 342 1567.63085938 451.5546875 c 1,22,23
 1525 543 1525 543 1408 660 c 0,24,25
 1219 850 1219 850 1067.03515625 919.067382812 c 1,26,27
 1040.96163077 1243.4773947 1040.96163077 1243.4773947 1201.734375 1308.23144531 c 2,28,-1
 1953.88378906 1611.17285156 l 1,29,-1
 1947.54589844 1584.80566406 l 2,30,31
 1904 1404 1904 1404 1864.58203125 1319.0546875 c 1,32,-1
 1273.33007812 1092.578125 l 1,33,34
 1729 718 1729 718 1729.71972656 454.444335938 c 0,0,1
EndSplineSet
Substitution2: "'init' Initial Forms in Arabic lookup 13 subtable" uniFB90
Substitution2: "'medi' Medial Forms in Arabic lookup 11 subtable" uniFB91
Substitution2: "'fina' Terminal Forms in Arabic lookup 9 subtable" uniFB8F
EndChar

StartChar: afii57514
Encoding: 1722 1722 80
Width: 1483
VWidth: 3095
GlyphClass: 2
Flags: W
LayerCount: 2
Fore
SplineSet
1230.6640625 28.552734375 m 1,0,1
 1227 103 1227 103 1095.671875 442.462890625 c 1,2,-1
 1272.25683594 618.52734375 l 1,3,-1
 1281.44335938 594.703125 l 2,4,5
 1343 435 1343 435 1364.05371094 287.903320312 c 0,6,7
 1386 140 1386 140 1382.44628906 94.380859375 c 0,8,9
 1342 -500 1342 -500 647.713867188 -500.022460938 c 0,10,11
 356 -500 356 -500 213.384765625 -350.940429688 c 0,12,13
 70 -202 70 -202 105.760742188 47.9521484375 c 0,14,15
 122 162 122 162 195.774414062 289.115234375 c 0,16,17
 247 377 247 377 285.514648438 363.05078125 c 0,18,19
 324.69921875 349.106445312 324.69921875 349.106445312 307.157226562 305.484375 c 2,20,-1
 283.169921875 245.834960938 l 2,21,22
 220 89 220 89 269.111328125 -11.58203125 c 0,23,24
 363 -204 363 -204 671.162109375 -195.158203125 c 0,25,26
 1146 -182 1146 -182 1230.6640625 28.552734375 c 1,0,1
EndSplineSet
Substitution2: "'init' Initial Forms in Arabic lookup 13 subtable" uni06BA.init
Substitution2: "'medi' Medial Forms in Arabic lookup 11 subtable" uni06BA.medi
Substitution2: "'fina' Terminal Forms in Arabic lookup 9 subtable" uniFB9F
EndChar

StartChar: uni06F4
Encoding: 1780 1780 87
Width: 1275
VWidth: 2567
GlyphClass: 2
Flags: W
LayerCount: 2
Fore
SplineSet
572.618164062 1068.52050781 m 1,0,1
 679 975 679 975 896.875976562 974.02734375 c 0,2,3
 1052 973 1052 973 1137.52539062 1016.24902344 c 0,4,5
 1161 1028 1161 1028 1169.11035156 1012.23730469 c 0,6,7
 1177 996 1177 996 1171.57910156 979.80859375 c 0,8,9
 1095 738 1095 738 846.676757812 736.537109375 c 0,10,11
 664 735 664 735 548.610351562 810.932617188 c 1,12,13
 610 554 610 554 610.364257812 291.426757812 c 0,14,15
 611.000976562 16.7177734375 611.000976562 16.7177734375 508.537109375 -5.09765625 c 2,16,-1
 487.506835938 -9.5751953125 l 1,17,-1
 486.853515625 13.9111328125 l 2,18,19
 479 308 479 308 346.739257812 775.392578125 c 0,20,21
 310 906 310 906 118.133789062 1343.73144531 c 1,22,-1
 296.614257812 1512.51464844 l 1,23,-1
 460.787109375 1110.09472656 l 1,24,25
 515 1317 515 1317 610.532226562 1413.74609375 c 0,26,27
 706 1510 706 1510 862.766601562 1507.69335938 c 0,28,29
 1002 1505 1002 1505 1104.01269531 1309.26757812 c 0,30,31
 1127 1265 1127 1265 1098.10351562 1253.70117188 c 0,32,33
 1085 1249 1085 1249 1072.13476562 1257.01464844 c 0,34,35
 1009 1298 1009 1298 917.251953125 1297.28320312 c 0,36,37
 641 1297 641 1297 572.618164062 1068.52050781 c 1,0,1
EndSplineSet
EndChar

StartChar: uni06F5
Encoding: 1781 1781 88
Width: 1330
VWidth: 2633
GlyphClass: 2
Flags: W
LayerCount: 2
Fore
SplineSet
669.213867188 514.349609375 m 0,0,1
 780.338867188 239.02734375 780.338867188 239.02734375 989.395507812 290.559570312 c 4,2,3
 1121 323 1121 323 1046.04296875 526.92578125 c 4,4,5
 1007.41992188 635.11328125 1007.41992188 635.11328125 879.376953125 810.026367188 c 0,6,7
 774 955 774 955 649 1082 c 1,8,9
 260 582 260 582 251.815429688 423.95703125 c 0,10,11
 248 354 248 354 273.711914062 324.100585938 c 0,12,13
 306 286 306 286 366.508789062 282.874023438 c 0,14,15
 506 275 506 275 625 512 c 24,16,17
 636 534 636 534 648 534 c 0,18,19
 662 534 662 534 669.213867188 514.349609375 c 0,0,1
497.83203125 1245.234375 m 1,20,-1
 619.872070312 1482.65234375 l 1,21,22
 667 1435 667 1435 699.37109375 1401.20410156 c 0,23,24
 1261 833 1261 833 1201.62597656 323.302734375 c 0,25,26
 1163 -9 1163 -9 902.381835938 -0.80078125 c 0,27,28
 731 5 731 5 648.241210938 164.880859375 c 1,29,30
 562 -1 562 -1 372.231445312 -1.439453125 c 0,31,32
 130 -1 130 -1 129.333984375 329.056640625 c 0,33,34
 129 615 129 615 540.275390625 1207.04882812 c 1,35,-1
 497.83203125 1245.234375 l 1,20,-1
EndSplineSet
EndChar

StartChar: uni06F6
Encoding: 1782 1782 89
Width: 1180
VWidth: 2810
GlyphClass: 2
Flags: W
LayerCount: 2
Fore
SplineSet
484.994140625 679.517578125 m 1,0,1
 176 725 176 725 130.74609375 927.83984375 c 0,2,3
 94 1092 94 1092 233.536132812 1287.453125 c 0,4,5
 340 1437 340 1437 475.596679688 1476.30175781 c 0,6,7
 719 1546 719 1546 838.639648438 1294.11425781 c 0,8,9
 861 1247 861 1247 840.411132812 1233.09179688 c 0,10,11
 832 1227 832 1227 751.513671875 1234.29980469 c 0,12,13
 671 1241 671 1241 599.6796875 1230.66113281 c 0,14,15
 311 1186 311 1186 299.022460938 1028.80371094 c 0,16,17
 285 839 285 839 666.478515625 865.6484375 c 0,18,19
 786.603515625 873.97265625 786.603515625 873.97265625 1044.23632812 991.9765625 c 2,20,-1
 1073.18359375 1005.23535156 l 1,21,-1
 999.052734375 683.397460938 l 1,22,23
 568 554 568 554 361.897460938 209.037109375 c 0,24,25
 272 59 272 59 231.8046875 -12.26953125 c 1,26,-1
 215.80078125 -1.7001953125 l 2,27,28
 151.026367188 41.078125 151.026367188 41.078125 228 269 c 4,29,30
 306 498 306 498 484.994140625 679.517578125 c 1,0,1
EndSplineSet
EndChar

StartChar: uniFB8F
Encoding: 64399 64399 104
Width: 2223
VWidth: 3095
GlyphClass: 2
Flags: W
AnchorPoint: "Anchor-10" 492.32 1527.2 basechar 0
AnchorPoint: "Anchor-7" 580.339 -339.343 basechar 0
LayerCount: 2
Fore
SplineSet
248.614257812 461.403320312 m 0,0,1
 328 323 328 323 678.73828125 306.813476562 c 0,2,3
 986 292 986 292 1246 318 c 0,4,5
 1478 342 1478 342 1560.63085938 457.5546875 c 1,6,7
 1560 509 1560 509 1405.92773438 660.62890625 c 0,8,9
 1202 862 1202 862 1067.03515625 919.067382812 c 1,10,11
 1040.96163077 1243.4773947 1040.96163077 1243.4773947 1201.734375 1308.23144531 c 2,12,-1
 1953.88378906 1611.17285156 l 1,13,-1
 1947.54589844 1584.80566406 l 2,14,15
 1904 1404 1904 1404 1864.58203125 1319.0546875 c 1,16,-1
 1273.24511719 1092.55566406 l 1,17,18
 1569 850 1569 850 1721.92675781 621.220703125 c 0,19,20
 1936.26719698 301.6015625 1936.26719698 301.6015625 2215.15722656 301.6015625 c 2,21,-1
 2233.57128906 301.6015625 l 1,22,-1
 2233.57128906 -0.61328125 l 1,23,-1
 2215.50878906 -0.61328125 l 2,24,25
 1894 -1 1894 -1 1695.26367188 344.001953125 c 1,26,27
 1584.04200897 9.60980540967 1584.04200897 9.60980540967 866.890625 -0.84375 c 4,28,29
 434 -7 434 -7 273.625976562 83.3896484375 c 0,30,31
 50 209 50 209 105.733398438 507.997070312 c 0,32,33
 130 638 130 638 180.82421875 719.583984375 c 0,34,35
 213 771 213 771 241.982421875 764.521484375 c 128,-1,36
 271 758 271 758 269.602539062 733.404296875 c 0,37,38
 268 709 268 709 250.8984375 664.77734375 c 0,39,40
 203 541 203 541 248.614257812 461.403320312 c 0,0,1
EndSplineSet
EndChar

StartChar: uniFB9F
Encoding: 64415 64415 112
Width: 1541
VWidth: 3095
GlyphClass: 2
Flags: W
AnchorPoint: "Anchor-10" 133.747 1021.47 basechar 0
AnchorPoint: "Anchor-7" -2.75098 -1021.45 basechar 0
LayerCount: 2
Fore
SplineSet
1513.203125 -0.7734375 m 2,0,1
 1402.75879388 -0.7734375 1402.75879388 -0.7734375 1351.171875 47.681640625 c 1,2,3
 1366 -303 1366 -303 1136.98339844 -466.734375 c 0,4,5
 957 -596 957 -596 648.284667969 -595.944335938 c 0,6,7
 340 -596 340 -596 196.864257812 -446.940429688 c 0,8,9
 54 -298 54 -298 89.2412109375 -48.0478515625 c 0,10,11
 105 66 105 66 179.254882812 193.115234375 c 0,12,13
 230 281 230 281 268.994140625 267.05078125 c 0,14,15
 288 260 288 260 293.799804688 243.647460938 c 0,16,17
 299 227 299 227 290.63671875 209.484375 c 1,18,-1
 266.649414062 149.834960938 l 2,19,20
 204 -7 204 -7 252.591796875 -107.58203125 c 0,21,22
 346 -300 346 -300 654.641601562 -291.158203125 c 0,23,24
 1129 -278 1129 -278 1214.14453125 -67.447265625 c 1,25,26
 1211 4 1211 4 1079.15234375 346.462890625 c 5,27,-1
 1256.83398438 523.844726562 l 1,28,-1
 1265.20214844 497.913085938 l 2,29,30
 1301 387 1301 387 1327.75683594 354.849609375 c 0,31,32
 1370.12723374 301.840820312 1370.12723374 301.840820312 1505.11035156 301.840820312 c 2,33,-1
 1551.50683594 301.840820312 l 1,34,-1
 1551.50683594 -0.7734375 l 1,35,-1
 1513.203125 -0.7734375 l 2,0,1
EndSplineSet
EndChar

StartChar: uniFBE8
Encoding: 64488 64488 115
Width: 646
VWidth: 3094
GlyphClass: 2
Flags: W
AnchorPoint: "Anchor-10" 351.903 1138.8 basechar 0
AnchorPoint: "Anchor-7" 311.241 -301.586 basechar 0
LayerCount: 2
Fore
SplineSet
365.13671875 369.793945312 m 1,0,1
 356.025605654 506.615480029 356.025605654 506.615480029 245.659179688 636.262695312 c 2,2,-1
 238.626953125 644.5234375 l 1,3,-1
 411.39453125 878.90234375 l 1,4,-1
 424.413085938 859.108398438 l 2,5,6
 534 693 534 693 545.887695312 506.147460938 c 0,7,8
 562 254 562 254 475.79296875 124.70703125 c 0,9,10
 392.257776449 -0.61328125 392.257776449 -0.61328125 69.46484375 -0.61328125 c 2,11,-1
 -10.919921875 -0.61328125 l 1,12,-1
 -10.919921875 301.454101562 l 1,13,-1
 80.982421875 302.509765625 l 2,14,15
 283 305 283 305 365.13671875 369.793945312 c 1,0,1
EndSplineSet
EndChar

StartChar: uniFBE9
Encoding: 64489 64489 116
Width: 781
VWidth: 3094
GlyphClass: 2
Flags: W
AnchorPoint: "Anchor-10" 464.864 1071.56 basechar 0
AnchorPoint: "Anchor-7" 356.36 -264.135 basechar 0
LayerCount: 2
Fore
SplineSet
387.79296875 518.813476562 m 2,0,1
 393.723485418 603.007755588 393.723485418 603.007755588 452.598632812 601.356445312 c 0,2,3
 511.050599173 599.99882477 511.050599173 599.99882477 516.0546875 526.221679688 c 2,4,-1
 522.318359375 433.874023438 l 2,5,6
 531.02623027 301.6015625 531.02623027 301.6015625 778.970703125 301.6015625 c 2,7,-1
 791.81640625 301.6015625 l 1,8,-1
 791.81640625 -0.61328125 l 1,9,-1
 768.943359375 -0.61328125 l 2,10,11
 559 -1 559 -1 462.44921875 166.227539062 c 1,12,13
 344.273917407 -0.61328125 344.273917407 -0.61328125 38.6953125 -0.61328125 c 2,14,-1
 -10.298828125 -0.61328125 l 5,15,-1
 -10.298828125 301.6015625 l 5,16,-1
 74.0234375 301.6015625 l 2,17,18
 372.521007046 302.000696661 372.521007046 302.000696661 381.654296875 431.6640625 c 2,19,-1
 387.79296875 518.813476562 l 2,0,1
EndSplineSet
EndChar

StartChar: uniFE73
Encoding: 65139 65139 124
Width: 741
VWidth: 2838
GlyphClass: 2
Flags: W
AnchorPoint: "Anchor-10" 273.907 1668.62 basechar 0
AnchorPoint: "Anchor-7" 273.907 -138.888 basechar 0
LayerCount: 2
Fore
SplineSet
376.771484375 461.758789062 m 2,0,1
 376.771484375 374.9140625 376.771484375 374.9140625 448.760742188 302.923828125 c 128,-1,2
 520.75 230.93359375 520.75 230.93359375 668.774414062 230.93359375 c 2,3,-1
 748.005859375 230.93359375 l 1,4,-1
 748.005859375 25.201171875 l 1,5,-1
 592.303710938 25.201171875 l 2,6,7
 405.24609375 25.201171875 405.24609375 25.201171875 288.143066406 142.305667415 c 128,-1,8
 171.040039062 259.410162955 171.040039062 259.410162955 171.040039062 445.075195312 c 2,9,-1
 171.040039062 479.810546875 l 1,10,-1
 376.771484375 479.810546875 l 1,11,-1
 376.771484375 461.758789062 l 2,0,1
EndSplineSet
EndChar

StartChar: uniFE8E
Encoding: 65166 65166 150
Width: 596
VWidth: 3062
GlyphClass: 2
Flags: W
AnchorPoint: "Anchor-10" 241.246 1727.71 basechar 0
AnchorPoint: "Anchor-7" 300.719 -275.132 basechar 0
LayerCount: 2
Fore
SplineSet
365.736328125 1547.13769531 m 6,0,1
 376 1356.40332031 376 1356.40332031 376 1113.5 c 4,2,3
 376 914 376 914 370.580078125 744.779296875 c 4,4,5
 365 576 365 576 366.192382812 528.4609375 c 4,6,7
 369 414 369 414 416.823242188 356.8125 c 4,8,9
 463.3359375 301.6015625 463.3359375 301.6015625 594.943359375 301.6015625 c 6,10,-1
 606.727539062 301.6015625 l 5,11,-1
 606.727539062 -0.61328125 l 5,12,-1
 593.861328125 -0.61328125 l 6,13,14
 374 -1 374 -1 287.455078125 102.672851562 c 4,15,16
 179.220703125 232.127929688 179.220703125 232.127929688 177.888671875 492.829101562 c 4,17,18
 174 1254 174 1254 120.719726562 1452.29296875 c 5,19,-1
 364.33203125 1573.234375 l 5,20,-1
 365.736328125 1547.13769531 l 6,0,1
EndSplineSet
EndChar

StartChar: uniFEA2
Encoding: 65186 65186 170
Width: 1361
VWidth: 3090
GlyphClass: 2
Flags: W
AnchorPoint: "Anchor-7" 437.808 -926.838 basechar 0
AnchorPoint: "Anchor-10" 645.443 1388.2 basechar 0
LayerCount: 2
Fore
SplineSet
879.231445312 365.606445312 m 5,0,1
 645 310 645 310 501.631835938 228.141601562 c 4,2,3
 224 70 224 70 225.559570312 -172.697265625 c 4,4,5
 227 -477 227 -477 915.454101562 -432.790039062 c 4,6,7
 1133 -419 1133 -419 1183.94824219 -412.8984375 c 4,8,9
 1235 -407 1235 -407 1247.046875 -409.7109375 c 4,10,11
 1266 -414 1266 -414 1245.01074219 -443.78125 c 4,12,13
 1113 -629 1113 -629 940.302734375 -720.953125 c 4,14,15
 908 -738 908 -738 780.48046875 -738 c 4,16,17
 417 -738 417 -738 256.935546875 -586.939453125 c 4,18,19
 102 -440 102 -440 102.01171875 -192.650390625 c 4,20,21
 103 236 103 236 510.548828125 418.404296875 c 5,22,23
 603 467 603 467 798.708007812 512.854492188 c 5,24,25
 734 533 734 533 608.583984375 577.879882812 c 4,26,27
 486 622 486 622 397.248046875 613.495117188 c 4,28,29
 276 602 276 602 184.455078125 474.157226562 c 4,30,31
 141.2109375 413.296875 141.2109375 413.296875 124.532226562 407.592773438 c 6,32,-1
 115.537109375 404.516601562 l 5,33,34
 92 429 92 429 100.844726562 460.41015625 c 4,35,36
 184 754 184 754 257.686523438 823.060546875 c 4,37,38
 326 887 326 887 447.484375 894.928710938 c 4,39,40
 567 903 567 903 758.758789062 802.963867188 c 4,41,42
 950 703 950 703 1276.05859375 672.606445312 c 5,43,-1
 1225.08496094 411.357421875 l 5,44,45
 1104 405 1104 405 1005 389.776367188 c 5,46,47
 1013.03613281 301.6015625 1013.03613281 301.6015625 1343.21777344 301.6015625 c 6,48,-1
 1370.99804688 301.6015625 l 5,49,-1
 1370.99804688 -0.61328125 l 5,50,-1
 1352.45605469 -0.61328125 l 6,51,52
 900 -1 900 -1 879.231445312 365.606445312 c 5,0,1
EndSplineSet
EndChar

StartChar: uniFEA3
Encoding: 65187 65187 171
Width: 1460
VWidth: 3095
GlyphClass: 2
Flags: W
AnchorPoint: "Anchor-10" 479 1273.89 basechar 0
AnchorPoint: "Anchor-7" 517.829 -268.249 basechar 0
LayerCount: 2
Fore
SplineSet
1312.79199219 427.534179688 m 2,0,1
 1149 431 1149 431 578.369140625 145.760742188 c 0,2,3
 287.236723796 -0.61328125 287.236723796 -0.61328125 21.4189453125 -0.61328125 c 2,4,-1
 -10.3896484375 -0.61328125 l 1,5,-1
 -10.3896484375 301.6015625 l 1,6,-1
 8.5947265625 301.6015625 l 2,7,8
 300.21093605 302.005837732 300.21093605 302.005837732 528 367 c 0,9,10
 896 472 896 472 959.1484375 486.272460938 c 1,11,12
 861 511 861 511 647.682617188 602.615234375 c 0,13,14
 512 661 512 661 394.21529 649.673823471 c 0,15,16
 277 639 277 639 190.35546875 506.840820312 c 0,17,18
 140 431 140 431 114.807617188 449.915039062 c 0,19,20
 101 460 101 460 106.494909629 495.259324061 c 0,21,22
 125 618 125 618 153.684570312 688.556640625 c 0,23,24
 198 797 198 797 267.109375 860.231445312 c 0,25,26
 336 924 336 924 457.016601562 930.93359375 c 128,-1,27
 578 938 578 938 796.311523438 824.430664062 c 0,28,29
 1014 711 1014 711 1359.81738281 676.686523438 c 1,30,-1
 1325.44238281 427.282226562 l 1,31,-1
 1312.79199219 427.534179688 l 2,0,1
EndSplineSet
EndChar

StartChar: uniFEA4
Encoding: 65188 65188 172
Width: 1471
VWidth: 3095
GlyphClass: 2
Flags: W
AnchorPoint: "Anchor-10" 471.957 1394.26 basechar 0
AnchorPoint: "Anchor-7" 613.723 -305.325 basechar 0
LayerCount: 2
Fore
SplineSet
1073 366.80859375 m 1,0,1
 1077.02459165 301.6015625 1077.02459165 301.6015625 1313.6328125 301.6015625 c 2,2,-1
 1481.55371094 301.6015625 l 1,3,-1
 1481.55371094 -0.61328125 l 1,4,-1
 1303.94042969 -0.61328125 l 2,5,6
 1072 -1 1072 -1 995.969726562 179.734375 c 0,7,8
 969 244 969 244 963 323.11328125 c 5,9,10
 806 267 806 267 578.369140625 145.760742188 c 0,11,12
 307.2092349 -0.61328125 307.2092349 -0.61328125 21.4189453125 -0.61328125 c 2,13,-1
 -10.3896484375 -0.61328125 l 5,14,-1
 -10.3896484375 301.6015625 l 5,15,-1
 8.5947265625 301.6015625 l 2,16,17
 298 302 298 302 528 367 c 0,18,19
 896 472 896 472 959.1484375 486.272460938 c 1,20,21
 861 511 861 511 647.682617188 602.615234375 c 0,22,23
 512 661 512 661 394.21529 649.673823471 c 0,24,25
 277 639 277 639 190.35546875 506.840820312 c 0,26,27
 140 431 140 431 114.807617188 449.915039062 c 0,28,29
 101 460 101 460 106.494909629 495.259324061 c 0,30,31
 125 618 125 618 153.684570312 688.556640625 c 0,32,33
 198 797 198 797 267.109375 860.231445312 c 0,34,35
 336 924 336 924 457.016601562 930.93359375 c 128,-1,36
 578 938 578 938 796.311523438 824.430664062 c 0,37,38
 1014 711 1014 711 1359.81738281 676.686523438 c 1,39,-1
 1325.44238281 427.282226562 l 1,40,-1
 1312.79199219 427.534179688 l 2,41,42
 1240 429 1240 429 1073 366.80859375 c 1,0,1
EndSplineSet
EndChar

StartChar: uniFEAA
Encoding: 65194 65194 178
Width: 1180
VWidth: 3088
GlyphClass: 2
Flags: W
AnchorPoint: "Anchor-10" 671.019 1398.24 basechar 0
AnchorPoint: "Anchor-7" 432.016 -254.475 basechar 0
LayerCount: 2
Fore
SplineSet
842 239 m 1,0,1
 788 80 l 1,2,3
 681 -7 681 -7 475.358398438 -11.32421875 c 0,4,5
 339 -14 339 -14 237.572265625 25.4384765625 c 0,6,7
 34 105 34 105 105.189453125 464.206054688 c 1,8,9
 158 484 158 484 210.119140625 465.256835938 c 5,10,11
 198 378 198 378 217.4453125 352.762695312 c 0,12,13
 267 287 267 287 412.44921875 287.000976562 c 1,14,15
 595 280 595 280 716.319335938 333.821289062 c 0,16,17
 748 348 748 348 764 372 c 1,18,-1
 752.985351562 408.989257812 l 2,19,-1
 598.734375 931.51953125 l 1,20,-1
 773.544921875 1103.19238281 l 1,21,-1
 935.995117188 503.193359375 l 2,22,23
 991.108930076 301.6015625 991.108930076 301.6015625 1178.53515625 301.6015625 c 2,24,-1
 1190.18359375 301.6015625 l 1,25,-1
 1190.18359375 -0.61328125 l 1,26,-1
 1164.49707031 -0.61328125 l 2,27,28
 950 -1 950 -1 842 239 c 1,0,1
EndSplineSet
EndChar

StartChar: uniFEAE
Encoding: 65198 65198 182
Width: 1058
VWidth: 3094
GlyphClass: 2
Flags: W
AnchorPoint: "Anchor-10" 647.202 896.06 basechar 0
AnchorPoint: "Anchor-7" 489.002 -887.558 basechar 0
LayerCount: 2
Fore
SplineSet
1055.89941406 -0.61328125 m 2,0,1
 920.502860605 -0.61328125 920.502860605 -0.61328125 855.018554688 50.326171875 c 1,2,3
 788 -318 788 -318 557.612304688 -497.52734375 c 0,4,5
 499 -543 499 -543 453.244140625 -541.654296875 c 0,6,7
 158 -533 158 -533 20.5 -474.5 c 0,8,9
 -4 -464 -4 -464 18.5 -447.5 c 0,10,11
 33 -437 33 -437 71.107421875 -421.880859375 c 0,12,13
 673 -183 673 -183 703.071289062 104.799804688 c 0,14,15
 709 161 709 161 650 231.5 c 128,-1,16
 591 302 591 302 540.008789062 366.79296875 c 5,17,-1
 728.334960938 572.827148438 l 1,18,-1
 740.1484375 548.19140625 l 2,19,20
 789 447 789 447 833.497070312 378.643554688 c 0,21,22
 884.262543421 301.6015625 884.262543421 301.6015625 1056.50195312 301.6015625 c 2,23,-1
 1068.77441406 301.6015625 l 1,24,-1
 1068.77441406 -0.61328125 l 1,25,-1
 1055.89941406 -0.61328125 l 2,0,1
EndSplineSet
PairPos2: "'kern' Horizontal Kerning lookup 15-4" uni0621 dx=-184 dy=0 dh=-184 dv=0 dx=0 dy=0 dh=0 dv=0
PairPos2: "'kern' Horizontal Kerning lookup 15-3" uni0648 dx=-90 dy=0 dh=-90 dv=0 dx=0 dy=0 dh=0 dv=0
PairPos2: "'kern' Horizontal Kerning lookup 15-1" uni0644 dx=-108 dy=0 dh=-108 dv=0 dx=0 dy=0 dh=0 dv=0
PairPos2: "'kern' Horizontal Kerning lookup 15-1" uni0642 dx=-108 dy=0 dh=-108 dv=0 dx=0 dy=0 dh=0 dv=0
PairPos2: "'kern' Horizontal Kerning lookup 15-1" uni0632 dx=-86 dy=0 dh=-86 dv=0 dx=0 dy=0 dh=0 dv=0
PairPos2: "'kern' Horizontal Kerning lookup 15-1" uni0631 dx=-86 dy=0 dh=-86 dv=0 dx=0 dy=0 dh=0 dv=0
PairPos2: "'kern' Horizontal Kerning lookup 15-1" uniFB8A dx=-86 dy=0 dh=-86 dv=0 dx=0 dy=0 dh=0 dv=0
PairPos2: "'kern' Horizontal Kerning lookup 15-1" afii57508 dx=-86 dy=0 dh=-86 dv=0 dx=0 dy=0 dh=0 dv=0
PairPos2: "'kern' Horizontal Kerning lookup 15-1" uniFB7C dx=-108 dy=0 dh=-108 dv=0 dx=0 dy=0 dh=0 dv=0
PairPos2: "'kern' Horizontal Kerning lookup 15-1" uni06CC dx=-108 dy=0 dh=-108 dv=0 dx=0 dy=0 dh=0 dv=0
PairPos2: "'kern' Horizontal Kerning lookup 15-1" uniFEEB dx=-184 dy=0 dh=-184 dv=0 dx=0 dy=0 dh=0 dv=0
PairPos2: "'kern' Horizontal Kerning lookup 15-1" uniFEDF dx=-184 dy=0 dh=-184 dv=0 dx=0 dy=0 dh=0 dv=0
PairPos2: "'kern' Horizontal Kerning lookup 15-1" uniFB90 dx=-184 dy=0 dh=-184 dv=0 dx=0 dy=0 dh=0 dv=0
PairPos2: "'kern' Horizontal Kerning lookup 15-1" uni06A9 dx=-184 dy=0 dh=-184 dv=0 dx=0 dy=0 dh=0 dv=0
PairPos2: "'kern' Horizontal Kerning lookup 15-1" uni0649 dx=-108 dy=0 dh=-108 dv=0 dx=0 dy=0 dh=0 dv=0
PairPos2: "'kern' Horizontal Kerning lookup 15-1" uni0647 dx=-184 dy=0 dh=-184 dv=0 dx=0 dy=0 dh=0 dv=0
PairPos2: "'kern' Horizontal Kerning lookup 15-1" uniFEE7 dx=-184 dy=0 dh=-184 dv=0 dx=0 dy=0 dh=0 dv=0
PairPos2: "'kern' Horizontal Kerning lookup 15-1" uniFEE3 dx=-184 dy=0 dh=-184 dv=0 dx=0 dy=0 dh=0 dv=0
PairPos2: "'kern' Horizontal Kerning lookup 15-1" uni0645 dx=-184 dy=0 dh=-184 dv=0 dx=0 dy=0 dh=0 dv=0
PairPos2: "'kern' Horizontal Kerning lookup 15-1" uniFEDB dx=-184 dy=0 dh=-184 dv=0 dx=0 dy=0 dh=0 dv=0
PairPos2: "'kern' Horizontal Kerning lookup 15-1" uniFED7 dx=-184 dy=0 dh=-184 dv=0 dx=0 dy=0 dh=0 dv=0
PairPos2: "'kern' Horizontal Kerning lookup 15-1" uniFED3 dx=-184 dy=0 dh=-184 dv=0 dx=0 dy=0 dh=0 dv=0
PairPos2: "'kern' Horizontal Kerning lookup 15-1" uni0641 dx=-184 dy=0 dh=-184 dv=0 dx=0 dy=0 dh=0 dv=0
PairPos2: "'kern' Horizontal Kerning lookup 15-1" uniFECF dx=-184 dy=0 dh=-184 dv=0 dx=0 dy=0 dh=0 dv=0
PairPos2: "'kern' Horizontal Kerning lookup 15-1" uniFECB dx=-184 dy=0 dh=-184 dv=0 dx=0 dy=0 dh=0 dv=0
PairPos2: "'kern' Horizontal Kerning lookup 15-1" uniFEC7 dx=-184 dy=0 dh=-184 dv=0 dx=0 dy=0 dh=0 dv=0
PairPos2: "'kern' Horizontal Kerning lookup 15-1" uni0638 dx=-184 dy=0 dh=-184 dv=0 dx=0 dy=0 dh=0 dv=0
PairPos2: "'kern' Horizontal Kerning lookup 15-1" uniFEC3 dx=-184 dy=0 dh=-184 dv=0 dx=0 dy=0 dh=0 dv=0
PairPos2: "'kern' Horizontal Kerning lookup 15-1" uni0637 dx=-184 dy=0 dh=-184 dv=0 dx=0 dy=0 dh=0 dv=0
PairPos2: "'kern' Horizontal Kerning lookup 15-1" uniFEBF dx=-184 dy=0 dh=-184 dv=0 dx=0 dy=0 dh=0 dv=0
PairPos2: "'kern' Horizontal Kerning lookup 15-1" uni0636 dx=-184 dy=0 dh=-184 dv=0 dx=0 dy=0 dh=0 dv=0
PairPos2: "'kern' Horizontal Kerning lookup 15-1" uniFEBB dx=-184 dy=0 dh=-184 dv=0 dx=0 dy=0 dh=0 dv=0
PairPos2: "'kern' Horizontal Kerning lookup 15-1" uni0635 dx=-184 dy=0 dh=-184 dv=0 dx=0 dy=0 dh=0 dv=0
PairPos2: "'kern' Horizontal Kerning lookup 15-1" uniFEB7 dx=-184 dy=0 dh=-184 dv=0 dx=0 dy=0 dh=0 dv=0
PairPos2: "'kern' Horizontal Kerning lookup 15-1" uni0634 dx=-184 dy=0 dh=-184 dv=0 dx=0 dy=0 dh=0 dv=0
PairPos2: "'kern' Horizontal Kerning lookup 15-1" uniFEB3 dx=-184 dy=0 dh=-184 dv=0 dx=0 dy=0 dh=0 dv=0
PairPos2: "'kern' Horizontal Kerning lookup 15-1" uni0633 dx=-184 dy=0 dh=-184 dv=0 dx=0 dy=0 dh=0 dv=0
PairPos2: "'kern' Horizontal Kerning lookup 15-1" uni0630 dx=-184 dy=0 dh=-184 dv=0 dx=0 dy=0 dh=0 dv=0
PairPos2: "'kern' Horizontal Kerning lookup 15-1" uni062F dx=-184 dy=0 dh=-184 dv=0 dx=0 dy=0 dh=0 dv=0
PairPos2: "'kern' Horizontal Kerning lookup 15-1" uniFEA7 dx=-184 dy=0 dh=-184 dv=0 dx=0 dy=0 dh=0 dv=0
PairPos2: "'kern' Horizontal Kerning lookup 15-1" uniFEA3 dx=-184 dy=0 dh=-184 dv=0 dx=0 dy=0 dh=0 dv=0
PairPos2: "'kern' Horizontal Kerning lookup 15-1" uniFE9F dx=-184 dy=0 dh=-184 dv=0 dx=0 dy=0 dh=0 dv=0
PairPos2: "'kern' Horizontal Kerning lookup 15-1" uniFE9B dx=-184 dy=0 dh=-184 dv=0 dx=0 dy=0 dh=0 dv=0
PairPos2: "'kern' Horizontal Kerning lookup 15-1" uni062B dx=-184 dy=0 dh=-184 dv=0 dx=0 dy=0 dh=0 dv=0
PairPos2: "'kern' Horizontal Kerning lookup 15-1" uniFE97 dx=-184 dy=0 dh=-184 dv=0 dx=0 dy=0 dh=0 dv=0
PairPos2: "'kern' Horizontal Kerning lookup 15-1" uni062A dx=-184 dy=0 dh=-184 dv=0 dx=0 dy=0 dh=0 dv=0
PairPos2: "'kern' Horizontal Kerning lookup 15-1" uni0629 dx=-184 dy=0 dh=-184 dv=0 dx=0 dy=0 dh=0 dv=0
PairPos2: "'kern' Horizontal Kerning lookup 15-1" uni0628 dx=-184 dy=0 dh=-184 dv=0 dx=0 dy=0 dh=0 dv=0
PairPos2: "'kern' Horizontal Kerning lookup 15-1" uni0627 dx=-205 dy=0 dh=-205 dv=0 dx=0 dy=0 dh=0 dv=0
PairPos2: "'kern' Horizontal Kerning lookup 15-1" uni0622 dx=-205 dy=0 dh=-205 dv=0 dx=0 dy=0 dh=0 dv=0
PairPos2: "'kern' Horizontal Kerning lookup 15-1" uniFB94 dx=-184 dy=0 dh=-184 dv=0 dx=0 dy=0 dh=0 dv=0
PairPos2: "'kern' Horizontal Kerning lookup 15-1" afii57509 dx=-184 dy=0 dh=-184 dv=0 dx=0 dy=0 dh=0 dv=0
PairPos2: "'kern' Horizontal Kerning lookup 15-1" uniFB56 dx=-184 dy=0 dh=-184 dv=0 dx=0 dy=0 dh=0 dv=0
PairPos2: "'kern' Horizontal Kerning lookup 15-1" afii57506 dx=-184 dy=0 dh=-184 dv=0 dx=0 dy=0 dh=0 dv=0
EndChar

StartChar: uniFEB2
Encoding: 65202 65202 186
Width: 2683
VWidth: 3095
GlyphClass: 2
Flags: W
AnchorPoint: "Anchor-10" 775.433 1106.98 basechar 0
AnchorPoint: "Anchor-7" 446.836 -912.576 basechar 0
LayerCount: 2
Fore
SplineSet
1230.65917969 -67.435546875 m 1,0,1
 1227 4 1227 4 1095.67578125 346.467773438 c 5,2,-1
 1273.18066406 523.63671875 l 1,3,-1
 1281.68261719 498.034179688 l 2,4,5
 1353 284 1353 284 1567.58789062 291.358398438 c 0,6,7
 1728.45570854 297.016027007 1728.45570854 297.016027007 1740.16015625 424.443359375 c 2,8,-1
 1743.16992188 457.2109375 l 1,9,10
 1751 539 1751 539 1802.30078125 539.733398438 c 0,11,12
 1864 540 1864 540 1871.33398438 465.696289062 c 1,13,-1
 1876.72949219 434.560546875 l 2,14,15
 1899 304 1899 304 2057.63769531 303.15625 c 0,16,17
 2231.75842429 302.001601963 2231.75842429 302.001601963 2242.046875 438.614257812 c 2,18,-1
 2246.609375 499.196289062 l 2,19,20
 2253 581 2253 581 2305.828125 581.713867188 c 0,21,22
 2365.87188276 581.999390769 2365.87188276 581.999390769 2374.80566406 507.211914062 c 2,23,-1
 2382.75097656 440.69921875 l 2,24,25
 2399.00102966 301.991210938 2399.00102966 301.991210938 2649.61425781 301.991210938 c 2,26,-1
 2693.13183594 301.991210938 l 1,27,-1
 2693.13183594 -0.771484375 l 1,28,-1
 2658.484375 -0.771484375 l 2,29,30
 2423 -1 2423 -1 2313 191.439453125 c 1,31,32
 2222 3 2222 3 2095.30957031 -0.0830078125 c 0,33,34
 1911 -4 1911 -4 1823.55273438 182.044921875 c 1,35,36
 1731 6 1731 6 1579.87402344 0.142578125 c 0,37,38
 1453 -5 1453 -5 1381.07421875 56.408203125 c 1,39,40
 1384 23 1384 23 1382.47070312 -1.16796875 c 0,41,42
 1366 -596 1366 -596 647.71875 -596.022460938 c 0,43,44
 357 -596 357 -596 213.36328125 -447.064453125 c 0,45,46
 71 -299 71 -299 105.76171875 -48.0380859375 c 0,47,48
 122 66 122 66 195.805664062 193.16796875 c 0,49,50
 247 280 247 280 285.354492188 267.102539062 c 0,51,52
 305 261 305 261 310.450195312 243.739257812 c 0,53,54
 316 227 316 227 307.15234375 209.471679688 c 1,55,56
 220 -6 220 -6 269.125 -107.609375 c 0,57,58
 362 -300 362 -300 671.145507812 -291.158203125 c 0,59,60
 1145 -277 1145 -277 1230.65917969 -67.435546875 c 1,0,1
EndSplineSet
EndChar

StartChar: uniFEB3
Encoding: 65203 65203 187
Width: 1543
VWidth: 3095
GlyphClass: 2
Flags: W
AnchorPoint: "Anchor-10" 821.038 1191.69 basechar 0
AnchorPoint: "Anchor-7" 737.736 -295.012 basechar 0
LayerCount: 2
Fore
SplineSet
883.931640625 186.619140625 m 1,0,1
 788 -3 788 -3 635.890625 -3.4521484375 c 0,2,3
 444 -3 444 -3 367.8984375 177.08984375 c 1,4,5
 271.210413137 -0.61328125 271.210413137 -0.61328125 50.4267578125 -0.61328125 c 2,6,-1
 -10.287109375 -0.61328125 l 1,7,-1
 -10.287109375 301.6015625 l 1,8,-1
 36.2412109375 301.6015625 l 2,9,10
 285.392018164 302.000627896 285.392018164 302.000627896 296.83984375 406.717773438 c 2,11,-1
 300.73046875 442.306640625 l 2,12,13
 310 525 310 525 362.291015625 524.896484375 c 0,14,15
 418.611350678 524.999290566 418.611350678 524.999290566 428.967773438 450.046875 c 2,16,-1
 434.499023438 410.015625 l 2,17,18
 450 301 450 301 652.287109375 301.024414062 c 0,19,20
 806.539768662 301.000072626 806.539768662 301.000072626 821.967773438 448.650390625 c 2,21,-1
 826.82421875 495.127929688 l 2,22,23
 835 577 835 577 886.587890625 577.26171875 c 0,24,25
 929 578 929 578 941.5625 552.413085938 c 0,26,27
 953.816471472 527.374997087 953.816471472 527.374997087 955.055664062 502.040039062 c 2,28,-1
 956.575195312 470.973632812 l 2,29,30
 965 302 965 302 1138.81347656 301.921875 c 0,31,32
 1230 302 1230 302 1264.04785156 366.103515625 c 4,33,34
 1306 443 1306 443 1242.78710938 520.295898438 c 4,35,36
 1200 573 1200 573 1141.47949219 639.803710938 c 5,37,-1
 1314.32226562 874.303710938 l 1,38,-1
 1327.34375 854.530273438 l 2,39,40
 1438 686 1438 686 1449.51367188 500.39453125 c 0,41,42
 1465 250 1465 250 1377.64550781 119.4453125 c 0,43,44
 1294 -5 1294 -5 1154.40429688 -5.2001953125 c 0,45,46
 974 -5 974 -5 883.931640625 186.619140625 c 1,0,1
EndSplineSet
EndChar

StartChar: uniFEB4
Encoding: 65204 65204 188
Width: 1714
VWidth: 3094
GlyphClass: 2
Flags: W
AnchorPoint: "Anchor-7" 737.736 -295.012 basechar 0
AnchorPoint: "Anchor-10" 851.671 1079.44 basechar 0
LayerCount: 2
Fore
SplineSet
1375.67578125 589.693359375 m 0,0,1
 1430.79594552 589.002557345 1430.79594552 589.002557345 1437.47460938 514.791992188 c 2,2,-1
 1444.29199219 439.040039062 l 2,3,4
 1457.03694794 301.6015625 1457.03694794 301.6015625 1699.50976562 301.6015625 c 2,5,-1
 1724.88574219 301.6015625 l 5,6,-1
 1724.88574219 -0.61328125 l 5,7,-1
 1708.42578125 -0.61328125 l 2,8,9
 1446 -1 1446 -1 1370.01855469 184.795898438 c 1,10,11
 1303 4 1303 4 1132.91601562 -0.00390625 c 128,-1,12
 963 -4 963 -4 888.524414062 170.145507812 c 1,13,14
 824 4 824 4 635.518554688 0.4892578125 c 0,15,16
 451 -3 451 -3 361.7421875 170.873046875 c 1,17,18
 259.231172549 -0.61328125 259.231172549 -0.61328125 80.4423828125 -0.61328125 c 2,19,-1
 -10.2373046875 -0.61328125 l 1,20,-1
 -10.2373046875 301.579101562 l 1,21,-1
 66.2119140625 302.176757812 l 2,22,23
 281.036925311 304.000313443 281.036925311 304.000313443 294.21484375 399.313476562 c 2,24,-1
 298.07421875 427.227539062 l 2,25,26
 305 478 305 478 326.477539062 492.596679688 c 128,-1,27
 348 507 348 507 368.291992188 506.686523438 c 0,28,29
 416.53741672 504.025514097 416.53741672 504.025514097 426.442382812 443.046875 c 2,30,-1
 431.76953125 410.250976562 l 2,31,32
 449 303 449 303 626.979492188 300.98046875 c 0,33,34
 810.229053715 298.997521405 810.229053715 298.997521405 817.780273438 435.094726562 c 2,35,-1
 819.2109375 460.879882812 l 2,36,37
 824 543 824 543 882.631835938 543.37109375 c 0,38,39
 940.804588952 543.997894482 940.804588952 543.997894482 947.458007812 468.4140625 c 2,40,-1
 950.334960938 435.731445312 l 2,41,42
 963 289 963 289 1146.79980469 301.084960938 c 0,43,44
 1286.09197586 310.005890569 1286.09197586 310.005890569 1301.75976562 443.578125 c 2,45,-1
 1309.27441406 507.642578125 l 2,46,47
 1319 590 1319 590 1375.67578125 589.693359375 c 0,0,1
EndSplineSet
EndChar

StartChar: uniFEBA
Encoding: 65210 65210 194
Width: 2803
VWidth: 3095
GlyphClass: 2
Flags: W
AnchorPoint: "Anchor-7" 342.324 -832.391 basechar 0
AnchorPoint: "Anchor-10" 739.596 1012.72 basechar 0
LayerCount: 2
Fore
SplineSet
1659.51269531 304.96484375 m 1,0,-1
 1904.01074219 304.96484375 l 2,1,2
 2228 305 2228 305 2318.55859375 329.36328125 c 0,3,4
 2412.43945312 355.22265625 2412.43945312 355.22265625 2441.6171875 400.749023438 c 0,5,6
 2486 473 2486 473 2439.95996094 538.805664062 c 0,7,8
 2404.84765625 592.249023438 2404.84765625 592.249023438 2303.07617188 600.27734375 c 0,9,10
 2053 619 2053 619 1785 408 c 0,11,12
 1679 324 1679 324 1659.51269531 304.96484375 c 1,0,-1
2352 93 m 1,13,14
 2124.50967375 0.801277465471 2124.50967375 0.801277465471 1867.91601562 0.0107421875 c 2,15,-1
 1640.328125 -0.6904296875 l 2,16,17
 1479 -1 1479 -1 1379.57617188 67.0126953125 c 1,18,19
 1384 22 1384 22 1381.92675781 -1.591796875 c 0,20,21
 1330 -596 1330 -596 647.194335938 -596.022460938 c 0,22,23
 356 -596 356 -596 212.864257812 -446.940429688 c 0,24,25
 70 -298 70 -298 105.241210938 -48.0478515625 c 0,26,27
 121 66 121 66 195.254882812 193.115234375 c 0,28,29
 246 281 246 281 284.994140625 267.05078125 c 0,30,31
 304 260 304 260 309.799804688 243.647460938 c 0,32,33
 315 227 315 227 306.63671875 209.484375 c 1,34,35
 220 -7 220 -7 268.591796875 -107.58203125 c 0,36,37
 362 -300 362 -300 670.641601562 -291.158203125 c 0,38,39
 1145 -278 1145 -278 1230.14453125 -67.447265625 c 1,40,41
 1226 5 1226 5 1095.15234375 346.462890625 c 5,42,-1
 1272.79492188 523.797851562 l 1,43,-1
 1281.19335938 497.940429688 l 2,44,45
 1308 415 1308 415 1348 371 c 0,46,47
 1400 314 1400 314 1552.02441406 316.383789062 c 1,48,49
 1945 813 1945 813 2233 852 c 0,50,51
 2497 887 2497 887 2590.73144531 699.541992188 c 0,52,53
 2681 519 2681 519 2562.24707031 303 c 1,54,-1
 2828.85839844 303.33203125 l 1,55,-1
 2828.85839844 0.1171875 l 1,56,-1
 2675.06738281 0.1171875 l 2,57,58
 2474 0 2474 0 2352 93 c 1,13,14
EndSplineSet
EndChar

StartChar: uniFEBB
Encoding: 65211 65211 195
Width: 1838
VWidth: 3095
GlyphClass: 2
Flags: W
AnchorPoint: "Anchor-10" 732.562 1275.02 basechar 0
AnchorPoint: "Anchor-7" 778.585 -309.678 basechar 0
LayerCount: 2
Fore
SplineSet
658.504882812 315.34375 m 1,0,1
 1051 812 1051 812 1339.48046875 850.959960938 c 0,2,3
 1604 886 1604 886 1697.21191406 698.501953125 c 0,4,5
 1793 504 1793 504 1651.96679688 274.107421875 c 0,6,7
 1483.71700457 0.539860531131 1483.71700457 0.539860531131 974.396484375 -1.029296875 c 2,8,-1
 746.80859375 -1.73046875 l 2,9,10
 539 -2 539 -2 413.340820312 146.053710938 c 1,11,12
 291.321729311 -0.61328125 291.321729311 -0.61328125 23.2841796875 -0.61328125 c 2,13,14
 -10.845703125 -0.61328125 l 1,15,-1
 -10.845703125 301.6015625 l 1,16,-1
 7.75 301.6015625 l 2,17,18
 318.222303124 302.000285492 318.222303124 302.000285492 327.51953125 406.263671875 c 2,19,-1
 333.94921875 478.369140625 l 1,20,21
 334 572 334 572 397.415039062 571.891601562 c 0,22,23
 460 572 460 572 461.396484375 485.258789062 c 1,24,-1
 466.751953125 409.365234375 l 2,25,26
 473 317 473 317 658.504882812 315.34375 c 1,0,1
765.993164062 303.924804688 m 1,27,-1
 1010.49121094 303.924804688 l 2,28,29
 1334 304 1334 304 1425.0390625 328.323242188 c 0,30,31
 1519 354 1519 354 1548.09765625 399.708984375 c 0,32,33
 1591 470 1591 470 1546.44042969 537.765625 c 0,34,35
 1511 591 1511 591 1409.55664062 599.237304688 c 0,36,37
 1159 618 1159 618 891.48046875 406.959960938 c 0,38,39
 785 323 785 323 765.993164062 303.924804688 c 1,27,-1
EndSplineSet
EndChar

StartChar: uniFEBC
Encoding: 65212 65212 196
Width: 1912
VWidth: 3095
GlyphClass: 2
Flags: W
AnchorPoint: "Anchor-10" 868.304 1464.93 basechar 0
AnchorPoint: "Anchor-7" 847.56 -308.216 basechar 0
LayerCount: 2
Fore
SplineSet
767.977539062 303.924804688 m 1,0,-1
 1012.47558594 303.924804688 l 2,1,2
 1336.46484375 303.959960938 1336.46484375 303.959960938 1427.0234375 328.323242188 c 0,3,4
 1520.90429688 354.182617188 1520.90429688 354.182617188 1550.08203125 399.708984375 c 0,5,6
 1594.46484375 471.959960938 1594.46484375 471.959960938 1548.42480469 537.765625 c 0,7,8
 1513.3125 591.208984375 1513.3125 591.208984375 1411.54101562 599.237304688 c 0,9,10
 1161.46484375 617.959960938 1161.46484375 617.959960938 893.46484375 406.959960938 c 0,11,12
 787.46484375 322.959960938 787.46484375 322.959960938 767.977539062 303.924804688 c 1,0,-1
660.489257812 315.34375 m 1,13,14
 1053 812 1053 812 1341.46484375 850.959960938 c 4,15,16
 1605 886 1605 886 1699.19628906 698.501953125 c 4,17,18
 1789 517 1789 517 1670.71191406 301.959960938 c 1,19,-1
 1922.32324219 302.291992188 l 1,20,-1
 1922.32324219 0.0771484375 l 1,21,-1
 1783.53222656 0.0771484375 l 2,22,23
 1581 0 1581 0 1460.46484375 91.9599609375 c 1,24,25
 1147.29729599 -0.502723171975 1147.29729599 -0.502723171975 976.380859375 -1.029296875 c 2,26,-1
 748.79296875 -1.73046875 l 2,27,28
 544 -2 544 -2 413.346679688 151.061523438 c 1,29,30
 302.283173862 -0.61328125 302.283173862 -0.61328125 23.2841796875 -0.61328125 c 2,31,-1
 -10.845703125 -0.61328125 l 1,32,-1
 -10.845703125 301.6015625 l 1,33,-1
 7.7685546875 301.6015625 l 2,34,35
 318.646724898 301.999547738 318.646724898 301.999547738 327.520507812 404.283203125 c 2,36,-1
 333.951171875 478.40625 l 1,37,38
 335 572 335 572 397.415039062 571.891601562 c 0,39,40
 461 572 461 572 461.396484375 485.24609375 c 1,41,-1
 466.752929688 407.364257812 l 2,42,43
 474 308 474 308 660.489257812 315.34375 c 1,13,14
EndSplineSet
EndChar

StartChar: uniFEC2
Encoding: 65218 65218 202
Width: 1674
VWidth: 3095
GlyphClass: 2
Flags: W
AnchorPoint: "Anchor-7" 850.478 -308.193 basechar 0
AnchorPoint: "Anchor-10" 539.623 1759.34 basechar 0
LayerCount: 2
Fore
SplineSet
603.061523438 517.859375 m 5,0,1
 882 850 882 850 1154.42480469 853.169921875 c 4,2,3
 1380 856 1380 856 1461.63085938 689.7578125 c 4,4,5
 1547 516 1547 516 1432.38867188 301.8828125 c 5,6,-1
 1684 302.21484375 l 5,7,-1
 1684 0 l 5,8,-1
 1545.20898438 0 l 6,9,10
 1350 0 1350 0 1223 97.1416015625 c 5,11,12
 1041.05175781 0.02734375 1041.05175781 0.02734375 734.19140625 0.0107421875 c 6,13,-1
 540.098632812 0 l 5,14,-1
 280.956054688 -0.6259765625 l 5,15,16
 203.397460938 58.6962890625 203.397460938 58.6962890625 109.666015625 281.45703125 c 6,17,-1
 100.90625 302.275390625 l 5,18,-1
 409.78515625 302.276367188 l 5,19,20
 440 356 440 356 441.133789062 356.080078125 c 5,21,22
 441 513 441 513 417.856445312 909.189453125 c 4,23,24
 396 1284 396 1284 359.372070312 1460.13671875 c 5,25,-1
 597.65625 1573.27832031 l 5,26,-1
 675.352539062 1323.45410156 l 6,27,28
 697.947265625 1252.16699219 697.947265625 1252.16699219 646.525390625 1216.64648438 c 6,29,-1
 603.788085938 1187.125 l 5,30,-1
 603.061523438 517.859375 l 5,0,1
525.833984375 300.805664062 m 5,31,-1
 770.33203125 300.805664062 l 6,32,33
 1094.32128906 300.840820312 1094.32128906 300.840820312 1184.87988281 325.204101562 c 4,34,35
 1278.76074219 351.063476562 1278.76074219 351.063476562 1307.93847656 396.58984375 c 4,36,37
 1352.32128906 468.840820312 1352.32128906 468.840820312 1306.28125 534.646484375 c 4,38,39
 1271.16894531 588.08984375 1271.16894531 588.08984375 1169.39746094 596.118164062 c 4,40,41
 919.321289062 614.840820312 919.321289062 614.840820312 651.321289062 403.840820312 c 4,42,43
 545.321289062 319.840820312 545.321289062 319.840820312 525.833984375 300.805664062 c 5,31,-1
EndSplineSet
EndChar

StartChar: uniFEC3
Encoding: 65219 65219 203
Width: 1369
VWidth: 3095
GlyphClass: 2
Flags: W
AnchorPoint: "Anchor-7" 529.599 -306.84 basechar 0
AnchorPoint: "Anchor-10" 259.647 1768.66 basechar 0
LayerCount: 2
Fore
SplineSet
370.463867188 516.7421875 m 1,0,1
 651 849 651 849 921.827148438 852.052734375 c 0,2,3
 1147 855 1147 855 1229.03320312 688.640625 c 0,4,5
 1320 501 1320 501 1179.20507812 269.865234375 c 0,6,7
 1012.9520503 -1.07814386343 1012.9520503 -1.07814386343 501.59375 -1.1064453125 c 2,8,-1
 307.500976562 -1.1171875 l 1,9,-1
 -10.6416015625 -1.7431640625 l 1,10,-1
 -9.69140625 301.158203125 l 1,11,-1
 177.1875 301.159179688 l 1,12,13
 200 338 200 338 209.133789062 356.080078125 c 1,14,15
 209 492 209 492 185.856445312 909.189453125 c 0,16,17
 165 1277 165 1277 127.372070312 1460.13671875 c 1,18,-1
 365.65625 1573.27832031 l 1,19,-1
 443.352539062 1323.45410156 l 2,20,21
 465.947110647 1252.16686909 465.947110647 1252.16686909 414.525390625 1216.64648438 c 2,22,-1
 371.788085938 1187.125 l 1,23,-1
 370.463867188 516.7421875 l 1,0,1
293.236328125 299.688476562 m 1,24,-1
 537.734375 299.688476562 l 2,25,26
 861.723632812 299.723632812 861.723632812 299.723632812 952.282226562 324.086914062 c 0,27,28
 1046.16308594 349.946289062 1046.16308594 349.946289062 1075.34082031 395.47265625 c 0,29,30
 1119.72363281 467.723632812 1119.72363281 467.723632812 1073.68359375 533.529296875 c 0,31,32
 1038.57128906 586.97265625 1038.57128906 586.97265625 936.799804688 595.000976562 c 0,33,34
 686.723632812 613.723632812 686.723632812 613.723632812 418.723632812 402.723632812 c 0,35,36
 312.723632812 318.723632812 312.723632812 318.723632812 293.236328125 299.688476562 c 1,24,-1
EndSplineSet
EndChar

StartChar: uniFEC4
Encoding: 65220 65220 204
Width: 1439
VWidth: 3095
GlyphClass: 2
Flags: W
AnchorPoint: "Anchor-10" 251.76 1764.96 basechar 0
AnchorPoint: "Anchor-7" 640.75 -302.742 basechar 0
LayerCount: 2
Fore
SplineSet
370.463867188 516.7421875 m 1,0,1
 650 849 650 849 921.827148438 852.052734375 c 4,2,3
 1147 855 1147 855 1229.03320312 688.640625 c 4,4,5
 1313 517 1313 517 1197.38867188 301.8828125 c 1,6,-1
 1449 302.21484375 l 1,7,-1
 1449 0 l 1,8,-1
 1310.20898438 0 l 2,9,10
 1114 0 1114 0 989 95.400390625 c 1,11,12
 805.829895791 -1.08960717028 805.829895791 -1.08960717028 501.59375 -1.1064453125 c 2,13,-1
 307.500976562 -1.1171875 l 1,14,-1
 -10.6416015625 -1.7431640625 l 1,15,-1
 -9.69140625 301.158203125 l 1,16,-1
 177.1875 301.159179688 l 1,17,18
 193 329 193 329 209.133789062 356.080078125 c 1,19,20
 209 492 209 492 185.856445312 909.189453125 c 0,21,22
 165 1277 165 1277 127.372070312 1460.13671875 c 1,23,-1
 365.65625 1573.27832031 l 1,24,-1
 443.352539062 1323.45410156 l 2,25,26
 465.947110647 1252.16686909 465.947110647 1252.16686909 414.525390625 1216.64648438 c 2,27,-1
 371.788085938 1187.125 l 1,28,-1
 370.463867188 516.7421875 l 1,0,1
293.236328125 299.688476562 m 1,29,-1
 537.734375 299.688476562 l 2,30,31
 861.723632812 299.723632812 861.723632812 299.723632812 952.282226562 324.086914062 c 0,32,33
 1046.16308594 349.946289062 1046.16308594 349.946289062 1075.34082031 395.47265625 c 0,34,35
 1119.72363281 467.723632812 1119.72363281 467.723632812 1073.68359375 533.529296875 c 0,36,37
 1038.57128906 586.97265625 1038.57128906 586.97265625 936.799804688 595.000976562 c 0,38,39
 686.723632812 613.723632812 686.723632812 613.723632812 418.723632812 402.723632812 c 0,40,41
 312.723632812 318.723632812 312.723632812 318.723632812 293.236328125 299.688476562 c 1,29,-1
EndSplineSet
EndChar

StartChar: uniFECA
Encoding: 65226 65226 210
Width: 1350
VWidth: 3090
GlyphClass: 2
Flags: W
AnchorPoint: "Anchor-10" 682.268 1215.83 basechar 0
AnchorPoint: "Anchor-7" 447.243 -898.71 basechar 0
LayerCount: 2
Fore
SplineSet
210.51953125 -140.48046875 m 0,0,1
 211 -478 211 -478 902.451171875 -432.790039062 c 0,2,3
 1129 -418 1129 -418 1167.4296875 -413.623046875 c 0,4,5
 1206 -409 1206 -409 1220.62792969 -407.841796875 c 0,6,7
 1236.57850604 -406.907544186 1236.57850604 -406.907544186 1239.52539062 -414.885742188 c 0,8,9
 1244 -428 1244 -428 1233.61914062 -442.177734375 c 0,10,11
 1109 -625 1109 -625 926.654296875 -721 c 0,12,13
 894 -738 894 -738 766.48046875 -738 c 0,14,15
 408 -738 408 -738 242.756835938 -581.771972656 c 0,16,17
 88 -436 88 -436 88.01171875 -192.638671875 c 0,18,19
 89 317 89 317 666.131835938 465.947265625 c 1,20,21
 604 539 604 539 332.021484375 564.908203125 c 1,22,23
 327 661 327 661 331.986328125 712.692382812 c 1,24,25
 466 801 466 801 779.005032048 800.10780001 c 0,26,27
 1092 800 1092 800 1092.42382812 644.180664062 c 0,28,29
 1092 526 1092 526 858.11328125 386.966796875 c 1,30,31
 887.135459408 301.6015625 887.135459408 301.6015625 1321.56738281 301.6015625 c 2,32,-1
 1360.2578125 301.6015625 l 1,33,-1
 1360.2578125 -0.61328125 l 1,34,-1
 1330.80566406 -0.61328125 l 2,35,36
 780 -1 780 -1 744.936523438 306.446289062 c 1,37,38
 602 284 602 284 486.861328125 227.735351562 c 0,39,40
 211 92 211 92 210.51953125 -140.48046875 c 0,0,1
EndSplineSet
EndChar

StartChar: uniFECB
Encoding: 65227 65227 211
Width: 1094
VWidth: 3090
GlyphClass: 2
Flags: W
AnchorPoint: "Anchor-10" 496.812 1377.54 basechar 0
AnchorPoint: "Anchor-7" 506.354 -343.188 basechar 0
LayerCount: 2
Fore
SplineSet
872.000976562 633.209960938 m 2,0,1
 728.268453162 706.021964438 728.268453162 706.021964438 539.057617188 690.541015625 c 0,2,3
 421 681 421 681 346.140625 631.052734375 c 0,4,5
 248 565 248 565 243.573242188 533.677734375 c 0,6,7
 233 468 233 468 433.469726562 375.399414062 c 0,8,9
 493 348 493 348 525.1640625 349.146484375 c 0,10,11
 668.576906747 355.023642038 668.576906747 355.023642038 806.559570312 385.349609375 c 2,12,-1
 1013.73046875 430.881835938 l 1,13,-1
 904.112304688 128.595703125 l 1,14,15
 598.913451333 -0.61328125 598.913451333 -0.61328125 85.98046875 -0.61328125 c 2,16,-1
 -10.77734375 -0.61328125 l 5,17,-1
 -10.77734375 301.6015625 l 5,18,-1
 244.103515625 301.6015625 l 1,19,20
 66 496 66 496 156.9453125 676.300292969 c 0,21,22
 255 871 255 871 446.975585938 936.256835938 c 0,23,24
 534 966 534 966 651.665039062 943.259765625 c 0,25,26
 840.396215713 906.923717355 840.396215713 906.923717355 893.469726562 649.62109375 c 2,27,-1
 899.754882812 619.150390625 l 1,28,-1
 872.000976562 633.209960938 l 2,0,1
EndSplineSet
EndChar

StartChar: uniFECC
Encoding: 65228 65228 212
Width: 1088
VWidth: 3092
GlyphClass: 2
Flags: W
AnchorPoint: "Anchor-10" 560.909 1243.53 basechar 0
AnchorPoint: "Anchor-7" 504.273 -269.42 basechar 0
LayerCount: 2
Fore
SplineSet
595.754882812 220.200195312 m 1,0,1
 391.357967823 -0.61328125 391.357967823 -0.61328125 86.015625 -0.61328125 c 2,2,-1
 -9.962890625 -0.61328125 l 1,3,-1
 -9.962890625 301.6015625 l 1,4,-1
 51.9375 301.6015625 l 2,5,6
 373 302 373 302 498.586914062 352.625976562 c 1,7,8
 404 485 404 485 172.140625 509.174804688 c 1,9,10
 169 606 169 606 172.146484375 654.680664062 c 1,11,12
 298 738 298 738 596.204920824 737.969206418 c 0,13,14
 894 738 894 738 894.541992188 590.046875 c 0,15,16
 895 465 895 465 701.549804688 347.625 c 1,17,18
 806.912150678 301.6015625 806.912150678 301.6015625 1074.80664062 301.6015625 c 2,19,-1
 1098.51074219 301.6015625 l 5,20,-1
 1098.51074219 -0.61328125 l 5,21,-1
 1058.26367188 -0.61328125 l 2,22,23
 800 -1 800 -1 595.754882812 220.200195312 c 1,0,1
EndSplineSet
EndChar

StartChar: uniFEDA
Encoding: 65242 65242 226
Width: 2153
VWidth: 3062
GlyphClass: 2
Flags: W
AnchorPoint: "Anchor-10" 614.44 1685.54 basechar 0
AnchorPoint: "Anchor-7" 774.25 -395.312 basechar 0
LayerCount: 2
Fore
SplineSet
1837.17285156 607.05078125 m 2,0,1
 1837.17285156 301.146484375 1837.17285156 301.146484375 2113.84472656 301.146484375 c 2,2,-1
 2163.640625 301.146484375 l 1,3,-1
 2163.640625 -0.7197265625 l 1,4,-1
 2130.73925781 -0.7197265625 l 2,5,6
 1866.86088618 -0.7197265625 1866.86088618 -0.7197265625 1731 273 c 5,7,8
 1667 196 1667 196 1621.12890625 163.514648438 c 0,9,10
 1464 53 1464 53 1278.38671875 30.8461914062 c 0,11,12
 1040 3 1040 3 818.20703125 -1.0380859375 c 0,13,14
 407 -7 407 -7 253.495117188 78.1513671875 c 0,15,16
 17 209 17 209 101.038085938 556.702148438 c 0,17,18
 124 651 124 651 160.938696208 711.062728351 c 128,-1,19
 198 771 198 771 226.982459438 764.521064642 c 128,-1,20
 256 758 256 758 254.602541805 733.403818136 c 0,21,22
 253 709 253 709 235.898180737 664.77690104 c 0,23,24
 188 541 188 541 233.600585938 461.42578125 c 0,25,26
 315 321 315 321 646.568359375 307.234375 c 0,27,28
 1003 293 1003 293 1273.265625 324.094726562 c 0,29,30
 1556 357 1556 357 1648 406 c 1,31,32
 1648 615 1648 615 1647.84765625 623.807617188 c 0,33,34
 1644 828 1644 828 1627 1069 c 0,35,36
 1610 1316 1610 1316 1587.71191406 1453.69628906 c 1,37,-1
 1837.17285156 1573.66992188 l 1,38,-1
 1837.17285156 607.05078125 l 2,0,1
697.32421875 791.446289062 m 1,39,40
 1017 751 1017 751 1119.04589844 859.893554688 c 0,41,42
 1157 901 1157 901 1142.62988281 950.337890625 c 0,43,44
 1125 1012 1125 1012 1023.90625 1026.86621094 c 0,45,46
 832 1056 832 1056 835.044921875 1221.70605469 c 0,47,48
 839 1431 839 1431 1225.33496094 1459.16308594 c 1,49,-1
 1225.33496094 1370.37792969 l 1,50,51
 1036 1354 1036 1354 961.2578125 1286.76757812 c 0,52,53
 912 1242 912 1242 932.826171875 1179.40332031 c 0,54,55
 954 1117 954 1117 1037.59667969 1104.81835938 c 0,56,57
 1164 1086 1164 1086 1201.63769531 1051.62402344 c 0,58,59
 1239 1017 1239 1017 1239.05078125 950.94921875 c 0,60,61
 1239 813 1239 813 1097 733 c 128,-1,62
 955 653 955 653 697.32421875 693.30859375 c 1,63,-1
 697.32421875 791.446289062 l 1,39,40
EndSplineSet
EndChar

StartChar: uniFEDB
Encoding: 65243 65243 227
Width: 981
VWidth: 3063
GlyphClass: 2
Flags: W
AnchorPoint: "Anchor-10" 262.647 1674.8 basechar 0
AnchorPoint: "Anchor-7" 402.945 -301.407 basechar 0
LayerCount: 2
Fore
SplineSet
-10.5234375 301.6015625 m 1,0,-1
 111.28125 301.6015625 l 2,1,2
 435 302 435 302 556.259765625 421.206054688 c 5,3,4
 510 528 510 528 372.708007812 664 c 0,5,6
 172 862 172 862 51.6337890625 921.749023438 c 1,7,8
 48.2314453125 1035.58105469 l 1,9,10
 48.0001893503 1254.82048871 48.0001893503 1254.82048871 183.37890625 1309.56933594 c 2,11,-1
 930.986328125 1611.91113281 l 1,12,-1
 923.7109375 1584.84082031 l 2,13,14
 874 1400 874 1400 840.935546875 1323.30761719 c 1,15,-1
 254.708007812 1094.51855469 l 1,16,17
 713 722 713 722 714.369140625 424.877929688 c 0,18,19
 715 273 715 273 611.094726562 170.28125 c 0,20,21
 437.393071016 -0.61328125 437.393071016 -0.61328125 91.2861328125 -0.61328125 c 2,22,-1
 -10.5234375 -0.61328125 l 1,23,-1
 -10.5234375 301.6015625 l 1,0,-1
EndSplineSet
EndChar

StartChar: uniFEDC
Encoding: 65244 65244 228
Width: 1250
VWidth: 3063
GlyphClass: 2
Flags: W
AnchorPoint: "Anchor-10" 265.245 1701.53 basechar 0
AnchorPoint: "Anchor-7" 367.583 -297.188 basechar 0
LayerCount: 2
Fore
SplineSet
1239.6328125 -0.61328125 m 2,0,1
 900.747437083 -0.61328125 900.747437083 -0.61328125 679.723632812 337.813476562 c 1,2,3
 658.26762966 240.68464461 658.26762966 240.68464461 590.694335938 160.733398438 c 4,4,5
 454.326848154 -0.61328125 454.326848154 -0.61328125 82.8974609375 -0.61328125 c 2,6,-1
 -10.0791015625 -0.61328125 l 1,7,-1
 -10.0791015625 301.6015625 l 1,8,-1
 94.587890625 301.6015625 l 2,9,10
 439 302 439 302 554.659179688 421.458007812 c 1,11,12
 560 470 560 470 386.952148438 662.452148438 c 0,13,14
 218 849 218 849 53.1611328125 923.338867188 c 1,15,16
 27.9797123207 1244.25855236 27.9797123207 1244.25855236 188.787109375 1309.24511719 c 2,17,-1
 936.014648438 1611.21972656 l 1,18,-1
 930.258789062 1585.26367188 l 2,19,20
 893 1417 893 1417 846.999023438 1322.1171875 c 1,21,-1
 259.981445312 1093.98828125 l 1,22,23
 556 858 556 858 713.513671875 618.71484375 c 0,24,25
 923.263540565 301.6015625 923.263540565 301.6015625 1239.28222656 301.6015625 c 2,26,-1
 1260.66113281 301.6015625 l 1,27,-1
 1260.66113281 -0.61328125 l 1,28,-1
 1239.6328125 -0.61328125 l 2,0,1
EndSplineSet
EndChar

StartChar: uniFEDE
Encoding: 65246 65246 230
Width: 1568
VWidth: 3095
GlyphClass: 2
Flags: W
AnchorPoint: "Anchor-10" 610.214 1283.5 basechar 0
AnchorPoint: "Anchor-7" 406.471 -695.454 basechar 0
LayerCount: 2
Fore
SplineSet
1314.5390625 491.979492188 m 2,0,1
 1314.5390625 302.305664062 1314.5390625 302.305664062 1549.7734375 302.305664062 c 2,2,-1
 1579.015625 302.305664062 l 1,3,-1
 1579.015625 -1.5634765625 l 1,4,-1
 1560.34863281 -1.5634765625 l 2,5,6
 1385 -2 1385 -2 1307.37988281 75.228515625 c 1,7,8
 1284 -565 1284 -565 647.55078125 -564.201171875 c 0,9,10
 356 -564 356 -564 213.890625 -416.08203125 c 0,11,12
 71 -267 71 -267 105.590820312 -16.3095703125 c 0,13,14
 121 94 121 94 195.560546875 224.83984375 c 0,15,16
 246 313 246 313 285.43359375 298.844726562 c 0,17,18
 304 292 304 292 309.928710938 275.704101562 c 0,19,20
 316 259 316 259 307.09375 241.540039062 c 1,21,22
 220 25 220 25 268.958007812 -75.771484375 c 0,23,24
 363 -270 363 -270 670.91796875 -259.33984375 c 0,25,26
 1084 -245 1084 -245 1168.29003906 -35.1669921875 c 1,27,28
 1171 128 1171 128 1137 611 c 128,-1,29
 1103 1094 1103 1094 1094.42382812 1213.49902344 c 132,-1,30
 1086 1333 1086 1333 1068.50585938 1458.02148438 c 5,31,-1
 1314.5390625 1573.07519531 l 5,32,-1
 1314.5390625 491.979492188 l 2,0,1
EndSplineSet
EndChar

StartChar: uniFEDF
Encoding: 65247 65247 231
Width: 546
VWidth: 3062
GlyphClass: 2
Flags: W
AnchorPoint: "Anchor-10" 270.601 1717.78 basechar 0
AnchorPoint: "Anchor-7" 201.189 -347.801 basechar 0
LayerCount: 2
Fore
SplineSet
240.34765625 591.498046875 m 0,0,1
 207.007626449 1234.85283419 207.007626449 1234.85283419 170.45703125 1446.55761719 c 2,2,-1
 168.775390625 1456.29785156 l 1,3,-1
 409.057617188 1573.5 l 1,4,-1
 483.458984375 1327.06640625 l 2,5,6
 508.028239711 1246.9078664 508.028239711 1246.9078664 460.670898438 1215.60644531 c 2,7,-1
 415.474609375 1185.73339844 l 1,8,-1
 415.474609375 453.490234375 l 2,9,10
 415 362 415 362 401.93359375 285.791992188 c 0,11,12
 389 213 389 213 361.713867188 160.96875 c 0,13,14
 277.134015226 -1.7421875 277.134015226 -1.7421875 9.0048828125 -1.7421875 c 2,15,-1
 -11.1875 -1.7421875 l 1,16,-1
 -11.1875 302.268554688 l 1,17,-1
 13.7236328125 302.270507812 l 2,18,19
 184 302 184 302 218.159179688 356.360351562 c 4,20,21
 249 406 249 406 240.34765625 591.498046875 c 0,0,1
EndSplineSet
EndChar

StartChar: uniFEE0
Encoding: 65248 65248 232
Width: 709
VWidth: 3062
GlyphClass: 2
Flags: W
AnchorPoint: "Anchor-10" 372.908 1696.91 basechar 0
AnchorPoint: "Anchor-7" 285.001 -288.878 basechar 0
LayerCount: 2
Fore
SplineSet
6.912109375 301.6015625 m 2,0,1
 216.684559815 301.6015625 216.684559815 301.6015625 263.4609375 360.685546875 c 4,2,3
 296 403 296 403 288.876953125 612.1328125 c 0,4,5
 265 1270 265 1270 222.518554688 1449.94042969 c 1,6,-1
 468.728515625 1573.69921875 l 1,7,-1
 468.728515625 541.346679688 l 2,8,9
 469 384 469 384 512.03515625 346.680664062 c 0,10,11
 563.454476346 301.6015625 563.454476346 301.6015625 686.7578125 301.6015625 c 2,12,-1
 719.475585938 301.6015625 l 1,13,-1
 719.475585938 -0.61328125 l 1,14,-1
 678.122070312 -0.61328125 l 2,15,16
 481 -1 481 -1 376.450195312 134.232421875 c 1,17,18
 240.390201168 -0.61328125 240.390201168 -0.61328125 46.7421875 -0.61328125 c 2,19,-1
 -10.40625 -0.61328125 l 1,20,-1
 -10.40625 301.6015625 l 1,21,-1
 6.912109375 301.6015625 l 2,0,1
EndSplineSet
EndChar

StartChar: uniFEE2
Encoding: 65250 65250 234
Width: 1277
VWidth: 3125
GlyphClass: 2
Flags: W
AnchorPoint: "Anchor-10" 571.374 1070.29 basechar 0
AnchorPoint: "Anchor-7" 151.74 -873.69 basechar 0
LayerCount: 2
Fore
SplineSet
110.444335938 104 m 24,0,1
 155 368 155 368 367.041992188 416.010742188 c 0,2,3
 398 423 398 423 457.569335938 426.247070312 c 1,4,-1
 468.83203125 593.498046875 l 1,5,-1
 468.204101562 593.576171875 l 1,6,-1
 469.315429688 600.676757812 l 1,7,-1
 470.3515625 616.0546875 l 1,8,-1
 1123.75195312 327.778320312 l 2,9,10
 1181.89108313 302.614317963 1181.89108313 302.614317963 1270.80273438 301.7578125 c 2,11,-1
 1287.12402344 301.600585938 l 1,12,-1
 1287.12402344 -0.61328125 l 1,13,-1
 1267.55175781 -0.61328125 l 2,14,15
 1142 -1 1142 -1 1042.73339844 84.3564453125 c 1,16,17
 1037 -78 1037 -78 923.979492188 -182.982421875 c 0,18,19
 871 -232 871 -232 797.150390625 -234.340820312 c 0,20,21
 723 -237 723 -237 663.317382812 -212.415039062 c 0,22,23
 435 -118 435 -118 458.140625 197.612304688 c 1,24,25
 301 192 301 192 240 107 c 1,26,-1
 266 -445 l 2,27,28
 271 -548 271 -548 137 -727 c 0,29,30
 128 -739 128 -739 122 -737 c 0,31,32
 110.995868266 -732.998497551 110.995868266 -732.998497551 110.0078125 -685.056640625 c 2,33,-1
 100.51953125 -224.671875 l 2,34,35
 96 16 96 16 110.444335938 104 c 24,0,1
635.220703125 97.8505859375 m 0,36,37
 693 40 693 40 793.684570312 34.44921875 c 0,38,39
 908 29 908 29 919.262695312 107.244140625 c 0,40,41
 930.011488434 175.133195515 930.011488434 175.133195515 780.948242188 240.489257812 c 0,42,43
 764 248 764 248 574.225585938 319.587890625 c 1,44,45
 575 158 575 158 635.220703125 97.8505859375 c 0,36,37
EndSplineSet
EndChar

StartChar: uniFEE3
Encoding: 65251 65251 235
Width: 1005
VWidth: 3098
GlyphClass: 2
Flags: W
AnchorPoint: "Anchor-10" 514.811 1081.4 basechar 0
AnchorPoint: "Anchor-7" 491.733 -293.291 basechar 0
LayerCount: 2
Fore
SplineSet
255.674804688 137.463867188 m 1,0,1
 140.288354752 -1.65234375 140.288354752 -1.65234375 37.974609375 -1.65234375 c 2,2,-1
 -10.0419921875 -1.65234375 l 1,3,-1
 -10.0419921875 302.309570312 l 1,4,-1
 46.8037109375 302.309570312 l 2,5,6
 181 302 181 302 214.336914062 352.483398438 c 0,7,8
 431 679 431 679 557.467773438 704.14453125 c 0,9,10
 612 715 612 715 653.498046875 702.568359375 c 4,11,12
 856 643 856 643 899.704101562 339.705078125 c 0,13,14
 905 303 905 303 904.719726562 241.900390625 c 0,15,16
 904 91 904 91 819.0703125 23.826171875 c 0,17,18
 734 -43 734 -43 653.776367188 -42.6416015625 c 0,19,20
 508 -42 508 -42 255.674804688 137.463867188 c 1,0,1
399 335 m 1,21,22
 606 216 606 216 694.086914062 202.633789062 c 0,23,24
 767.997638682 191.736695048 767.997638682 191.736695048 768.120117188 257.262695312 c 0,25,26
 768 290 768 290 747.174804688 327.584960938 c 0,27,28
 679 448 679 448 576.16015625 449.515625 c 0,29,30
 532.843619842 449.970160882 532.843619842 449.970160882 477.19140625 409.357421875 c 0,31,32
 427 372 427 372 399 335 c 1,21,22
EndSplineSet
EndChar

StartChar: uniFEE4
Encoding: 65252 65252 236
Width: 1110
VWidth: 3098
GlyphClass: 2
Flags: W
AnchorPoint: "Anchor-10" 573.688 1073.17 basechar 0
AnchorPoint: "Anchor-7" 560.593 -285.316 basechar 0
LayerCount: 2
Fore
SplineSet
394.186523438 279.481445312 m 5,0,1
 600 149 600 149 683.2734375 140.115234375 c 0,2,3
 760 131 760 131 760.306640625 197.744140625 c 0,4,5
 760 230 760 230 739.361328125 268.06640625 c 0,6,7
 670 390 670 390 568.346679688 389.997070312 c 0,8,9
 525 390 525 390 469.377929688 349.838867188 c 0,10,11
 420 313 420 313 394.186523438 279.481445312 c 5,0,1
1085.42285156 -1.1904296875 m 2,12,13
 930.223840625 -1.1904296875 930.223840625 -1.1904296875 855.748046875 62.1689453125 c 1,14,15
 803 -19 803 -19 778.209960938 -42.49609375 c 0,16,17
 718 -102 718 -102 641.107421875 -101.365234375 c 0,18,19
 522 -101 522 -101 255.55078125 94.962890625 c 1,20,21
 177.281640428 -1.65234375 177.281640428 -1.65234375 40.4736328125 -1.65234375 c 2,22,-1
 -10.0419921875 -1.65234375 l 1,23,-1
 -10.0419921875 302.309570312 l 1,24,-1
 57.6943359375 302.309570312 l 2,25,26
 210 302 210 302 262 380 c 0,27,28
 417 609 417 609 550.058507376 642.10260156 c 0,29,30
 675 673 675 673 778.671875 548.205078125 c 0,31,32
 924 374 924 374 950 342 c 0,33,34
 982.266826922 302.674804689 982.266826922 302.674804689 1076.27539062 302.674804688 c 2,35,-1
 1120.44726562 302.674804688 l 1,36,-1
 1120.44726562 -1.1904296875 l 1,37,-1
 1085.42285156 -1.1904296875 l 2,12,13
EndSplineSet
EndChar

StartChar: uniFEEA
Encoding: 65258 65258 242
Width: 1061
VWidth: 3085
GlyphClass: 2
Flags: W
AnchorPoint: "Anchor-10" 561.845 1382.5 basechar 0
AnchorPoint: "Anchor-7" 407.525 -188.742 basechar 0
LayerCount: 2
Fore
SplineSet
233.749023438 470.959960938 m 1,0,1
 282 448 282 448 628.384765625 449.115234375 c 0,2,3
 660 450 660 450 692.7265625 450.606445312 c 1,4,-1
 635.473632812 644.662109375 l 1,5,6
 393 607 393 607 233.749023438 470.959960938 c 1,0,1
1051.38964844 -0.61328125 m 2,7,8
 809.867370826 -0.61328125 809.867370826 -0.61328125 715 276 c 5,9,10
 562.142578125 166.112304688 l 1,11,12
 461 160 461 160 339.5 182.5 c 128,-1,13
 218 205 218 205 162.25390625 237.362304688 c 0,14,15
 107 269 107 269 100.752929688 310.416015625 c 0,16,17
 95 352 95 352 134.750976562 519.388671875 c 0,18,19
 175 688 175 688 605.489257812 816.985351562 c 1,20,-1
 585.291015625 921.53125 l 1,21,-1
 718.666015625 1086.24609375 l 1,22,-1
 829.787109375 490.80078125 l 2,23,24
 865.074311854 301.6015625 865.074311854 301.6015625 1051.26074219 301.6015625 c 2,25,-1
 1071.63378906 301.6015625 l 1,26,-1
 1071.63378906 -0.61328125 l 1,27,-1
 1051.38964844 -0.61328125 l 2,7,8
EndSplineSet
EndChar

StartChar: uniFEEB
Encoding: 65259 65259 243
Width: 1230
VWidth: 3090
GlyphClass: 2
Flags: W
AnchorPoint: "Anchor-10" 483.531 1495.69 basechar 0
AnchorPoint: "Anchor-7" 482.718 -259.012 basechar 0
LayerCount: 2
Fore
SplineSet
648 305 m 1,0,1
 840 218 840 218 938.529296875 210.74609375 c 1,2,3
 986 272 986 272 979 342 c 0,4,5
 971 428 971 428 762.024414062 571.037109375 c 1,6,7
 770 405 770 405 648 305 c 1,0,1
442.412109375 146.340820312 m 1,8,9
 188 -1 188 -1 20.142578125 -1.23046875 c 2,10,-1
 -10.248046875 -1.23046875 l 1,11,-1
 -10.248046875 302.779296875 l 1,12,-1
 27.00390625 302.779296875 l 2,13,14
 149 303 149 303 246.838867188 318.8125 c 1,15,16
 191 350 191 350 165.251953125 393.6640625 c 0,17,18
 127 458 127 458 167.485351562 572.60546875 c 0,19,20
 226 739 226 739 431.415039062 845.21484375 c 1,21,-1
 311.7734375 911.805664062 l 1,22,-1
 414.745117188 1103.13378906 l 1,23,-1
 759.543945312 885.915039062 l 2,24,25
 1132 651 1132 651 1129.65234375 354.013671875 c 0,26,27
 1129 283 1129 283 1096.42675781 219.002929688 c 0,28,29
 1007 41 1007 41 912.436523438 33.357421875 c 0,30,31
 695 16 695 16 442.412109375 146.340820312 c 1,8,9
519.262695312 384.922851562 m 1,32,33
 577 425 577 425 606.296875 507.345703125 c 0,34,35
 654 638 654 638 573 668 c 4,36,37
 445.750309866 714.554764683 445.750309866 714.554764683 351.888671875 595.258789062 c 0,38,39
 321 556 321 556 331.776367188 517.98828125 c 0,40,41
 345.388102085 477.697614851 345.388102085 477.697614851 402 443 c 0,42,43
 489 391 489 391 519.262695312 384.922851562 c 1,32,33
EndSplineSet
EndChar

StartChar: uniFEEC
Encoding: 65260 65260 244
Width: 1042
VWidth: 3113
GlyphClass: 2
Flags: W
AnchorPoint: "Anchor-7" 404.255 -846.09 basechar 0
AnchorPoint: "Anchor-10" 363.974 1489.51 basechar 0
LayerCount: 2
Fore
SplineSet
329.760742188 302.271484375 m 1,0,1
 646.092451764 311.030248397 646.092451764 311.030248397 641.728515625 387.588867188 c 0,2,3
 638 452 638 452 554 564 c 0,4,5
 515 615 515 615 469.575195312 654.4140625 c 1,6,7
 367 514 367 514 329.760742188 302.271484375 c 1,0,1
208.87890625 297.879882812 m 1,8,9
 263 718 263 718 493.614257812 941.431640625 c 1,10,11
 554 908 554 908 636 811 c 0,12,13
 773 650 773 650 764.849006447 450.935173766 c 0,14,15
 757 247 757 247 618.313476562 125.421875 c 0,16,17
 537 54 537 54 354.4609375 2.189453125 c 1,18,19
 391 -171 391 -171 547 -324 c 1,20,21
 584 91 584 91 896.102539062 261.01171875 c 0,22,23
 961.866135558 296.92689322 961.866135558 296.92689322 1037.6015625 300.995117188 c 6,24,-1
 1052.29101562 301.784179688 l 5,25,-1
 1052.29101562 -0.345703125 l 1,26,27
 943 -7 943 -7 867.6640625 -40.1416015625 c 0,28,29
 617 -150 617 -150 767.490234375 -559.408203125 c 1,30,-1
 623.141601562 -684.946289062 l 1,31,32
 279 -431 279 -431 225.32421875 -1.7216796875 c 1,33,-1
 -10.2236328125 -0.591796875 l 1,34,-1
 -10.2236328125 301.67578125 l 1,35,-1
 208.87890625 297.879882812 l 1,8,9
EndSplineSet
EndChar

StartChar: uniFEEE
Encoding: 65262 65262 246
Width: 909
VWidth: 3118
GlyphClass: 2
Flags: W
AnchorPoint: "Anchor-10" 478.079 1071.73 basechar 0
AnchorPoint: "Anchor-7" 412.812 -822.198 basechar 0
LayerCount: 2
Fore
SplineSet
669.998046875 -0.9599609375 m 1,0,-1
 534.23046875 0.8369140625 l 1,1,2
 285 0 285 0 216.881835938 86.984375 c 0,3,4
 149 174 149 174 181.580078125 362.235351562 c 0,5,6
 214 550 214 550 334.99609375 664.69921875 c 0,7,8
 414 739 414 739 509.139648438 739.669921875 c 0,9,10
 633 740 633 740 711.467773438 635.3046875 c 0,11,12
 791 530 791 530 808.731445312 301.6015625 c 1,13,-1
 919.172851562 301.6015625 l 1,14,-1
 919.172851562 -0.61328125 l 1,15,-1
 805.086914062 -0.61328125 l 1,16,17
 729 -350 729 -350 556.453125 -501.16796875 c 4,18,19
 502 -549 502 -549 426 -550 c 4,20,21
 318 -551 318 -551 194.356445312 -529.541992188 c 0,22,23
 9 -497 9 -497 20.609375 -462.71484375 c 0,24,25
 27 -445 27 -445 76.48046875 -426.022460938 c 0,26,27
 571 -237 571 -237 669.998046875 -0.9599609375 c 1,0,-1
683.1171875 302.1796875 m 1,28,29
 681.781564073 327.070851372 681.781564073 327.070851372 665.87109375 373.629882812 c 0,30,31
 649 423 649 423 602.578125 456.290039062 c 0,32,33
 556 490 556 490 485.969726562 489.590820312 c 0,34,35
 361 490 361 490 313.705078125 401.853515625 c 0,36,37
 297 370 297 370 297.2265625 332.584960938 c 1,38,39
 315 317 315 317 414.38671875 308.249023438 c 0,40,41
 514 299 514 299 683.1171875 302.1796875 c 1,28,29
EndSplineSet
EndChar

StartChar: uniFEF0
Encoding: 65264 65264 248
Width: 1548
VWidth: 3095
GlyphClass: 2
Flags: W
AnchorPoint: "Anchor-10" 709.647 677.047 basechar 0
AnchorPoint: "Anchor-7" 218.823 -827.658 basechar 0
LayerCount: 2
Fore
SplineSet
1440.16699219 -264.635742188 m 0,0,1
 1328 -664 1328 -664 697.900390625 -662.583007812 c 0,2,3
 352 -662 352 -662 212.67578125 -518.004882812 c 0,4,5
 74 -374 74 -374 105.001953125 -148.967773438 c 0,6,7
 123 -21 123 -21 211.359375 130.58203125 c 0,8,9
 262.54296875 218.692382812 262.54296875 218.692382812 300.499023438 204.713867188 c 0,10,11
 340.434570312 190.96484375 340.434570312 190.96484375 322.724609375 146.92578125 c 2,12,-1
 298.7265625 87.25 l 2,13,14
 219 -111 219 -111 268.229492188 -208.203125 c 0,15,16
 346 -361 346 -361 721.763671875 -359.79296875 c 0,17,18
 1252 -359 1252 -359 1312.45410156 -247.670898438 c 0,19,20
 1315 -243 1315 -243 1312.5 -238.5 c 128,-1,21
 1310 -234 1310 -234 1278.875 -233.999023438 c 0,22,23
 1018 -231 1018 -231 954 -196.5 c 128,-1,24
 890 -162 890 -162 883 -94 c 128,-1,25
 876 -26 876 -26 933.5 70.5 c 128,-1,26
 991 167 991 167 1077.12207031 224.141601562 c 0,27,28
 1191.70703125 301.801757812 1191.70703125 301.801757812 1443.75097656 301.801757812 c 2,29,-1
 1558.07910156 301.801757812 l 5,30,-1
 1558.07910156 -0.8134765625 l 5,31,-1
 1504.01464844 -0.8134765625 l 2,32,33
 1431 -1 1431 -1 1341.5 9.5 c 128,-1,34
 1252 20 1252 20 1225.63183594 25.896484375 c 0,35,36
 1060 62 1060 62 1021.91210938 -28.51953125 c 0,37,38
 1020 -33 1020 -33 1021 -34.5 c 0,39,40
 1023.29199219 -37.9384765625 1023.29199219 -37.9384765625 1132.14648438 -47.9697265625 c 0,41,42
 1286.99023438 -62.23828125 1286.99023438 -62.23828125 1319.734375 -72.1630859375 c 0,43,44
 1480.47558594 -117.01171875 1480.47558594 -117.01171875 1440.16699219 -264.635742188 c 0,0,1
EndSplineSet
EndChar

StartChar: uniFEFB
Encoding: 65275 65275 259
Width: 1407
VWidth: 3062
GlyphClass: 3
Flags: W
AnchorPoint: "Anchor-9" 1120.6 1647.2 baselig 0
AnchorPoint: "Anchor-6" 1123.3 -298.706 baselig 0
AnchorPoint: "Anchor-6" 445.802 -303.681 baselig 1
AnchorPoint: "Anchor-9" 149.577 1553.02 baselig 1
LayerCount: 2
Fore
SplineSet
1276.47460938 1185.73339844 m 1,0,-1
 1274.67089844 974.34765625 l 2,1,2
 1270 469 1270 469 1042.02734375 214.985351562 c 0,3,4
 838.284304473 -11.683704402 838.284304473 -11.683704402 517.3671875 -2.36328125 c 2,5,-1
 488.853515625 -1.53515625 l 1,6,7
 435.525146173 19.184494776 435.525146173 19.184494776 186.6953125 305.477539062 c 5,8,9
 548.064654186 254.271500688 548.064654186 254.271500688 719.40234375 297.96484375 c 1,10,11
 533 697 533 697 287.944335938 889.852539062 c 1,12,-1
 251.977539062 874.348632812 l 2,13,14
 196.743815694 850.891200054 196.743815694 850.891200054 163.504882812 923.689453125 c 2,15,-1
 72.37109375 1123.28613281 l 1,16,-1
 205.841796875 1384.57714844 l 1,17,-1
 223.36328125 1364.92871094 l 2,18,19
 704 826 704 826 843.288085938 336.990234375 c 1,20,21
 943 389 943 389 1013.61132812 504.825195312 c 0,22,23
 1080 614 1080 614 1080 798 c 0,24,25
 1080 906 1080 906 1060.4296875 1123.45703125 c 0,26,27
 1034 1427 1034 1427 1027.37011719 1461.11425781 c 1,28,-1
 1270.05761719 1573.5 l 1,29,-1
 1344.45898438 1327.06640625 l 2,30,31
 1369.02823971 1246.9078664 1369.02823971 1246.9078664 1321.67089844 1215.60644531 c 2,32,-1
 1276.47460938 1185.73339844 l 1,0,-1
EndSplineSet
LCarets2: 1 -10
Ligature2: "'rlig' Required Ligatures in Arabic lookup 16 subtable" uniFEDF uniFE8E
EndChar

StartChar: uniFEFC
Encoding: 65276 65276 260
Width: 1572
VWidth: 3062
GlyphClass: 3
Flags: W
AnchorPoint: "Anchor-9" 1187.89 1646.4 baselig 0
AnchorPoint: "Anchor-6" 1138.35 -305.954 baselig 0
AnchorPoint: "Anchor-6" 544.61 -316.159 baselig 1
AnchorPoint: "Anchor-9" 125.122 1501.35 baselig 1
LayerCount: 2
Fore
SplineSet
843.455078125 344.357421875 m 1,0,1
 924 377 924 377 988 503 c 0,2,3
 1068 660 1068 660 1073.15039062 796.396484375 c 0,4,5
 1078 936 1078 936 1067.0859375 1103.06347656 c 0,6,7
 1051 1341 1051 1341 1027.37597656 1461.11914062 c 1,8,-1
 1274.67089844 1573.88183594 l 1,9,-1
 1274.67089844 817.865234375 l 2,10,11
 1275.00031711 301.502929688 1275.00031711 301.502929688 1544.5234375 301.502929688 c 2,12,-1
 1582.45214844 301.502929688 l 1,13,-1
 1582.45214844 -1.4638671875 l 1,14,-1
 1543.97070312 -0.4892578125 l 2,15,16
 1237 7 1237 7 1166.66015625 489.525390625 c 1,17,18
 1109 330 1109 330 1004.27539062 213.448242188 c 0,19,20
 802.379567129 -9.58070229145 802.379567129 -9.58070229145 517.3671875 -1.2919921875 c 2,21,-1
 488.891601562 -0.4638671875 l 1,22,23
 431.382539179 21.2329534888 431.382539179 21.2329534888 185.971679688 304.03515625 c 5,24,25
 581 255 581 255 719.981445312 297.395507812 c 1,26,27
 515 703 515 703 287.944335938 889.852539062 c 1,28,-1
 251.915039062 874.321289062 l 2,29,30
 196.743814266 850.891203181 196.743814266 850.891203181 163.504882812 923.689453125 c 2,31,-1
 72.37109375 1123.28613281 l 1,32,-1
 205.841796875 1384.57714844 l 1,33,-1
 223.36328125 1364.92871094 l 2,34,35
 705 825 705 825 843.455078125 344.357421875 c 1,0,1
EndSplineSet
LCarets2: 1 0
Ligature2: "'rlig' Required Ligatures in Arabic lookup 16 subtable" uniFEE0 uniFE8E
EndChar

StartChar: arabic_dot
Encoding: 65536 -1 261
Width: 194
VWidth: 2680
GlyphClass: 2
Flags: W
LayerCount: 2
Fore
SplineSet
124.032226562 247.703125 m 6,0,-1
 227.310546875 144.423828125 l 6,1,2
 246.435961648 124.24160895 246.435961648 124.24160895 227.82421875 104.55859375 c 6,3,-1
 119.704101562 -3.5615234375 l 6,4,5
 98.2449367272 -24.9193462897 98.2449367272 -24.9193462897 76.0185546875 -3.8095703125 c 6,6,-1
 -28.5849609375 100.372070312 l 6,7,8
 -52.2442913416 123.933900209 -52.2442913416 123.933900209 -27.7587890625 148.500976562 c 6,9,-1
 72.6376953125 248.89453125 l 6,10,11
 98.142642194 274.399478131 98.142642194 274.399478131 124.032226562 247.703125 c 6,0,-1
EndSplineSet
EndChar

StartChar: arabic_2dots
Encoding: 65537 -1 262
Width: 535
VWidth: 2680
GlyphClass: 2
Flags: W
LayerCount: 2
Fore
SplineSet
430.469569407 240.1947146 m 2,0,-1
 533.727449616 136.935858022 l 2,1,2
 542.076353357 128.125257857 542.076353357 128.125257857 542.176828867 120.311554547 c 128,-1,3
 542.277304378 112.497851237 542.277304378 112.497851237 534.2392405 104.044683312 c 2,4,-1
 426.17696403 -4.01761305136 l 2,5,6
 408.163520876 -21.9458009906 408.163520876 -21.9458009906 389.504860254 -4.22499220292 c 2,7,-1
 284.943253652 99.9149084135 l 2,8,9
 274.409975011 110.339400489 274.409975011 110.339400489 274.577926509 120.11851034 c 128,-1,10
 274.745878007 129.897620192 274.745878007 129.897620192 285.776693257 140.965391071 c 2,11,-1
 386.173229218 241.358997344 l 2,12,13
 408.087928964 263.27369709 408.087928964 263.27369709 430.469569407 240.1947146 c 2,0,-1
146.469569407 240.1947146 m 2,14,-1
 249.727449616 136.935858022 l 2,15,16
 258.076353357 128.125257857 258.076353357 128.125257857 258.176828867 120.311554547 c 128,-1,17
 258.277304378 112.497851237 258.277304378 112.497851237 250.2392405 104.044683312 c 2,18,-1
 142.17696403 -4.01761305136 l 2,19,20
 124.163520876 -21.9458009906 124.163520876 -21.9458009906 105.504860254 -4.22499220292 c 2,21,-1
 0.943253652101 99.9149084135 l 2,22,23
 -19.1716905399 119.946825635 -19.1716905399 119.946825635 1.77669325678 140.965391071 c 2,24,-1
 102.173229218 241.358997344 l 2,25,26
 124.087928964 263.27369709 124.087928964 263.27369709 146.469569407 240.1947146 c 2,14,-1
EndSplineSet
EndChar

StartChar: arabic_3dots
Encoding: 65538 -1 263
Width: 528
VWidth: 2680
GlyphClass: 2
Flags: W
LayerCount: 2
Fore
SplineSet
282.875 429.983398438 m 6,0,-1
 386.112304688 326.745117188 l 6,1,2
 398.633789062 313.530273438 398.633789062 313.530273438 386.622070312 300.828125 c 6,3,-1
 278.6171875 192.823242188 l 6,4,5
 264.049804688 178.32421875 264.049804688 178.32421875 248.958984375 192.65625 c 6,6,-1
 144.439453125 296.754882812 l 6,7,8
 127.868164062 313.256835938 127.868164062 313.256835938 145.280273438 330.7265625 c 6,9,-1
 245.676757812 431.120117188 l 6,10,11
 263.928710938 449.51953125 263.928710938 449.51953125 282.875 429.983398438 c 6,0,-1
420.596679688 219.262695312 m 6,12,-1
 523.833984375 116.024414062 l 6,13,14
 537.11880293 102.882474805 537.11880293 102.882474805 524.34375 90.107421875 c 6,15,-1
 416.338867188 -17.8974609375 l 6,16,17
 401.340243502 -32.6649986785 401.340243502 -32.6649986785 386.680664062 -18.064453125 c 6,18,-1
 282.161132812 86.0341796875 l 6,19,20
 265.997852245 103.002254695 265.997852245 103.002254695 283.001953125 120.005859375 c 6,21,-1
 383.3984375 220.399414062 l 6,22,23
 401 238 401 238 420.596679688 219.262695312 c 6,12,-1
141.596679688 219.262695312 m 6,24,-1
 244.833984375 116.024414062 l 6,25,26
 258.11880293 102.882474805 258.11880293 102.882474805 245.34375 90.107421875 c 6,27,-1
 137.338867188 -17.8974609375 l 6,28,29
 122.340243502 -32.6649986785 122.340243502 -32.6649986785 107.680664062 -18.064453125 c 6,30,-1
 3.1611328125 86.0341796875 l 6,31,32
 -13.0021477548 103.002254695 -13.0021477548 103.002254695 4.001953125 120.005859375 c 6,33,-1
 104.3984375 220.399414062 l 6,34,35
 122 238 122 238 141.596679688 219.262695312 c 6,24,-1
EndSplineSet
EndChar

StartChar: arabic_3dots_a
Encoding: 65539 -1 264
Width: 527
VWidth: 2680
GlyphClass: 2
Flags: W
LayerCount: 2
Fore
SplineSet
282.875 -199.927734375 m 2,0,1
 263.928710938 -219.463867188 263.928710938 -219.463867188 245.676757812 -201.064453125 c 2,2,-1
 145.280273438 -100.670898438 l 2,3,4
 127.868164062 -83.201171875 127.868164062 -83.201171875 144.439453125 -66.69921875 c 2,5,-1
 248.958984375 37.3994140625 l 2,6,7
 264.049804688 51.7314453125 264.049804688 51.7314453125 278.6171875 37.232421875 c 2,8,-1
 386.622070312 -70.7724609375 l 2,9,10
 398.633789062 -83.474609375 398.633789062 -83.474609375 386.112304688 -96.689453125 c 2,11,-1
 282.875 -199.927734375 l 2,0,1
420.596679688 10.79296875 m 2,12,13
 401 -7.9443359375 401 -7.9443359375 383.3984375 9.65625 c 2,14,-1
 283.001953125 110.049804688 l 2,15,16
 265.998046875 127.053710938 265.998046875 127.053710938 282.161132812 144.021484375 c 2,17,-1
 386.680664062 248.120117188 l 2,18,19
 401.33984375 262.720703125 401.33984375 262.720703125 416.338867188 247.953125 c 2,20,-1
 524.34375 139.948242188 l 2,21,22
 537.119140625 127.172851562 537.119140625 127.172851562 523.833984375 114.03125 c 2,23,-1
 420.596679688 10.79296875 l 2,12,13
141.596679688 10.79296875 m 2,24,25
 122 -7.9443359375 122 -7.9443359375 104.3984375 9.65625 c 2,26,-1
 4.001953125 110.049804688 l 2,27,28
 -13.001953125 127.053710938 -13.001953125 127.053710938 3.1611328125 144.021484375 c 2,29,-1
 107.680664062 248.120117188 l 2,30,31
 122.33984375 262.720703125 122.33984375 262.720703125 137.338867188 247.953125 c 2,32,-1
 245.34375 139.948242188 l 2,33,34
 258.119140625 127.172851562 258.119140625 127.172851562 244.833984375 114.03125 c 2,35,-1
 141.596679688 10.79296875 l 2,24,25
EndSplineSet
EndChar

StartChar: uni066E.fina
Encoding: 65540 -1 265
Width: 2125
VWidth: 3095
GlyphClass: 2
Flags: WO
AnchorPoint: "Anchor-10" 894.449 1499.29 basechar 0
AnchorPoint: "Anchor-7" 837.273 -293.343 basechar 0
LayerCount: 2
Fore
SplineSet
933.263671875 302.3515625 m 0,0,1
 1289 303 1289 303 1527.9375 422.20703125 c 0,2,3
 1697 506 1697 506 1768.82421875 575.116210938 c 0,4,5
 1856 659 1856 659 1885 620 c 4,6,7
 1891 612 1891 612 1891.5 597 c 128,-1,8
 1892 582 1892 582 1870.18847656 488.66015625 c 0,9,10
 1825.905677 301.6015625 1825.905677 301.6015625 2099.68945312 301.6015625 c 2,11,-1
 2135.20703125 301.6015625 l 1,12,-1
 2135.20703125 -0.5927734375 l 1,13,-1
 2106.2109375 -0.8271484375 l 2,14,15
 1764 -4 1764 -4 1741.45996094 314.290039062 c 1,16,17
 1595 174 1595 174 1391.5 89.5 c 128,-1,18
 1188 5 1188 5 805.087890625 -1.0078125 c 128,-1,19
 422 -7 422 -7 268.51953125 78.1376953125 c 0,20,21
 49 199 49 199 105.729492188 507.973632812 c 0,22,23
 130 638 130 638 180.82421875 719.583984375 c 0,24,25
 213 771 213 771 241.982421875 764.521484375 c 128,-1,26
 271 758 271 758 269.602539062 733.404296875 c 0,27,28
 268 709 268 709 250.8984375 664.77734375 c 0,29,30
 202 542 202 542 250.021484375 458.4765625 c 0,31,32
 328 322 328 322 661.568359375 307.234375 c 0,33,34
 758 303 758 303 933.263671875 302.3515625 c 0,0,1
EndSplineSet
EndChar

StartChar: uni06A1.fina
Encoding: 65543 -1 268
Width: 2015
VWidth: 3091
GlyphClass: 2
Flags: W
AnchorPoint: "Anchor-10" 640.684 1648.14 basechar 0
AnchorPoint: "Anchor-7" 795.435 -363.604 basechar 0
LayerCount: 2
Fore
SplineSet
1348.00488281 328.135742188 m 1,0,1
 1241 436 1241 436 1221.5 524.5 c 0,2,3
 1202 614 1202 614 1283.68457031 744.796875 c 0,4,5
 1390 915 1390 915 1542.99316406 914.66796875 c 0,6,7
 1654 915 1654 915 1751.5 800 c 128,-1,8
 1849 685 1849 685 1852.34570312 598.965820312 c 0,9,10
 1858 470 1858 470 1715.88867188 325.388671875 c 1,11,12
 1859.08580017 300.813658598 1859.08580017 300.813658598 1982.375 301.405273438 c 2,13,-1
 2025.72265625 301.61328125 l 5,14,-1
 2025.72265625 -0.6083984375 l 5,15,-1
 1973.32714844 -0.61328125 l 2,16,17
 1701 -1 1701 -1 1536.8984375 118.640625 c 1,18,19
 1325 -0 1325 -0 827.107421875 -0.1083984375 c 1,20,21
 411 -7 411 -7 257.495117188 78.1513671875 c 0,22,23
 21 209 21 209 105.038085938 556.702148438 c 0,24,25
 128 651 128 651 164.938476562 711.0625 c 128,-1,26
 202 771 202 771 230.982421875 764.521484375 c 128,-1,27
 260 758 260 758 258.602539062 733.404296875 c 0,28,29
 257 709 257 709 239.8984375 664.77734375 c 0,30,31
 192 541 192 541 237.600585938 461.42578125 c 0,32,33
 318 322 318 322 650.568359375 307.234375 c 0,34,35
 747 303 747 303 921.62109375 301.404296875 c 1,36,37
 1139 304 1139 304 1348.00488281 328.135742188 c 1,0,1
1397 597.5 m 0,38,39
 1355 562 1355 562 1357 528 c 0,40,41
 1359 499 1359 499 1423.5 441.5 c 128,-1,42
 1488 384 1488 384 1535 384 c 128,-1,43
 1582 384 1582 384 1647.5 438 c 128,-1,44
 1713 492 1713 492 1712 524 c 0,45,46
 1711 561 1711 561 1655.26660156 611.091796875 c 0,47,48
 1587 674 1587 674 1532 671.97265625 c 0,49,50
 1482 670 1482 670 1397 597.5 c 0,38,39
EndSplineSet
EndChar

StartChar: uni06A1.init
Encoding: 65544 -1 269
Width: 841
VWidth: 3118
GlyphClass: 2
Flags: W
AnchorPoint: "Anchor-10" 402.652 1699.01 basechar 0
AnchorPoint: "Anchor-7" 391.006 -290.318 basechar 0
LayerCount: 2
Fore
SplineSet
230.723632812 734.060546875 m 0,0,1
 216.389648438 690.54296875 216.389648438 690.54296875 317.313476562 669.610351562 c 0,2,3
 448.368164062 641.59375 448.368164062 641.59375 620.93359375 677.655273438 c 1,4,5
 614.298828125 710.27734375 614.298828125 710.27734375 582.751953125 762.94140625 c 0,6,7
 517.260742188 873.6015625 517.260742188 873.6015625 367.60546875 849.59375 c 0,8,9
 263.266601562 832.85546875 263.266601562 832.85546875 230.723632812 734.060546875 c 0,0,1
732.571289062 411.508789062 m 0,10,11
 654.073659014 -0.61328125 654.073659014 -0.61328125 189.4375 -0.61328125 c 2,12,-1
 -10.716796875 -0.61328125 l 5,13,-1
 -10.716796875 301.6015625 l 5,14,-1
 169.211914062 301.6015625 l 2,15,16
 587 302 587 302 608.14453125 440.984375 c 1,17,18
 480 404 480 404 355.25390625 419.49609375 c 0,19,20
 231 435 231 435 168.3984375 524.40234375 c 0,21,22
 106 614 106 614 119.403320312 720.403320312 c 0,23,24
 147 930 147 930 256.005859375 1036.45800781 c 0,25,26
 365 1142 365 1142 494.07421875 1103.98925781 c 128,-1,27
 623 1066 623 1066 694.227539062 873.4453125 c 0,28,29
 778 645 778 645 732.571289062 411.508789062 c 0,10,11
EndSplineSet
EndChar

StartChar: uni06A1.medi
Encoding: 65545 -1 270
Width: 954
VWidth: 3091
GlyphClass: 2
Flags: W
AnchorPoint: "Anchor-10" 626.774 1417.67 basechar 0
AnchorPoint: "Anchor-7" 576.774 -284.579 basechar 0
LayerCount: 2
Fore
SplineSet
494.588867188 120.159179688 m 1,0,1
 363.498621988 -1.537109375 363.498621988 -1.537109375 52.59375 -1.537109375 c 2,2,-1
 -10.1513671875 -1.537109375 l 1,3,-1
 -10.1513671875 301.399414062 l 1,4,-1
 6.7529296875 301.405273438 l 2,5,6
 240 301 240 301 305.004882812 328.135742188 c 1,7,8
 197 437 197 437 178.5 524.5 c 0,9,10
 159 614 159 614 240.684570312 744.796875 c 0,11,12
 347 915 347 915 499.993164062 914.66796875 c 0,13,14
 611 915 611 915 708.5 800 c 128,-1,15
 806 685 806 685 809.345703125 598.965820312 c 0,16,17
 815 470 815 470 672.888671875 325.388671875 c 1,18,19
 824.940644115 295.817060166 824.940644115 295.817060166 950.154296875 301.404296875 c 2,20,-1
 964.1171875 302.02734375 l 1,21,-1
 964.1171875 -0.7333984375 l 1,22,-1
 941.295898438 -1.5361328125 l 2,23,24
 692 -10 692 -10 494.588867188 120.159179688 c 1,0,1
354 597.5 m 0,25,26
 312 562 312 562 314 528 c 0,27,28
 316 499 316 499 380.5 441.5 c 128,-1,29
 445 384 445 384 492 384 c 128,-1,30
 539 384 539 384 604.5 438 c 128,-1,31
 670 492 670 492 669 524 c 0,32,33
 668 561 668 561 612.266601562 611.091796875 c 0,34,35
 544 674 544 674 489 671.97265625 c 0,36,37
 439 670 439 670 354 597.5 c 0,25,26
EndSplineSet
EndChar

StartChar: uni066F.fina
Encoding: 65546 -1 271
Width: 1485
VWidth: 3118
GlyphClass: 2
Flags: W
AnchorPoint: "Anchor-10" 359.435 1289.77 basechar 0
AnchorPoint: "Anchor-7" 480.406 -1051.47 basechar 0
LayerCount: 2
Fore
SplineSet
1234.296875 303.084960938 m 5,0,1
 1233 335 1233 335 1216.6796875 379.405273438 c 4,2,3
 1200 424 1200 424 1153.6796875 457.405273438 c 4,4,5
 1107 491 1107 491 1037.14941406 490.49609375 c 4,6,7
 912 491 912 491 864.884765625 402.758789062 c 4,8,9
 848 371 848 371 848.40625 333.490234375 c 5,10,11
 890 297 890 297 1234.296875 303.084960938 c 5,0,1
1237.29394531 -0.8955078125 m 5,12,-1
 1094.82714844 0.990234375 l 5,13,14
 846 0 846 0 777.901367188 86.984375 c 132,-1,15
 710 174 710 174 742.080078125 362.236328125 c 4,16,17
 774 550 774 550 895.618164062 664.880859375 c 4,18,19
 975 739 975 739 1069.72851562 739.823242188 c 4,20,21
 1194 740 1194 740 1272.4765625 635.302734375 c 4,22,23
 1352 530 1352 530 1369.34277344 301.79296875 c 5,24,-1
 1495.01074219 302.173828125 l 5,25,-1
 1495.01074219 -1.6796875 l 5,26,-1
 1368.67480469 -1.6796875 l 5,27,-1
 1361.95703125 -60.228515625 l 5,28,29
 1335 -598 1335 -598 647.145507812 -597.870117188 c 4,30,31
 356 -598 356 -598 212.865234375 -449.067382812 c 4,32,33
 68 -298 68 -298 105.18359375 -49.8642578125 c 4,34,35
 122 64 122 64 195.17578125 191.236328125 c 4,36,37
 245 278 245 278 285.012695312 265.174804688 c 4,38,39
 304 259 304 259 309.680664062 241.842773438 c 4,40,41
 315 225 315 225 306.579101562 207.642578125 c 5,42,43
 219 -9 219 -9 268.52734375 -109.423828125 c 4,44,45
 362 -302 362 -302 670.567382812 -293.005859375 c 4,46,47
 1144 -279 1144 -279 1227.60253906 -67.9931640625 c 5,48,49
 1232 -34 1232 -34 1237.29394531 -0.8955078125 c 5,12,-1
EndSplineSet
EndChar

StartChar: arabic_ring
Encoding: 65549 -1 274
Width: 594
VWidth: 2792
GlyphClass: 2
Flags: W
LayerCount: 2
Fore
SplineSet
361.985351562 430.096679688 m 0,0,1
 347.88671875 438.543945312 347.88671875 438.543945312 334.99609375 442.606445312 c 128,-1,2
 322.104492188 446.668945312 322.104492188 446.668945312 310.341796875 446.668945312 c 0,3,4
 225.434570312 446.668945312 225.434570312 446.668945312 190.2734375 388.487304688 c 0,5,6
 181.977539062 374.76171875 181.977539062 374.76171875 177.638671875 355.78125 c 128,-1,7
 173.299804688 336.801757812 173.299804688 336.801757812 173.299804688 312.515625 c 0,8,9
 173.299804688 266.7421875 173.299804688 266.7421875 209.451171875 231.239257812 c 128,-1,10
 245.677734375 195.663085938 245.677734375 195.663085938 298.802734375 195.663085938 c 128,-1,11
 351.91015625 195.663085938 351.91015625 195.663085938 388.106445312 231.862304688 c 0,12,13
 406.165039062 249.920898438 406.165039062 249.920898438 415.236328125 274.568359375 c 128,-1,14
 424.306640625 299.21484375 424.306640625 299.21484375 424.306640625 331.556640625 c 0,15,16
 424.306640625 392.764648438 424.306640625 392.764648438 361.985351562 430.096679688 c 0,0,1
604.447265625 321.166015625 m 0,17,18
 604.447265625 192.815429688 604.447265625 192.815429688 515.83203125 103.502929688 c 128,-1,19
 427.185546875 14.15625 427.185546875 14.15625 298.802734375 14.15625 c 128,-1,20
 170.436523438 14.15625 170.436523438 14.15625 81.7802734375 103.5078125 c 128,-1,21
 -6.8427734375 192.829101562 -6.8427734375 192.829101562 -6.8427734375 321.166015625 c 128,-1,22
 -6.8427734375 449.526367188 -6.8427734375 449.526367188 81.798828125 538.168945312 c 128,-1,23
 170.44140625 626.810546875 170.44140625 626.810546875 298.802734375 626.810546875 c 128,-1,24
 427.125976562 626.810546875 427.125976562 626.810546875 516.487304688 538.849609375 c 0,25,26
 560.34765625 494.29296875 560.34765625 494.29296875 582.397460938 439.661132812 c 128,-1,27
 604.447265625 385.030273438 604.447265625 385.030273438 604.447265625 321.166015625 c 0,17,18
EndSplineSet
EndChar

StartChar: arabic_gaf_bar
Encoding: 65550 -1 275
Width: 718
VWidth: 2590
GlyphClass: 2
Flags: W
LayerCount: 2
Fore
SplineSet
711.831054688 2046.45996094 m 2,0,1
 689.962301534 1963.11263123 689.962301534 1963.11263123 654.475585938 1903.6640625 c 2,2,-1
 651.6640625 1898.95410156 l 1,3,-1
 2.5048828125 1625.49023438 l 5,4,-1
 49.6181640625 1782.82617188 l 5,5,-1
 719.069335938 2074.046875 l 1,6,-1
 711.831054688 2046.45996094 l 2,0,1
EndSplineSet
EndChar

StartChar: uni066E.init.math
Encoding: 65560 -1 285
Width: 1237
VWidth: 3097
GlyphClass: 2
Flags: W
LayerCount: 2
Fore
SplineSet
945.55859375 547.1640625 m 2,0,1
 945.55859375 265.581054688 945.55859375 265.581054688 807.594726562 99.7900390625 c 0,2,3
 700.088867188 -25.974609375 700.088867188 -25.974609375 468 -26.3408203125 c 2,4,-1
 -38.9580078125 -26.3408203125 l 1,5,-1
 -38.9580078125 220.020507812 l 1,6,-1
 382.888671875 220.020507812 l 2,7,8
 543.090820312 220.020507812 543.090820312 220.020507812 621.14453125 300.625 c 128,-1,9
 699.19921875 381.228515625 699.19921875 381.228515625 699.19921875 547.1640625 c 2,10,-1
 699.19921875 863.780273438 l 1,11,-1
 945.55859375 863.780273438 l 1,12,-1
 945.55859375 547.1640625 l 2,0,1
EndSplineSet
EndChar

StartChar: guillemotleft
Encoding: 171 171 286
Width: 1353
VWidth: 2792
Flags: W
LayerCount: 2
Fore
SplineSet
658.296875 1298.22851562 m 1,0,-1
 617.694335938 1226.83691406 l 2,1,2
 537.1796875 1085.26464844 537.1796875 1085.26464844 497.05859375 947.497070312 c 0,3,4
 455.8046875 805.805664062 455.8046875 805.805664062 455.8046875 660.377929688 c 128,-1,5
 455.8046875 514.916015625 455.8046875 514.916015625 497.079101562 372.209960938 c 0,6,7
 537.168945312 233.586914062 537.168945312 233.586914062 617.629882812 92.6845703125 c 2,8,-1
 658.438476562 21.220703125 l 1,9,-1
 460.024414062 21.220703125 l 1,10,-1
 445.944335938 43.3916015625 l 2,11,12
 426.028320312 74.7646484375 426.028320312 74.7646484375 408.103515625 105.9296875 c 128,-1,13
 390.168945312 137.11328125 390.168945312 137.11328125 374.235351562 168.07421875 c 0,14,15
 370.250976562 175.817382812 370.250976562 175.817382812 366.390625 183.547851562 c 128,-1,16
 362.530273438 191.278320312 362.530273438 191.278320312 358.793945312 198.99609375 c 128,-1,17
 355.056640625 206.715820312 355.056640625 206.715820312 351.443359375 214.423828125 c 128,-1,18
 347.831054688 222.131835938 347.831054688 222.131835938 344.341796875 229.828125 c 0,19,20
 330.385742188 260.616210938 330.385742188 260.616210938 318.426757812 291.1875 c 0,21,22
 312.444335938 306.478515625 312.444335938 306.478515625 306.959960938 321.719726562 c 128,-1,23
 301.475585938 336.961914062 301.475585938 336.961914062 296.48828125 352.158203125 c 0,24,25
 271.079101562 429.602539062 271.079101562 429.602539062 258.364257812 506.657226562 c 0,26,27
 254.124023438 532.348632812 254.124023438 532.348632812 251.296875 557.990234375 c 128,-1,28
 248.471679688 583.635742188 248.471679688 583.635742188 247.05859375 609.23046875 c 128,-1,29
 245.645507812 634.828125 245.645507812 634.828125 245.645507812 660.377929688 c 0,30,31
 245.645507812 666.7421875 245.645507812 666.7421875 245.733398438 673.108398438 c 128,-1,32
 245.822265625 679.474609375 245.822265625 679.474609375 245.999023438 685.846679688 c 0,33,34
 246.353515625 698.583007812 246.353515625 698.583007812 247.059570312 711.334960938 c 128,-1,35
 247.766601562 724.084960938 247.766601562 724.084960938 248.827148438 736.848632812 c 0,36,37
 252.008789062 775.127929688 252.008789062 775.127929688 258.370117188 813.509765625 c 128,-1,38
 264.729492188 851.87109375 264.729492188 851.87109375 274.264648438 890.33984375 c 0,39,40
 275.456054688 895.145507812 275.456054688 895.145507812 276.698242188 899.955078125 c 128,-1,41
 277.939453125 904.764648438 277.939453125 904.764648438 279.23046875 909.572265625 c 0,42,43
 281.811523438 919.193359375 281.811523438 919.193359375 284.591796875 928.819335938 c 128,-1,44
 287.372070312 938.443359375 287.372070312 938.443359375 290.349609375 948.072265625 c 0,45,46
 291.094726562 950.48046875 291.094726562 950.48046875 291.8515625 952.888671875 c 128,-1,47
 292.608398438 955.295898438 292.608398438 955.295898438 293.376953125 957.704101562 c 128,-1,48
 294.146484375 960.112304688 294.146484375 960.112304688 294.928710938 962.521484375 c 128,-1,49
 295.709960938 964.930664062 295.709960938 964.930664062 296.504882812 967.340820312 c 0,50,51
 308.974609375 1005.15722656 308.974609375 1005.15722656 324.561523438 1043.38378906 c 128,-1,52
 340.13671875 1081.58496094 340.13671875 1081.58496094 358.819335938 1120.17675781 c 128,-1,53
 377.490234375 1158.74023438 377.490234375 1158.74023438 399.268554688 1197.703125 c 0,54,55
 404.7109375 1207.44042969 404.7109375 1207.44042969 410.346679688 1217.20117188 c 128,-1,56
 415.982421875 1226.96191406 415.982421875 1226.96191406 421.813476562 1236.74902344 c 128,-1,57
 427.64453125 1246.53515625 427.64453125 1246.53515625 433.666992188 1256.34179688 c 128,-1,58
 439.689453125 1266.1484375 439.689453125 1266.1484375 445.90625 1275.98242188 c 2,59,-1
 459.975585938 1298.22851562 l 1,60,-1
 658.296875 1298.22851562 l 1,0,-1
1171.31152344 1298.22851562 m 1,61,-1
 1130.70703125 1226.83691406 l 2,62,63
 1090.421875 1156 1090.421875 1156 1060.25 1086.13085938 c 0,64,65
 1050.19726562 1062.85253906 1050.19726562 1062.85253906 1041.26953125 1039.68359375 c 128,-1,66
 1032.34179688 1016.51367188 1032.34179688 1016.51367188 1024.54492188 993.47265625 c 128,-1,67
 1016.74804688 970.432617188 1016.74804688 970.432617188 1010.07226562 947.497070312 c 0,68,69
 999.754882812 912.06640625 999.754882812 912.06640625 992.01953125 876.40234375 c 128,-1,70
 984.284179688 840.75 984.284179688 840.75 979.12890625 804.864257812 c 0,71,72
 978.870117188 803.06640625 978.870117188 803.06640625 978.620117188 801.276367188 c 128,-1,73
 978.369140625 799.486328125 978.369140625 799.486328125 978.124023438 797.681640625 c 0,74,75
 977.633789062 794.094726562 977.633789062 794.094726562 977.169921875 790.498046875 c 128,-1,76
 976.706054688 786.908203125 976.706054688 786.908203125 976.268554688 783.310546875 c 128,-1,77
 975.830078125 779.715820312 975.830078125 779.715820312 975.41796875 776.1171875 c 128,-1,78
 975.004882812 772.51953125 975.004882812 772.51953125 974.618164062 768.919921875 c 0,79,80
 972.68359375 750.919921875 972.68359375 750.919921875 971.39453125 732.858398438 c 128,-1,81
 970.10546875 714.797851562 970.10546875 714.797851562 969.459960938 696.6796875 c 128,-1,82
 968.817382812 678.557617188 968.817382812 678.557617188 968.817382812 660.377929688 c 0,83,84
 968.817382812 656.338867188 968.817382812 656.338867188 968.849609375 652.298828125 c 128,-1,85
 968.880859375 648.259765625 968.880859375 648.259765625 968.944335938 644.223632812 c 128,-1,86
 969.0078125 640.1875 969.0078125 640.1875 969.103515625 636.155273438 c 0,87,88
 969.390625 624.052734375 969.390625 624.052734375 969.963867188 611.96875 c 0,89,90
 970.154296875 607.94140625 970.154296875 607.94140625 970.376953125 603.916992188 c 128,-1,91
 970.600585938 599.891601562 970.600585938 599.891601562 970.854492188 595.868164062 c 128,-1,92
 971.109375 591.845703125 971.109375 591.845703125 971.396484375 587.823242188 c 0,93,94
 972.255859375 575.760742188 972.255859375 575.760742188 973.40234375 563.716796875 c 128,-1,95
 974.549804688 551.672851562 974.549804688 551.672851562 975.981445312 539.646484375 c 128,-1,96
 977.415039062 527.62109375 977.415039062 527.62109375 979.134765625 515.61328125 c 0,97,98
 984.293945312 479.588867188 984.293945312 479.588867188 992.032226562 443.741210938 c 128,-1,99
 999.770507812 407.89453125 999.770507812 407.89453125 1010.09277344 372.208984375 c 0,100,101
 1020.10839844 337.569335938 1020.10839844 337.569335938 1032.64648438 302.79296875 c 128,-1,102
 1045.1875 268.005859375 1045.1875 268.005859375 1060.25488281 233.061523438 c 0,103,104
 1090.39550781 163.166992188 1090.39550781 163.166992188 1130.64648438 92.68359375 c 2,105,-1
 1171.44726562 21.220703125 l 1,106,-1
 973.03515625 21.220703125 l 1,107,-1
 958.958984375 43.390625 l 2,108,109
 934.075195312 82.5849609375 934.075195312 82.5849609375 912.30078125 121.458007812 c 128,-1,110
 890.508789062 160.362304688 890.508789062 160.362304688 871.830078125 198.94921875 c 0,111,112
 834.443359375 276.182617188 834.443359375 276.182617188 809.50390625 352.157226562 c 0,113,114
 808.444335938 355.383789062 808.444335938 355.383789062 807.408203125 358.610351562 c 128,-1,115
 806.37109375 361.8359375 806.37109375 361.8359375 805.356445312 365.061523438 c 128,-1,116
 804.341796875 368.286132812 804.341796875 368.286132812 803.349609375 371.510742188 c 128,-1,117
 802.356445312 374.735351562 802.356445312 374.735351562 801.385742188 377.959960938 c 0,118,119
 797.502929688 390.858398438 797.502929688 390.858398438 793.97265625 403.744140625 c 0,120,121
 793.266601562 406.321289062 793.266601562 406.321289062 792.575195312 408.897460938 c 128,-1,122
 791.8828125 411.473632812 791.8828125 411.473632812 791.205078125 414.05078125 c 128,-1,123
 790.52734375 416.626953125 790.52734375 416.626953125 789.86328125 419.202148438 c 128,-1,124
 789.200195312 421.778320312 789.200195312 421.778320312 788.55078125 424.353515625 c 128,-1,125
 787.900390625 426.928710938 787.900390625 426.928710938 787.265625 429.50390625 c 0,126,127
 784.086914062 442.379882812 784.086914062 442.379882812 781.26171875 455.244140625 c 0,128,129
 780.791015625 457.388671875 780.791015625 457.388671875 780.330078125 459.532226562 c 128,-1,130
 779.869140625 461.67578125 779.869140625 461.67578125 779.41796875 463.819335938 c 128,-1,131
 778.966796875 465.962890625 778.966796875 465.962890625 778.525390625 468.10546875 c 128,-1,132
 778.083984375 470.248046875 778.083984375 470.248046875 777.65234375 472.391601562 c 128,-1,133
 777.220703125 474.534179688 777.220703125 474.534179688 776.798828125 476.676757812 c 128,-1,134
 776.376953125 478.819335938 776.376953125 478.819335938 775.963867188 480.961914062 c 0,135,136
 774.728515625 487.388671875 774.728515625 487.388671875 773.581054688 493.813476562 c 128,-1,137
 772.432617188 500.237304688 772.432617188 500.237304688 771.374023438 506.658203125 c 0,138,139
 758.657226562 583.733398438 758.657226562 583.733398438 758.657226562 660.377929688 c 0,140,141
 758.657226562 736.73828125 758.657226562 736.73828125 771.377929688 813.499023438 c 0,142,143
 775.6171875 839.076171875 775.6171875 839.076171875 781.26953125 864.69921875 c 128,-1,144
 786.918945312 890.314453125 786.918945312 890.314453125 793.983398438 915.981445312 c 128,-1,145
 801.044921875 941.637695312 801.044921875 941.637695312 809.51953125 967.33984375 c 0,146,147
 834.427734375 1042.89453125 834.427734375 1042.89453125 871.8125 1120.12402344 c 128,-1,148
 909.146484375 1197.24511719 909.146484375 1197.24511719 958.921875 1275.98339844 c 2,149,-1
 972.987304688 1298.22851562 l 1,150,-1
 1171.31152344 1298.22851562 l 1,61,-1
EndSplineSet
EndChar

StartChar: guillemotright
Encoding: 187 187 287
Width: 1353
VWidth: 2792
Flags: W
LayerCount: 2
Fore
SplineSet
699.276367188 1298.22851562 m 1,0,-1
 897.6015625 1298.22851562 l 1,1,-1
 911.663085938 1275.98535156 l 2,2,3
 914.775390625 1271.06542969 914.775390625 1271.06542969 917.8359375 1266.15234375 c 128,-1,4
 920.899414062 1261.23828125 920.899414062 1261.23828125 923.911132812 1256.33203125 c 0,5,6
 925.41796875 1253.87890625 925.41796875 1253.87890625 926.912109375 1251.42675781 c 128,-1,7
 928.40625 1248.97558594 928.40625 1248.97558594 929.889648438 1246.5234375 c 128,-1,8
 931.372070312 1244.07324219 931.372070312 1244.07324219 932.842773438 1241.625 c 128,-1,9
 934.3125 1239.17578125 934.3125 1239.17578125 935.770507812 1236.72949219 c 0,10,11
 947.436523438 1217.14648438 947.436523438 1217.14648438 958.326171875 1197.66601562 c 0,12,13
 963.770507812 1187.92382812 963.770507812 1187.92382812 969.020507812 1178.20996094 c 128,-1,14
 974.272460938 1168.4921875 974.272460938 1168.4921875 979.329101562 1158.79980469 c 0,15,16
 989.4453125 1139.41113281 989.4453125 1139.41113281 998.783203125 1120.12304688 c 0,17,18
 1011.23339844 1094.40625 1011.23339844 1094.40625 1022.30664062 1068.85546875 c 128,-1,19
 1033.37890625 1043.30371094 1033.37890625 1043.30371094 1043.06933594 1017.92773438 c 0,20,21
 1044.68457031 1013.69824219 1044.68457031 1013.69824219 1046.26171875 1009.47265625 c 128,-1,22
 1047.83789062 1005.24804688 1047.83789062 1005.24804688 1049.37695312 1001.02734375 c 128,-1,23
 1050.91503906 996.807617188 1050.91503906 996.807617188 1052.41503906 992.591796875 c 128,-1,24
 1053.91503906 988.375976562 1053.91503906 988.375976562 1055.37695312 984.165039062 c 128,-1,25
 1056.83789062 979.954101562 1056.83789062 979.954101562 1058.26171875 975.747070312 c 128,-1,26
 1059.68457031 971.541015625 1059.68457031 971.541015625 1061.06933594 967.33984375 c 0,27,28
 1111.92871094 813.073242188 1111.92871094 813.073242188 1111.92871094 660.377929688 c 0,29,30
 1111.92871094 634.827148438 1111.92871094 634.827148438 1110.515625 609.225585938 c 0,31,32
 1110.04394531 600.693359375 1110.04394531 600.693359375 1109.41601562 592.151367188 c 128,-1,33
 1108.78710938 583.614257812 1108.78710938 583.614257812 1108.00292969 575.073242188 c 0,34,35
 1107.84570312 573.36328125 1107.84570312 573.36328125 1107.68261719 571.654296875 c 128,-1,36
 1107.51953125 569.9453125 1107.51953125 569.9453125 1107.34960938 568.236328125 c 128,-1,37
 1107.18066406 566.526367188 1107.18066406 566.526367188 1107.00488281 564.817382812 c 128,-1,38
 1106.82910156 563.107421875 1106.82910156 563.107421875 1106.64648438 561.397460938 c 128,-1,39
 1106.46484375 559.6875 1106.46484375 559.6875 1106.27539062 557.977539062 c 0,40,41
 1105.33300781 549.427734375 1105.33300781 549.427734375 1104.23242188 540.873046875 c 128,-1,42
 1103.1328125 532.318359375 1103.1328125 532.318359375 1101.87695312 523.760742188 c 128,-1,43
 1100.62109375 515.203125 1100.62109375 515.203125 1099.20800781 506.640625 c 128,-1,44
 1097.79589844 498.079101562 1097.79589844 498.079101562 1096.2265625 489.51171875 c 128,-1,45
 1094.65722656 480.943359375 1094.65722656 480.943359375 1092.93066406 472.373046875 c 128,-1,46
 1091.20410156 463.802734375 1091.20410156 463.802734375 1089.32128906 455.227539062 c 0,47,48
 1078.02441406 403.783203125 1078.02441406 403.783203125 1061.08496094 352.15625 c 0,49,50
 1011.34960938 200.650390625 1011.34960938 200.650390625 911.884765625 43.798828125 c 2,51,-1
 897.553710938 21.220703125 l 1,52,-1
 699.137695312 21.220703125 l 1,53,-1
 739.942382812 92.68359375 l 2,54,55
 820.434570312 233.651367188 820.434570312 233.651367188 860.495117188 372.208984375 c 0,56,57
 881.133789062 443.5625 881.133789062 443.5625 891.451171875 515.616210938 c 0,58,59
 896.611328125 551.637695312 896.611328125 551.637695312 899.19140625 587.825195312 c 128,-1,60
 901.770507812 624.013671875 901.770507812 624.013671875 901.770507812 660.377929688 c 128,-1,61
 901.770507812 696.735351562 901.770507812 696.735351562 899.192382812 732.854492188 c 128,-1,62
 896.615234375 768.973632812 896.615234375 768.973632812 891.458984375 804.864257812 c 0,63,64
 888.020507812 828.791992188 888.020507812 828.791992188 883.438476562 852.611328125 c 128,-1,65
 878.85546875 876.431640625 878.85546875 876.431640625 873.125 900.154296875 c 128,-1,66
 867.39453125 923.876953125 867.39453125 923.876953125 860.517578125 947.497070312 c 0,67,68
 840.466796875 1016.36816406 840.466796875 1016.36816406 810.314453125 1086.20214844 c 128,-1,69
 780.163085938 1156.03613281 780.163085938 1156.03613281 739.883789062 1226.8359375 c 2,70,-1
 699.276367188 1298.22851562 l 1,0,-1
186.263671875 1298.22851562 m 1,71,-1
 384.5859375 1298.22851562 l 1,72,-1
 398.651367188 1275.98339844 l 2,73,74
 448.40625 1197.29101562 448.40625 1197.29101562 485.732421875 1120.19335938 c 0,75,76
 504.418945312 1081.59667969 504.418945312 1081.59667969 520.000976562 1043.38378906 c 128,-1,77
 535.583007812 1005.16992188 535.583007812 1005.16992188 548.055664062 967.33984375 c 0,78,79
 598.91796875 813.069335938 598.91796875 813.069335938 598.91796875 660.377929688 c 0,80,81
 598.91796875 647.6015625 598.91796875 647.6015625 598.564453125 634.814453125 c 128,-1,82
 598.211914062 622.02734375 598.211914062 622.02734375 597.505859375 609.2265625 c 0,83,84
 597.15234375 602.827148438 597.15234375 602.827148438 596.709960938 596.423828125 c 128,-1,85
 596.267578125 590.01953125 596.267578125 590.01953125 595.737304688 583.614257812 c 128,-1,86
 595.20703125 577.208007812 595.20703125 577.208007812 594.587890625 570.799804688 c 128,-1,87
 593.969726562 564.391601562 593.969726562 564.391601562 593.262695312 557.981445312 c 0,88,89
 591.848632812 545.15625 591.848632812 545.15625 590.08203125 532.321289062 c 128,-1,90
 588.315429688 519.486328125 588.315429688 519.486328125 586.196289062 506.643554688 c 128,-1,91
 584.078125 493.80078125 584.078125 493.80078125 581.60546875 480.947265625 c 128,-1,92
 579.133789062 468.09375 579.133789062 468.09375 576.307617188 455.229492188 c 0,93,94
 565.009765625 403.78515625 565.009765625 403.78515625 548.0703125 352.157226562 c 0,95,96
 535.606445312 314.184570312 535.606445312 314.184570312 520.0234375 275.881835938 c 128,-1,97
 504.454101562 237.61328125 504.454101562 237.61328125 485.764648438 199.000976562 c 128,-1,98
 467.088867188 160.422851562 467.088867188 160.422851562 445.291015625 121.5 c 128,-1,99
 423.5078125 82.6044921875 423.5078125 82.6044921875 398.615234375 43.3896484375 c 2,100,-1
 384.538085938 21.220703125 l 1,101,-1
 186.125976562 21.220703125 l 1,102,-1
 226.9296875 92.68359375 l 2,103,104
 307.420898438 233.650390625 307.420898438 233.650390625 347.484375 372.209960938 c 0,105,106
 368.122070312 443.56640625 368.122070312 443.56640625 378.44140625 515.62109375 c 128,-1,107
 388.756835938 587.653320312 388.756835938 587.653320312 388.756835938 660.377929688 c 0,108,109
 388.756835938 665.572265625 388.756835938 665.572265625 388.704101562 670.760742188 c 128,-1,110
 388.651367188 675.950195312 388.651367188 675.950195312 388.545898438 681.133789062 c 128,-1,111
 388.440429688 686.318359375 388.440429688 686.318359375 388.282226562 691.498046875 c 128,-1,112
 388.125 696.676757812 388.125 696.676757812 387.9140625 701.852539062 c 0,113,114
 387.493164062 712.202148438 387.493164062 712.202148438 386.862304688 722.532226562 c 128,-1,115
 386.23046875 732.862304688 386.23046875 732.862304688 385.387695312 743.173828125 c 0,116,117
 384.827148438 750.046875 384.827148438 750.046875 384.172851562 756.912109375 c 128,-1,118
 383.517578125 763.778320312 383.517578125 763.778320312 382.76953125 770.635742188 c 128,-1,119
 382.021484375 777.4921875 382.021484375 777.4921875 381.1796875 784.338867188 c 128,-1,120
 380.336914062 791.189453125 380.336914062 791.189453125 379.40234375 798.029296875 c 0,121,122
 378.934570312 801.450195312 378.934570312 801.450195312 378.443359375 804.8671875 c 128,-1,123
 377.952148438 808.283203125 377.952148438 808.283203125 377.436523438 811.701171875 c 128,-1,124
 376.922851562 815.1171875 376.922851562 815.1171875 376.384765625 818.530273438 c 128,-1,125
 375.846679688 821.944335938 375.846679688 821.944335938 375.286132812 825.35546875 c 0,126,127
 371.91796875 845.826171875 371.91796875 845.826171875 367.708984375 866.221679688 c 128,-1,128
 363.500976562 886.6171875 363.500976562 886.6171875 358.44921875 906.93359375 c 0,129,130
 356.764648438 913.70703125 356.764648438 913.70703125 354.987304688 920.471679688 c 128,-1,131
 353.209960938 927.236328125 353.209960938 927.236328125 351.338867188 933.993164062 c 128,-1,132
 349.46875 940.75 349.46875 940.75 347.50390625 947.497070312 c 0,133,134
 307.374023438 1085.33789062 307.374023438 1085.33789062 226.868164062 1226.8359375 c 2,135,-1
 186.263671875 1298.22851562 l 1,71,-1
EndSplineSet
EndChar

StartChar: exclam
Encoding: 33 33 296
Width: 759
VWidth: -1
Flags: W
LayerCount: 2
Fore
SplineSet
227.002929688 164.392578125 m 128,-1,1
 227.002929688 227.408203125 227.002929688 227.408203125 271.8828125 272.12890625 c 128,-1,2
 316.762695312 316.849609375 316.762695312 316.849609375 380.002929688 316.849609375 c 128,-1,3
 443.243164062 316.849609375 443.243164062 316.849609375 488.123046875 272.12890625 c 128,-1,4
 533.002929688 227.408203125 533.002929688 227.408203125 533.002929688 164.392578125 c 128,-1,5
 533.002929688 101.376953125 533.002929688 101.376953125 488.123046875 56.65625 c 128,-1,6
 443.243164062 11.935546875 443.243164062 11.935546875 380.002929688 11.935546875 c 128,-1,7
 316.762695312 11.935546875 316.762695312 11.935546875 271.8828125 56.65625 c 128,-1,0
 227.002929688 101.376953125 227.002929688 101.376953125 227.002929688 164.392578125 c 128,-1,1
364.106445312 1612.61132812 m 2,8,-1
 402.008789062 1612.61132812 l 2,9,10
 519.857457993 1612.99953046 519.857457993 1612.99953046 507.892578125 1468.89941406 c 2,11,-1
 435.038085938 591.469726562 l 2,12,13
 426 482 426 482 376.862304688 481.724609375 c 0,14,15
 335.498344726 481.996721646 335.498344726 481.996721646 325.520507812 591.383789062 c 2,16,-1
 245.591796875 1467.64257812 l 2,17,18
 232 1613 232 1613 364.106445312 1612.61132812 c 2,8,-1
EndSplineSet
EndChar

StartChar: period
Encoding: 46 46 297
Width: 822
VWidth: 2799
Flags: W
LayerCount: 2
Fore
SplineSet
290.369140625 164.5546875 m 132,-1,1
 290.369140625 227.5703125 290.369140625 227.5703125 335.249023438 272.291015625 c 132,-1,2
 380.12890625 317.01171875 380.12890625 317.01171875 443.369140625 317.01171875 c 132,-1,3
 506.609375 317.01171875 506.609375 317.01171875 551.489257812 272.291015625 c 132,-1,4
 596.369140625 227.5703125 596.369140625 227.5703125 596.369140625 164.5546875 c 132,-1,5
 596.369140625 101.5390625 596.369140625 101.5390625 551.489257812 56.818359375 c 132,-1,6
 506.609375 12.09765625 506.609375 12.09765625 443.369140625 12.09765625 c 132,-1,7
 380.12890625 12.09765625 380.12890625 12.09765625 335.249023438 56.818359375 c 132,-1,0
 290.369140625 101.5390625 290.369140625 101.5390625 290.369140625 164.5546875 c 132,-1,1
EndSplineSet
EndChar

StartChar: colon
Encoding: 58 58 298
Width: 822
VWidth: 2799
Flags: W
LayerCount: 2
Fore
SplineSet
290.369140625 886.5546875 m 128,-1,1
 290.369140625 949.5703125 290.369140625 949.5703125 335.249023438 994.291015625 c 128,-1,2
 380.12890625 1039.01171875 380.12890625 1039.01171875 443.369140625 1039.01171875 c 128,-1,3
 506.609375 1039.01171875 506.609375 1039.01171875 551.489257812 994.291015625 c 128,-1,4
 596.369140625 949.5703125 596.369140625 949.5703125 596.369140625 886.5546875 c 128,-1,5
 596.369140625 823.5390625 596.369140625 823.5390625 551.489257812 778.818359375 c 128,-1,6
 506.609375 734.09765625 506.609375 734.09765625 443.369140625 734.09765625 c 128,-1,7
 380.12890625 734.09765625 380.12890625 734.09765625 335.249023438 778.818359375 c 128,-1,0
 290.369140625 823.5390625 290.369140625 823.5390625 290.369140625 886.5546875 c 128,-1,1
290.369140625 164.5546875 m 128,-1,9
 290.369140625 227.5703125 290.369140625 227.5703125 335.249023438 272.291015625 c 128,-1,10
 380.12890625 317.01171875 380.12890625 317.01171875 443.369140625 317.01171875 c 128,-1,11
 506.609375 317.01171875 506.609375 317.01171875 551.489257812 272.291015625 c 128,-1,12
 596.369140625 227.5703125 596.369140625 227.5703125 596.369140625 164.5546875 c 128,-1,13
 596.369140625 101.5390625 596.369140625 101.5390625 551.489257812 56.818359375 c 128,-1,14
 506.609375 12.09765625 506.609375 12.09765625 443.369140625 12.09765625 c 128,-1,15
 380.12890625 12.09765625 380.12890625 12.09765625 335.249023438 56.818359375 c 128,-1,8
 290.369140625 101.5390625 290.369140625 101.5390625 290.369140625 164.5546875 c 128,-1,9
EndSplineSet
EndChar
